<svg width="18" height="18" viewBox="0 0 18 18" fill="none" xmlns="http://www.w3.org/2000/svg">
<path d="M0.00382704 12.8781C0.00382704 15.5075 1.92215 17.639 4.28863 17.639C6.65514 17.639 8.57346 15.5075 8.57346 12.8781C8.57346 10.2486 6.65514 8.11718 4.28863 8.11718C3.80228 8.11718 3.33673 8.21139 2.9009 8.3774C3.86517 2.23261 8.17774 -1.73007 4.18 1.5313C-0.252899 5.14779 -0.000920577 12.7326 0.00403962 12.8716C0.00403962 12.8737 0.00382704 12.8757 0.00382704 12.8781Z" fill="#929292"/>
<path d="M9.43059 12.8781C9.43059 15.5075 11.3489 17.639 13.7154 17.639C16.0819 17.639 18.0003 15.5075 18.0003 12.8781C18.0003 10.2486 16.0819 8.11718 13.7154 8.11718C13.229 8.11718 12.7635 8.21139 12.3277 8.3774C13.2919 2.23261 17.6045 -1.73007 13.6068 1.5313C9.17387 5.14779 9.42581 12.7326 9.43081 12.8716C9.43081 12.8737 9.43059 12.8757 9.43059 12.8781Z" fill="#929292"/>
</svg>
