<svg width="18" height="20" viewBox="0 0 18 20" fill="none" xmlns="http://www.w3.org/2000/svg">
<g clip-path="url(#clip0)">
<path d="M0.00382704 13.8781C0.00382704 16.5075 1.92215 18.639 4.28863 18.639C6.65514 18.639 8.57346 16.5075 8.57346 13.8781C8.57346 11.2486 6.65514 9.11718 4.28863 9.11718C3.80228 9.11718 3.33673 9.21139 2.9009 9.3774C3.86517 3.23261 8.17774 -0.730075 4.18 2.5313C-0.252899 6.14779 -0.000920577 13.7326 0.00403962 13.8716C0.00403962 13.8737 0.00382704 13.8757 0.00382704 13.8781Z" fill="black"/>
<path d="M9.43059 13.8781C9.43059 16.5075 11.3489 18.639 13.7154 18.639C16.0819 18.639 18.0003 16.5075 18.0003 13.8781C18.0003 11.2486 16.0819 9.11718 13.7154 9.11718C13.229 9.11718 12.7635 9.21139 12.3277 9.3774C13.2919 3.23261 17.6045 -0.730075 13.6068 2.5313C9.17387 6.14779 9.42581 13.7326 9.43081 13.8716C9.43081 13.8737 9.43059 13.8757 9.43059 13.8781Z" fill="black"/>
</g>
<defs>
<clipPath id="clip0">
<rect width="18" height="20" fill="white"/>
</clipPath>
</defs>
</svg>
