<svg width="31" height="31" viewBox="0 0 31 31" fill="none" xmlns="http://www.w3.org/2000/svg">
<path d="M10.1719 25.6719H11.1406V26.6406H10.1719V25.6719Z" fill="#C9C9C9"/>
<path d="M10.1719 27.6094H11.1406V28.5781H10.1719V27.6094Z" fill="#C9C9C9"/>
<path d="M21.3333 15.9844C21.7722 15.9844 22.1853 15.7911 22.4658 15.454L24.4459 13.0781H28.0938C29.4292 13.0781 30.5156 11.9917 30.5156 10.6562V5.8125C30.5156 4.47708 29.4292 3.39062 28.0938 3.39062H25.6719C25.6719 1.78783 24.3684 0.484375 22.7656 0.484375C21.1628 0.484375 19.8594 1.78783 19.8594 3.39062H17.4375C16.1021 3.39062 15.0156 4.47708 15.0156 5.8125V8.48673C14.0939 7.72433 12.912 7.26562 11.625 7.26562H11.1406C9.53444 7.26562 7.99703 8.0043 6.99147 9.25108C5.45842 9.62114 4.35938 11.0055 4.35938 12.5938C4.35938 14.2658 5.07625 15.8333 6.32303 16.9381C6.4853 18.4445 7.41869 19.7194 8.71875 20.368V21.4132L5.33878 22.2086C2.48048 22.8809 0.484375 25.4016 0.484375 28.3379V30.5156H20.8281V28.3379C20.8281 27.389 20.6169 26.4851 20.2386 25.6719H22.0541L24.0342 28.0472C24.3147 28.3849 24.7278 28.5781 25.1667 28.5781C25.9795 28.5781 26.6406 27.917 26.6406 27.1042V25.6719H28.0938C29.4292 25.6719 30.5156 24.5854 30.5156 23.25V19.375C30.5156 18.0396 29.4292 16.9531 28.0938 16.9531H18.4062C17.0708 16.9531 15.9844 18.0396 15.9844 19.375V22.2115C15.9805 22.2105 15.9771 22.2091 15.9737 22.2086L12.5938 21.4132V20.368C13.8938 19.7194 14.8272 18.444 14.9895 16.9381C16.1147 15.9408 16.803 14.5666 16.9265 13.0781H19.8594V14.5104C19.8594 15.3232 20.5205 15.9844 21.3333 15.9844ZM22.7656 1.45312C23.8342 1.45312 24.7031 2.32209 24.7031 3.39062C24.7031 4.45916 23.8342 5.32812 22.7656 5.32812C21.6971 5.32812 20.8281 4.45916 20.8281 3.39062C20.8281 2.32209 21.6971 1.45312 22.7656 1.45312ZM9.00598 22.3408L10.0508 23.7344L8.92267 25.2384L7.94714 22.5898L9.00598 22.3408ZM10.6562 24.5413L11.9912 26.3209L10.803 29.5469H10.51L9.3218 26.3209L10.6562 24.5413ZM1.45312 28.3379C1.45312 25.853 3.14214 23.7203 5.56111 23.1512L6.99631 22.8136L9.47728 29.5469H5.32812V26.6406H4.35938V29.5469H1.45312V28.3379ZM16.9531 19.375C16.9531 18.5738 17.6051 17.9219 18.4062 17.9219H28.0938C28.8949 17.9219 29.5469 18.5738 29.5469 19.375V23.25C29.5469 24.0512 28.8949 24.7031 28.0938 24.7031H25.6719V27.1042C25.6719 27.3827 25.4452 27.6094 25.1667 27.6094C25.016 27.6094 24.8746 27.543 24.7787 27.4277L22.5084 24.7031H19.6753C19.0025 23.7499 18.0682 22.9875 16.9531 22.5259V19.375ZM19.8594 28.3379V29.5469H16.9531V26.6406H15.9844V29.5469H11.8352L14.3157 22.8136L15.7509 23.1512C18.1704 23.7208 19.8594 25.8535 19.8594 28.3379ZM13.3658 22.5903L12.3903 25.2388L11.2617 23.7344L12.3065 22.3408L13.3658 22.5903ZM11.625 21.6356L10.6562 22.9274L9.6875 21.6356V20.7158C9.99944 20.787 10.323 20.8281 10.6562 20.8281C10.9895 20.8281 11.3131 20.787 11.625 20.7158V21.6356ZM14.0469 16.4688C14.0469 18.3384 12.5255 19.8594 10.6562 19.8594C8.78705 19.8594 7.26562 18.3384 7.26562 16.4688V14.1936C7.26562 13.8454 7.5485 13.5625 7.89677 13.5625C8.02173 13.5625 8.14283 13.5993 8.24697 13.6686L9.54073 14.5312H12.5938C13.3949 14.5312 14.0469 15.1832 14.0469 15.9844V16.4688ZM14.9725 15.5562C14.7686 14.4252 13.7824 13.5625 12.5938 13.5625H9.83427L8.78414 12.8626C8.52064 12.6868 8.21355 12.5938 7.89677 12.5938C7.01423 12.5938 6.29688 13.3111 6.29688 14.1936V15.4937C5.67494 14.6645 5.32812 13.654 5.32812 12.5938C5.32812 11.4206 6.16319 10.402 7.31406 10.1719L7.54269 10.1259L7.65313 9.97813C8.4722 8.88634 9.77614 8.23438 11.1406 8.23438H11.625C14.029 8.23438 15.9844 10.1903 15.9844 12.5938C15.9844 13.6802 15.6235 14.7158 14.9725 15.5562ZM16.9284 12.1094C16.8422 11.159 16.5051 10.2809 15.9844 9.53977V5.8125C15.9844 5.01134 16.6363 4.35938 17.4375 4.35938H20.0289C20.2149 4.88347 20.5457 5.33781 20.9754 5.67542C19.189 6.38891 17.9219 8.13363 17.9219 10.1719V11.1406H27.6094V10.1719C27.6094 8.13363 26.3422 6.38891 24.5559 5.67542C24.9855 5.33781 25.3163 4.88347 25.5023 4.35938H28.0938C28.8949 4.35938 29.5469 5.01134 29.5469 5.8125V10.6562C29.5469 11.4574 28.8949 12.1094 28.0938 12.1094H23.9916L21.7208 14.834C21.6254 14.9493 21.484 15.0156 21.3333 15.0156C21.0548 15.0156 20.8281 14.7889 20.8281 14.5104V12.1094H16.9284ZM22.7656 6.29688C24.9022 6.29688 26.6406 8.0353 26.6406 10.1719H18.8906C18.8906 8.0353 20.629 6.29688 22.7656 6.29688Z" fill="#C9C9C9"/>
<path d="M17.9219 18.8906H28.5781V19.8594H17.9219V18.8906Z" fill="#C9C9C9"/>
<path d="M17.9219 20.8281H28.5781V21.7969H17.9219V20.8281Z" fill="#C9C9C9"/>
<path d="M19.8594 22.7656H26.6406V23.7344H19.8594V22.7656Z" fill="#C9C9C9"/>
<path d="M27.6094 22.7656H28.5781V23.7344H27.6094V22.7656Z" fill="#C9C9C9"/>
</svg>
