<svg width="62" height="60" viewBox="0 0 62 60" fill="none" xmlns="http://www.w3.org/2000/svg">
<g clip-path="url(#clip0)">
<path d="M5.64258 47.095C6.43532 48.1859 7.30311 49.2241 8.23978 50.2025L11.081 47.6572C10.2619 46.8021 9.50279 45.8948 8.80919 44.9414L5.64258 47.095Z" fill="#0097FF"/>
<path d="M3.87436 29.8516C3.89591 16.7234 13.927 5.62513 27.3692 3.85709L26.8618 0.140381C9.90011 2.3477 -2.00093 17.4438 0.280096 33.8582C0.757266 37.2917 1.84548 40.6192 3.49669 43.6932L6.93057 41.9613C4.91005 38.2251 3.86105 34.0685 3.87436 29.8516Z" fill="#E0E0E0"/>
<path d="M11.2344 52.9523C12.2954 53.8018 13.4126 54.5833 14.5792 55.2914L16.6341 52.1051C15.6115 51.4852 14.6326 50.8003 13.7038 50.0547L11.2344 52.9523Z" fill="#0097FF"/>
<path d="M43.7901 2.54696C41.0355 1.33946 38.1132 0.52871 35.116 0.140381L34.6086 3.85709C49.4436 5.83446 59.8133 19.0757 57.77 33.432C55.9258 46.3887 44.5036 56.053 30.9888 56.0916C27.1357 56.1007 23.3257 55.3074 19.8175 53.7656L18.2178 57.1805C33.8073 64.0143 52.1697 57.324 59.2313 42.2374C66.2928 27.1508 59.3795 9.38073 43.7901 2.54696Z" fill="#0097FF"/>
<path d="M25.1719 38.6719H26.1406V39.6406H25.1719V38.6719Z" fill="#c9c9c9"/>
<path d="M25.1719 40.6094H26.1406V41.5781H25.1719V40.6094Z" fill="#c9c9c9"/>
<path d="M36.3333 28.9844C36.7722 28.9844 37.1853 28.7911 37.4658 28.454L39.4459 26.0781H43.0938C44.4292 26.0781 45.5156 24.9917 45.5156 23.6562V18.8125C45.5156 17.4771 44.4292 16.3906 43.0938 16.3906H40.6719C40.6719 14.7878 39.3684 13.4844 37.7656 13.4844C36.1628 13.4844 34.8594 14.7878 34.8594 16.3906H32.4375C31.1021 16.3906 30.0156 17.4771 30.0156 18.8125V21.4867C29.0939 20.7243 27.912 20.2656 26.625 20.2656H26.1406C24.5344 20.2656 22.997 21.0043 21.9915 22.2511C20.4584 22.6211 19.3594 24.0055 19.3594 25.5938C19.3594 27.2658 20.0762 28.8333 21.323 29.9381C21.4853 31.4445 22.4187 32.7194 23.7188 33.368V34.4132L20.3388 35.2086C17.4805 35.8809 15.4844 38.4016 15.4844 41.3379V43.5156H35.8281V41.3379C35.8281 40.389 35.6169 39.4851 35.2386 38.6719H37.0541L39.0342 41.0472C39.3147 41.3849 39.7278 41.5781 40.1667 41.5781C40.9795 41.5781 41.6406 40.917 41.6406 40.1042V38.6719H43.0938C44.4292 38.6719 45.5156 37.5854 45.5156 36.25V32.375C45.5156 31.0396 44.4292 29.9531 43.0938 29.9531H33.4062C32.0708 29.9531 30.9844 31.0396 30.9844 32.375V35.2115C30.9805 35.2105 30.9771 35.2091 30.9737 35.2086L27.5938 34.4132V33.368C28.8938 32.7194 29.8272 31.444 29.9895 29.9381C31.1147 28.9408 31.803 27.5666 31.9265 26.0781H34.8594V27.5104C34.8594 28.3232 35.5205 28.9844 36.3333 28.9844ZM37.7656 14.4531C38.8342 14.4531 39.7031 15.3221 39.7031 16.3906C39.7031 17.4592 38.8342 18.3281 37.7656 18.3281C36.6971 18.3281 35.8281 17.4592 35.8281 16.3906C35.8281 15.3221 36.6971 14.4531 37.7656 14.4531ZM24.006 35.3408L25.0508 36.7344L23.9227 38.2384L22.9471 35.5898L24.006 35.3408ZM25.6562 37.5413L26.9912 39.3209L25.803 42.5469H25.51L24.3218 39.3209L25.6562 37.5413ZM16.4531 41.3379C16.4531 38.853 18.1421 36.7203 20.5611 36.1512L21.9963 35.8136L24.4773 42.5469H20.3281V39.6406H19.3594V42.5469H16.4531V41.3379ZM31.9531 32.375C31.9531 31.5738 32.6051 30.9219 33.4062 30.9219H43.0938C43.8949 30.9219 44.5469 31.5738 44.5469 32.375V36.25C44.5469 37.0512 43.8949 37.7031 43.0938 37.7031H40.6719V40.1042C40.6719 40.3827 40.4452 40.6094 40.1667 40.6094C40.016 40.6094 39.8746 40.543 39.7787 40.4277L37.5084 37.7031H34.6753C34.0025 36.7499 33.0682 35.9875 31.9531 35.5259V32.375ZM34.8594 41.3379V42.5469H31.9531V39.6406H30.9844V42.5469H26.8352L29.3157 35.8136L30.7509 36.1512C33.1704 36.7208 34.8594 38.8535 34.8594 41.3379ZM28.3658 35.5903L27.3903 38.2388L26.2617 36.7344L27.3065 35.3408L28.3658 35.5903ZM26.625 34.6356L25.6562 35.9274L24.6875 34.6356V33.7158C24.9994 33.787 25.323 33.8281 25.6562 33.8281C25.9895 33.8281 26.3131 33.787 26.625 33.7158V34.6356ZM29.0469 29.4688C29.0469 31.3384 27.5255 32.8594 25.6562 32.8594C23.7871 32.8594 22.2656 31.3384 22.2656 29.4688V27.1936C22.2656 26.8454 22.5485 26.5625 22.8968 26.5625C23.0217 26.5625 23.1428 26.5993 23.247 26.6686L24.5407 27.5312H27.5938C28.3949 27.5312 29.0469 28.1832 29.0469 28.9844V29.4688ZM29.9725 28.5562C29.7686 27.4252 28.7824 26.5625 27.5938 26.5625H24.8343L23.7841 25.8626C23.5206 25.6868 23.2136 25.5938 22.8968 25.5938C22.0142 25.5938 21.2969 26.3111 21.2969 27.1936V28.4937C20.6749 27.6645 20.3281 26.654 20.3281 25.5938C20.3281 24.4206 21.1632 23.402 22.3141 23.1719L22.5427 23.1259L22.6531 22.9781C23.4722 21.8863 24.7761 21.2344 26.1406 21.2344H26.625C29.029 21.2344 30.9844 23.1903 30.9844 25.5938C30.9844 26.6802 30.6235 27.7158 29.9725 28.5562ZM31.9284 25.1094C31.8422 24.159 31.5051 23.2809 30.9844 22.5398V18.8125C30.9844 18.0113 31.6363 17.3594 32.4375 17.3594H35.0289C35.2149 17.8835 35.5457 18.3378 35.9754 18.6754C34.189 19.3889 32.9219 21.1336 32.9219 23.1719V24.1406H42.6094V23.1719C42.6094 21.1336 41.3422 19.3889 39.5559 18.6754C39.9855 18.3378 40.3163 17.8835 40.5023 17.3594H43.0938C43.8949 17.3594 44.5469 18.0113 44.5469 18.8125V23.6562C44.5469 24.4574 43.8949 25.1094 43.0938 25.1094H38.9916L36.7208 27.834C36.6254 27.9493 36.484 28.0156 36.3333 28.0156C36.0548 28.0156 35.8281 27.7889 35.8281 27.5104V25.1094H31.9284ZM37.7656 19.2969C39.9022 19.2969 41.6406 21.0353 41.6406 23.1719H33.8906C33.8906 21.0353 35.629 19.2969 37.7656 19.2969Z" fill="#c9c9c9"/>
<path d="M32.9219 31.8906H43.5781V32.8594H32.9219V31.8906Z" fill="#c9c9c9"/>
<path d="M32.9219 33.8281H43.5781V34.7969H32.9219V33.8281Z" fill="#c9c9c9"/>
<path d="M34.8594 35.7656H41.6406V36.7344H34.8594V35.7656Z" fill="#c9c9c9"/>
<path d="M42.6094 35.7656H43.5781V36.7344H42.6094V35.7656Z" fill="#c9c9c9"/>
</g>
<defs>
<clipPath id="clip0">
<rect width="62" height="60" fill="#c9c9c9"/>
</clipPath>
</defs>
</svg>
