<svg width="62" height="60" viewBox="0 0 62 60" fill="none" xmlns="http://www.w3.org/2000/svg">
<g clip-path="url(#clip0)">
<path d="M5.64258 47.095C6.43532 48.1859 7.30311 49.2241 8.23978 50.2025L11.081 47.6572C10.2619 46.8021 9.50279 45.8948 8.80919 44.9414L5.64258 47.095Z" fill="#0097FF"/>
<path d="M3.87436 29.8516C3.89591 16.7234 13.927 5.62513 27.3692 3.85709L26.8618 0.140381C9.90011 2.3477 -2.00093 17.4438 0.280096 33.8582C0.757266 37.2917 1.84548 40.6192 3.49669 43.6932L6.93057 41.9613C4.91005 38.2251 3.86105 34.0685 3.87436 29.8516Z" fill="#E0E0E0"/>
<path d="M11.2344 52.9523C12.2954 53.8018 13.4126 54.5833 14.5792 55.2914L16.6341 52.1051C15.6115 51.4852 14.6326 50.8003 13.7038 50.0547L11.2344 52.9523Z" fill="#0097FF"/>
<path d="M43.7901 2.54696C41.0355 1.33946 38.1132 0.52871 35.116 0.140381L34.6086 3.85709C49.4436 5.83446 59.8133 19.0757 57.77 33.432C55.9258 46.3887 44.5036 56.053 30.9888 56.0916C27.1357 56.1007 23.3257 55.3074 19.8175 53.7656L18.2178 57.1805C33.8073 64.0143 52.1697 57.324 59.2313 42.2374C66.2928 27.1508 59.3795 9.38073 43.7901 2.54696Z" fill="#0097FF"/>
<g clip-path="url(#clip1)">
<path d="M16.44 24.6906H20.1184C20.3614 24.6906 20.5584 24.487 20.5584 24.2359C20.5584 23.9848 20.3614 23.7812 20.1184 23.7812H16.44C16.197 23.7812 16 23.9848 16 24.2359C16 24.487 16.197 24.6906 16.44 24.6906Z" fill="#c9c9c9"/>
<path d="M30.9489 40.7038H29.9687C28.0769 40.7038 26.234 40.1478 24.6393 39.0957L24.548 39.0355C24.4772 38.9889 24.3952 38.9641 24.3113 38.9641H16.44C16.197 38.9641 16 39.1677 16 39.4188C16 39.6699 16.197 39.8734 16.44 39.8734H24.1828C25.9152 41.0116 27.9156 41.6131 29.9687 41.6131H30.9489C31.1919 41.6131 31.3889 41.4096 31.3889 41.1585C31.3889 40.9074 31.1919 40.7038 30.9489 40.7038Z" fill="#c9c9c9"/>
<path d="M45.3554 30.0316C45.3554 29.2264 45.0112 28.5032 44.4673 28.0094C45.3706 27.5863 46.0008 26.6464 46.0008 25.5566C46.0008 24.0722 44.8321 22.8645 43.3955 22.8645H38.0871C37.5244 22.8645 37.0032 23.0504 36.5768 23.365H34.6264C34.6303 23.3325 34.6362 23.3002 34.6441 23.2684L35.1649 21.183C35.3764 20.3363 35.4836 19.4636 35.4836 18.5891C35.4836 17.2313 35.2307 15.9057 34.732 14.6495L34.6658 14.4829C34.3869 13.7804 33.7318 13.3264 32.9969 13.3264C32.194 13.3264 31.4804 13.8839 31.2614 14.6821L30.6342 16.9684C30.4189 17.7531 29.9887 18.449 29.3901 18.9806L24.0824 23.6944C24.0194 23.7503 23.939 23.7811 23.856 23.7811H22.0015C21.7585 23.7811 21.5615 23.9847 21.5615 24.2358C21.5615 24.4869 21.7585 24.6905 22.0015 24.6905H23.856C24.1494 24.6905 24.4335 24.5817 24.6559 24.3841L29.9637 19.6702C30.6937 19.0219 31.2183 18.1734 31.4808 17.2164L32.108 14.9301C32.2202 14.5213 32.5857 14.2358 32.9969 14.2358C33.3733 14.2358 33.7087 14.4683 33.8516 14.8281L33.9177 14.9947C34.3728 16.1408 34.6035 17.3502 34.6035 18.5892C34.6035 19.387 34.5057 20.1832 34.3128 20.9557L33.7919 23.0411C33.7579 23.1775 33.7406 23.318 33.7406 23.4588V25.0704C33.7406 26.6154 33.3448 28.1389 32.5961 29.4762L31.9685 30.5972C31.8468 30.8145 31.9186 31.0927 32.129 31.2185C32.1984 31.26 32.2741 31.2797 32.3489 31.2797C32.5008 31.2797 32.6487 31.1983 32.7302 31.0526L33.3578 29.9316C34.184 28.456 34.6206 26.7751 34.6206 25.0704V24.2744H35.7967C35.5959 24.6559 35.4817 25.0927 35.4817 25.5566C35.4817 26.4882 35.9421 27.3106 36.6401 27.7941C35.9421 28.2776 35.4817 29.1 35.4817 30.0316C35.4817 30.9632 35.9421 31.7855 36.6401 32.2691C35.9421 32.7526 35.4817 33.575 35.4817 34.5065C35.4817 35.4381 35.9421 36.2605 36.6401 36.744C35.9421 37.2276 35.4817 38.0499 35.4817 38.9815C35.4817 39.6361 35.7092 40.2366 36.0864 40.7037H32.8321C32.5891 40.7037 32.3921 40.9073 32.3921 41.1584C32.3921 41.4095 32.5891 41.6131 32.8321 41.6131C32.8321 41.6131 37.5144 41.6123 37.5288 41.6107C37.7088 41.6515 37.8954 41.6736 38.087 41.6736H40.99C42.4266 41.6736 43.5953 40.4659 43.5953 38.9815C43.5953 38.2372 43.3015 37.5626 42.8274 37.0748C43.8834 36.731 44.6514 35.7097 44.6514 34.5065C44.6514 33.7112 44.3157 32.9956 43.7833 32.5024C44.7073 32.0882 45.3554 31.1368 45.3554 30.0316ZM36.3618 25.5566C36.3618 24.5736 37.1357 23.7738 38.0871 23.7738H43.3955C44.3468 23.7738 45.1208 24.5735 45.1208 25.5566C45.1208 26.5397 44.3468 27.3394 43.3955 27.3394H38.0871C37.1358 27.3394 36.3618 26.5396 36.3618 25.5566ZM40.9901 40.7643H38.0871C37.1358 40.7643 36.3618 39.9645 36.3618 38.9815C36.3618 37.9984 37.1357 37.1986 38.0871 37.1986H40.9901C41.9414 37.1986 42.7154 37.9984 42.7154 38.9815C42.7154 39.9645 41.9414 40.7643 40.9901 40.7643ZM42.7501 31.8144H41.9634C41.7204 31.8144 41.5234 32.018 41.5234 32.2691C41.5234 32.5202 41.7204 32.7237 41.9634 32.7237H42.0461C42.9974 32.7237 43.7714 33.5235 43.7714 34.5065C43.7714 35.4896 42.9975 36.2894 42.0461 36.2894H38.0871C37.1358 36.2894 36.3618 35.4896 36.3618 34.5065C36.3618 33.5235 37.1357 32.7237 38.0871 32.7237H40.081C40.324 32.7237 40.521 32.5202 40.521 32.2691C40.521 32.018 40.324 31.8144 40.081 31.8144H38.0871C37.1358 31.8144 36.3618 31.0146 36.3618 30.0316C36.3618 29.0486 37.1357 28.2488 38.0871 28.2488H42.7501C43.7014 28.2488 44.4754 29.0485 44.4754 30.0316C44.4754 31.0146 43.7015 31.8144 42.7501 31.8144Z" fill="#c9c9c9"/>
</g>
</g>
<defs>
<clipPath id="clip0">
<rect width="62" height="60" fill="#c9c9c9"/>
</clipPath>
<clipPath id="clip1">
<rect width="30" height="29" fill="#c9c9c9" transform="translate(16 13)"/>
</clipPath>
</defs>
</svg>
