<svg width="62" height="60" viewBox="0 0 62 60" fill="none" xmlns="http://www.w3.org/2000/svg">
<g clip-path="url(#clip0)">
<path d="M5.64258 47.095C6.43532 48.1859 7.30311 49.2241 8.23978 50.2025L11.081 47.6572C10.2619 46.8021 9.50279 45.8948 8.80919 44.9414L5.64258 47.095Z" fill="#0097FF"/>
<path d="M3.87436 29.8516C3.89591 16.7234 13.927 5.62513 27.3692 3.85709L26.8618 0.140381C9.90011 2.3477 -2.00093 17.4438 0.280096 33.8582C0.757266 37.2917 1.84548 40.6192 3.49669 43.6932L6.93057 41.9613C4.91005 38.2251 3.86105 34.0685 3.87436 29.8516Z" fill="#E0E0E0"/>
<path d="M11.2344 52.9523C12.2954 53.8018 13.4126 54.5833 14.5792 55.2914L16.6341 52.1051C15.6115 51.4852 14.6326 50.8003 13.7038 50.0547L11.2344 52.9523Z" fill="#0097FF"/>
<path d="M43.7901 2.54696C41.0355 1.33946 38.1132 0.52871 35.116 0.140381L34.6086 3.85709C49.4436 5.83446 59.8133 19.0757 57.77 33.432C55.9258 46.3887 44.5036 56.053 30.9888 56.0916C27.1357 56.1007 23.3257 55.3074 19.8175 53.7656L18.2178 57.1805C33.8073 64.0143 52.1697 57.324 59.2313 42.2374C66.2928 27.1508 59.3795 9.38073 43.7901 2.54696Z" fill="#0097FF"/>
<path d="M48.3673 25.0029H45.39V16.7536C45.39 16.3375 45.1067 16 44.7574 16H18.6327C18.2832 16 18 16.3375 18 16.7536V37.6102C18 38.0264 18.2832 38.3638 18.6327 38.3638H29.4303V40.4928H27.9959C27.6465 40.4928 27.3633 40.8302 27.3633 41.2464C27.3633 41.6626 27.6465 42 27.9959 42H35.8127C36.1621 42 36.4454 41.6626 36.4454 41.2464C36.4454 40.8302 36.1621 40.4928 35.8127 40.4928H34.3784V38.3638H38.0142V41.2464C38.0142 41.6626 38.2975 42 38.6469 42H48.3673C48.7167 42 49 41.6626 49 41.2464V25.7566C49 25.3403 48.7167 25.0029 48.3673 25.0029ZM47.7347 36.8566H39.2795V26.5102H47.7347V36.8566ZM44.1247 17.5072V25.0029H38.6468C38.2975 25.0029 38.0142 25.3403 38.0142 25.7566V31.0354H19.2653V17.5072H44.1247ZM33.1131 40.4928H30.6956V38.3638H33.1131V40.4928ZM19.2653 36.8566V32.5426H38.0142V36.8566H19.2653ZM39.2795 40.4928V38.3638H47.7347V40.4928H39.2795Z" fill="#c9c9c9"/>
<path d="M46.6218 41.4333C46.8929 41.4333 47.1127 41.1769 47.1127 40.8606C47.1127 40.5443 46.8929 40.2878 46.6218 40.2878C46.3507 40.2878 46.1309 40.5443 46.1309 40.8606C46.1309 41.1769 46.3507 41.4333 46.6218 41.4333Z" fill="#c9c9c9"/>
<path d="M32.9037 36.023C33.2427 36.023 33.5174 35.7025 33.5174 35.307C33.5174 34.9116 33.2427 34.5911 32.9037 34.5911C32.5648 34.5911 32.29 34.9116 32.29 35.307C32.29 35.7025 32.5648 36.023 32.9037 36.023Z" fill="#c9c9c9"/>
</g>
<defs>
<clipPath id="clip0">
<rect width="62" height="60" fill="#c9c9c9"/>
</clipPath>
</defs>
</svg>
