<svg width="62" height="60" viewBox="0 0 62 60" fill="none" xmlns="http://www.w3.org/2000/svg">
<g clip-path="url(#clip0)">
<path d="M5.64258 47.095C6.43532 48.1859 7.30311 49.2241 8.23978 50.2025L11.081 47.6572C10.2619 46.8021 9.50279 45.8948 8.80919 44.9414L5.64258 47.095Z" fill="#0097FF"/>
<path d="M3.87436 29.8516C3.89591 16.7234 13.927 5.62513 27.3692 3.85709L26.8618 0.140381C9.90011 2.3477 -2.00093 17.4438 0.280096 33.8582C0.757266 37.2917 1.84548 40.6192 3.49669 43.6932L6.93057 41.9613C4.91005 38.2251 3.86105 34.0685 3.87436 29.8516Z" fill="#E0E0E0"/>
<path d="M11.2344 52.9523C12.2954 53.8018 13.4126 54.5833 14.5792 55.2914L16.6341 52.1051C15.6115 51.4852 14.6326 50.8003 13.7038 50.0547L11.2344 52.9523Z" fill="#0097FF"/>
<path d="M43.7901 2.54696C41.0355 1.33946 38.1132 0.52871 35.116 0.140381L34.6086 3.85709C49.4436 5.83446 59.8133 19.0757 57.77 33.432C55.9258 46.3887 44.5036 56.053 30.9888 56.0916C27.1357 56.1007 23.3257 55.3074 19.8175 53.7656L18.2178 57.1805C33.8073 64.0143 52.1697 57.324 59.2313 42.2374C66.2928 27.1508 59.3795 9.38073 43.7901 2.54696Z" fill="#0097FF"/>
<path d="M39.5524 17C36.2425 17 33.2317 18.3589 31 20.5664C28.7682 18.3583 25.7579 17 22.448 17C15.5841 17 10 22.8318 10 30.0003C10 37.1679 15.5841 43 22.448 43C25.7579 43 28.7681 41.6411 31 39.4333C33.2316 41.6416 36.2425 43 39.5523 43C46.4156 43 52 37.1679 52 30.0003C52 22.8318 46.4157 17 39.5524 17ZM22.448 41.8325C16.2001 41.8325 11.1178 36.5237 11.1178 30.0003C11.1178 23.476 16.2006 18.1675 22.448 18.1675C25.4566 18.1675 28.1881 19.4068 30.2182 21.4119C28.2821 23.7041 27.1036 26.711 27.1036 30.0004C27.1036 33.2906 28.282 36.297 30.2182 38.5897C28.1881 40.5932 25.4566 41.8325 22.448 41.8325ZM28.2215 30.0003C28.2215 27.0412 29.2747 24.3384 31 22.2618C32.7251 24.3384 33.7785 27.0413 33.7785 30.0003C33.7785 32.9588 32.7251 35.6619 31 37.7379C29.2747 35.6619 28.2215 32.9587 28.2215 30.0003ZM39.5524 41.8325C36.5438 41.8325 33.8119 40.5932 31.7819 38.5884C33.718 36.2957 34.8965 33.2894 34.8965 29.9991C34.8965 26.7094 33.718 23.7028 31.7819 21.4106C33.8123 19.4055 36.5437 18.1663 39.5524 18.1663C45.7999 18.1663 50.8822 23.4745 50.8822 29.9991C50.8822 36.5227 45.7999 41.8325 39.5524 41.8325ZM31.7416 24.5277H30.0885V23.9439H31.7416V24.5277ZM30.24 35.4726H31.8933V36.0564H30.24V35.4726ZM32.8834 26.5952H29.2501V26.0114H32.8834V26.5952ZM33.2328 28.4678H28.6106V27.8841H33.2328V28.4678ZM33.3954 29.8056V30.389H28.6044V29.8056H33.3954ZM28.8431 31.7127H33.1552V32.2964H28.8431V31.7127ZM29.2501 33.5755H32.5341V34.1593H29.2501V33.5755Z" fill="#c9c9c9"/>
</g>
<defs>
<clipPath id="clip0">
<rect width="62" height="60" fill="#c9c9c9"/>
</clipPath>
</defs>
</svg>
