<svg width="62" height="60" viewBox="0 0 62 60" fill="none" xmlns="http://www.w3.org/2000/svg">
<g clip-path="url(#clip0)">
<path d="M5.64258 47.095C6.43532 48.1859 7.30311 49.2241 8.23978 50.2025L11.081 47.6572C10.2619 46.8021 9.50279 45.8948 8.80919 44.9414L5.64258 47.095Z" fill="#0097FF"/>
<path d="M3.87436 29.8516C3.89591 16.7234 13.927 5.62513 27.3692 3.85709L26.8618 0.140381C9.90011 2.3477 -2.00093 17.4438 0.280096 33.8582C0.757266 37.2917 1.84548 40.6192 3.49669 43.6932L6.93057 41.9613C4.91005 38.2251 3.86105 34.0685 3.87436 29.8516Z" fill="#E0E0E0"/>
<path d="M11.2344 52.9523C12.2954 53.8018 13.4126 54.5833 14.5792 55.2914L16.6341 52.1051C15.6115 51.4852 14.6326 50.8003 13.7038 50.0547L11.2344 52.9523Z" fill="#0097FF"/>
<path d="M43.7901 2.54696C41.0355 1.33946 38.1132 0.52871 35.116 0.140381L34.6086 3.85709C49.4436 5.83446 59.8133 19.0757 57.77 33.432C55.9258 46.3887 44.5036 56.053 30.9888 56.0916C27.1357 56.1007 23.3257 55.3074 19.8175 53.7656L18.2178 57.1805C33.8073 64.0143 52.1697 57.324 59.2313 42.2374C66.2928 27.1508 59.3795 9.38073 43.7901 2.54696Z" fill="#0097FF"/>
<g clip-path="url(#clip1)">
<path d="M39.2818 17.1693H39.1613V16.7126C39.1613 15.7682 38.3666 15 37.3896 15C36.4126 15 35.618 15.7682 35.618 16.7126V17.1693H26.3827V16.7126C26.3827 15.7682 25.588 15 24.611 15C23.634 15 22.8394 15.7682 22.8394 16.7126V17.1693H22.7189C19.7184 17.1693 17.2773 19.529 17.2773 22.4295V38.7403C17.2773 41.6407 19.7184 44.0005 22.7189 44.0005H39.2818C42.2822 44.0005 44.7233 41.6407 44.7233 38.7403V22.4295C44.7229 19.529 42.2818 17.1693 39.2818 17.1693ZM36.5629 16.7126C36.5629 16.2719 36.9337 15.9134 37.3896 15.9134C37.8455 15.9134 38.2164 16.2719 38.2164 16.7126V18.5394C38.2164 18.9801 37.8455 19.3386 37.3896 19.3386C36.9337 19.3386 36.5629 18.9801 36.5629 18.5394V16.7126ZM23.7843 16.7126C23.7843 16.2719 24.1551 15.9134 24.611 15.9134C25.0669 15.9134 25.4378 16.2719 25.4378 16.7126V18.5394C25.4378 18.9801 25.0669 19.3386 24.611 19.3386C24.1551 19.3386 23.7843 18.9801 23.7843 18.5394V16.7126ZM22.7189 18.0827H22.8394V18.5394C22.8394 19.4838 23.634 20.252 24.611 20.252C25.588 20.252 26.3827 19.4838 26.3827 18.5394V18.0827H35.618V18.5394C35.618 19.4838 36.4126 20.252 37.3896 20.252C38.3666 20.252 39.1613 19.4838 39.1613 18.5394V18.0827H39.2818C41.7611 18.0827 43.7785 20.0328 43.7785 22.4295V23.563H18.2227V22.4295C18.2227 20.0328 20.2395 18.0827 22.7189 18.0827ZM39.2818 43.0866H22.7189C20.2395 43.0866 18.2222 41.1365 18.2222 38.7398V24.4764H43.778V38.7398C43.778 41.1365 41.7611 43.0866 39.2818 43.0866ZM40.8824 29.5379C41.1432 29.5379 41.3548 29.3333 41.3548 29.0812C41.3548 28.8291 41.1432 28.6245 40.8824 28.6245H39.2289V27.2544C39.2289 27.0023 39.0172 26.7977 38.7564 26.7977C38.4956 26.7977 38.284 27.0023 38.284 27.2544V28.6245H35.292V27.2544C35.292 27.0023 35.0803 26.7977 34.8196 26.7977C34.5588 26.7977 34.3471 27.0023 34.3471 27.2544V28.6245H31.3547V27.2544C31.3547 27.0023 31.143 26.7977 30.8822 26.7977C30.6215 26.7977 30.4098 27.0023 30.4098 27.2544V28.6245H27.4178V27.2544C27.4178 27.0023 27.2062 26.7977 26.9454 26.7977C26.6846 26.7977 26.4729 27.0023 26.4729 27.2544V28.6245H23.481V27.2544C23.481 27.0023 23.2693 26.7977 23.0085 26.7977C22.7477 26.7977 22.5361 27.0023 22.5361 27.2544V28.6245H20.8825C20.6217 28.6245 20.4101 28.8291 20.4101 29.0812C20.4101 29.3333 20.6217 29.5379 20.8825 29.5379H22.5361V33.0394H20.8825C20.6217 33.0394 20.4101 33.244 20.4101 33.4961C20.4101 33.7482 20.6217 33.9528 20.8825 33.9528H22.5361V37.4542H20.8825C20.6217 37.4542 20.4101 37.6588 20.4101 37.9109C20.4101 38.163 20.6217 38.3676 20.8825 38.3676H22.5361V39.7377C22.5361 39.9898 22.7477 40.1944 23.0085 40.1944C23.2693 40.1944 23.481 39.9898 23.481 39.7377V38.3676H26.4729V39.7377C26.4729 39.9898 26.6846 40.1944 26.9454 40.1944C27.2062 40.1944 27.4178 39.9898 27.4178 39.7377V38.3676H30.4098V39.7377C30.4098 39.9898 30.6215 40.1944 30.8822 40.1944C31.143 40.1944 31.3547 39.9898 31.3547 39.7377V38.3676H34.3466V39.7377C34.3466 39.9898 34.5583 40.1944 34.8191 40.1944C35.0799 40.1944 35.2915 39.9898 35.2915 39.7377V38.3676H38.2835V39.7377C38.2835 39.9898 38.4952 40.1944 38.7559 40.1944C39.0167 40.1944 39.2284 39.9898 39.2284 39.7377V38.3676H40.8819C41.1427 38.3676 41.3544 38.163 41.3544 37.9109C41.3544 37.6588 41.1427 37.4542 40.8819 37.4542H39.2284V33.9528H40.8819C41.1427 33.9528 41.3544 33.7482 41.3544 33.4961C41.3544 33.244 41.1427 33.0394 40.8819 33.0394H39.2284V29.5379H40.8824ZM34.3466 29.5379V33.0394H31.3547V29.5379H34.3466ZM30.4098 29.5379V33.0394H27.4178V29.5379H30.4098ZM23.4805 29.5379H26.4725V33.0394H23.4805V29.5379ZM23.4805 37.4542V33.9528H26.4725V37.4542H23.4805ZM27.4178 37.4542V33.9528H30.4098V37.4542H27.4178ZM31.3547 37.4542V33.9528H34.3466V37.4542H31.3547ZM38.284 37.4542H35.292V33.9528H38.284V37.4542ZM38.284 33.0394H35.292V29.5379H38.284V33.0394Z" fill="#c9c9c9"/>
</g>
</g>
<defs>
<clipPath id="clip0">
<rect width="62" height="60" fill="#c9c9c9"/>
</clipPath>
<clipPath id="clip1">
<rect width="30" height="29" fill="#c9c9c9" transform="translate(16 15)"/>
</clipPath>
</defs>
</svg>
