<svg width="62" height="60" viewBox="0 0 62 60" fill="none" xmlns="http://www.w3.org/2000/svg">
<g clip-path="url(#clip0)">
<path d="M5.64258 47.095C6.43532 48.1859 7.30311 49.2241 8.23978 50.2025L11.081 47.6572C10.2619 46.8021 9.50279 45.8948 8.80919 44.9414L5.64258 47.095Z" fill="#0097FF"/>
<path d="M3.87436 29.8516C3.89591 16.7234 13.927 5.62513 27.3692 3.85709L26.8618 0.140381C9.90011 2.3477 -2.00093 17.4438 0.280096 33.8582C0.757266 37.2917 1.84548 40.6192 3.49669 43.6932L6.93057 41.9613C4.91005 38.2251 3.86105 34.0685 3.87436 29.8516Z" fill="#E0E0E0"/>
<path d="M11.2344 52.9523C12.2954 53.8018 13.4126 54.5833 14.5792 55.2914L16.6341 52.1051C15.6115 51.4852 14.6326 50.8003 13.7038 50.0547L11.2344 52.9523Z" fill="#0097FF"/>
<path d="M43.7901 2.54696C41.0355 1.33946 38.1132 0.52871 35.116 0.140381L34.6086 3.85709C49.4436 5.83446 59.8133 19.0757 57.77 33.432C55.9258 46.3887 44.5036 56.053 30.9888 56.0916C27.1357 56.1007 23.3257 55.3074 19.8175 53.7656L18.2178 57.1805C33.8073 64.0143 52.1697 57.324 59.2313 42.2374C66.2928 27.1508 59.3795 9.38073 43.7901 2.54696Z" fill="#0097FF"/>
<path d="M42.0833 16H19.9167C18.3067 16.0018 17.0019 17.26 17 18.8125V40.1875C17.0019 41.74 18.3067 42.9982 19.9167 43H42.0833C43.6933 42.9982 44.998 41.74 44.9999 40.1875V18.8125C44.9981 17.26 43.6933 16.0018 42.0833 16ZM43.8333 40.1875C43.8333 41.1195 43.0498 41.875 42.0833 41.875H19.9167C18.9502 41.875 18.1667 41.1195 18.1667 40.1875V18.8125C18.1667 17.8805 18.9502 17.125 19.9167 17.125H42.0833C43.0498 17.125 43.8333 17.8805 43.8333 18.8125V40.1875Z" fill="#c9c9c9"/>
<path d="M42.6673 20.5H19.334V21.625H42.6673V20.5Z" fill="#c9c9c9"/>
<path d="M21.0827 18.25H19.916V19.375H21.0827V18.25Z" fill="#c9c9c9"/>
<path d="M23.4166 18.25H22.25V19.375H23.4166V18.25Z" fill="#c9c9c9"/>
<path d="M42.0827 18.25H40.916V19.375H42.0827V18.25Z" fill="#c9c9c9"/>
<path d="M30.9994 24.4375C26.8112 24.4375 23.416 27.7114 23.416 31.75C23.416 35.7886 26.8112 39.0625 30.9994 39.0625C35.1855 39.0578 38.5778 35.7866 38.5827 31.75C38.5827 27.7114 35.1875 24.4375 30.9994 24.4375ZM30.9994 37.9375C27.4556 37.9375 24.5827 35.1673 24.5827 31.75C24.5827 28.3328 27.4556 25.5625 30.9994 25.5625C34.5415 25.5665 37.4118 28.3344 37.416 31.75C37.416 35.1673 34.5432 37.9375 30.9994 37.9375Z" fill="#c9c9c9"/>
<path d="M34.5006 30.0625H32.7506V28.375C32.7506 27.7537 32.2283 27.25 31.5839 27.25H30.4173C29.773 27.25 29.2506 27.7537 29.2506 28.375V30.0625H27.5006C26.8563 30.0625 26.334 30.5662 26.334 31.1875V32.3125C26.334 32.9338 26.8563 33.4374 27.5006 33.4374H29.2506V35.1249C29.2506 35.7463 29.773 36.2499 30.4173 36.2499H31.5839C32.2283 36.2499 32.7506 35.7463 32.7506 35.1249V33.4374H34.5006C35.1449 33.4374 35.6672 32.9338 35.6672 32.3125V31.1875C35.6672 30.5662 35.1449 30.0625 34.5006 30.0625ZM34.5006 32.3125H32.1672C31.8451 32.3125 31.5839 32.5643 31.5839 32.875V35.125H30.4172V32.875C30.4172 32.5643 30.1561 32.3125 29.8339 32.3125H27.5006V31.1875H29.8339C30.1561 31.1875 30.4173 30.9356 30.4173 30.625V28.3749H31.5839V30.625C31.5839 30.9356 31.8451 31.1875 32.1673 31.1875H34.5006V32.3125Z" fill="#c9c9c9"/>
<path d="M19.9173 22.75C19.5952 22.75 19.334 23.0019 19.334 23.3125V25.5625H20.5007V23.875H22.2507V22.75H19.9173Z" fill="#c9c9c9"/>
<path d="M41.5 37.9375V39.625H39.75V40.75H42.0834C42.4055 40.75 42.6667 40.4981 42.6667 40.1875V37.9375H41.5Z" fill="#c9c9c9"/>
</g>
<defs>
<clipPath id="clip0">
<rect width="62" height="60" fill="#c9c9c9"/>
</clipPath>
</defs>
</svg>
