<svg width="24" height="25" viewBox="0 0 24 25" fill="none" xmlns="http://www.w3.org/2000/svg">
<path d="M17.625 4.44336H6.375C5.21191 4.44336 4.26562 5.42908 4.26562 6.64062V18.3594C4.26562 19.5709 5.21191 20.5566 6.375 20.5566H17.625C18.7881 20.5566 19.7344 19.5709 19.7344 18.3594V6.64062C19.7344 5.42908 18.7881 4.44336 17.625 4.44336ZM12 17.627C9.28638 17.627 7.07812 15.3267 7.07812 12.5C7.07812 9.67331 9.28638 7.37305 12 7.37305C14.7136 7.37305 16.9219 9.67331 16.9219 12.5C16.9219 15.3267 14.7136 17.627 12 17.627ZM16.9219 8.83789C16.1466 8.83789 15.5156 8.18062 15.5156 7.37305C15.5156 6.56548 16.1466 5.9082 16.9219 5.9082C17.6971 5.9082 18.3281 6.56548 18.3281 7.37305C18.3281 8.18062 17.6971 8.83789 16.9219 8.83789Z" fill="white"/>
<path d="M12 8.83789C10.0616 8.83789 8.48438 10.4809 8.48438 12.5C8.48438 14.5191 10.0616 16.1621 12 16.1621C13.9384 16.1621 15.5156 14.5191 15.5156 12.5C15.5156 10.4809 13.9384 8.83789 12 8.83789Z" fill="white"/>
<path d="M20.4375 0H3.5625C1.62415 0 0 1.69182 0 3.71094V21.2891C0 23.3082 1.62415 25 3.5625 25H20.4375C22.3759 25 24 23.3082 24 21.2891V3.71094C24 1.69182 22.3759 0 20.4375 0ZM21.1406 18.3594C21.1406 20.3785 19.5634 22.0215 17.625 22.0215H6.375C4.43665 22.0215 2.85938 20.3785 2.85938 18.3594V6.64062C2.85938 4.62151 4.43665 2.97852 6.375 2.97852H17.625C19.5634 2.97852 21.1406 4.62151 21.1406 6.64062V18.3594Z" fill="white"/>
</svg>
