<svg width="24" height="25" viewBox="0 0 24 25" fill="none" xmlns="http://www.w3.org/2000/svg">
<g clip-path="url(#clip0)">
<path d="M23.04 1C22.1602 0.083257 20.7405 0 19.5011 0H4.50095C3.26148 0 1.84028 0.083257 0.960039 1C0.0799653 1.91691 0.000976562 3.3963 0.000976562 4.68747V20.3124C0.000976562 21.6035 0.0799653 23.0831 0.960039 24C1.84028 24.9169 3.26148 25 4.50095 25H19.5009C20.7404 25 22.1602 24.9169 23.04 24C23.9203 23.0831 24.0007 21.6035 24.0007 20.3124V4.68747C24.0006 3.3963 23.9201 1.91674 23.04 1ZM14.173 3.61304H15.2199V8.03993C15.2199 8.30046 15.2248 8.44155 15.2352 8.46327C15.2457 8.63692 15.3293 8.72362 15.4854 8.72362C15.6937 8.72362 15.9127 8.55557 16.1417 8.21922V3.61304H17.1886V9.63518H16.1417L16.1413 8.98387C15.7142 9.47202 15.3133 9.71642 14.9384 9.71642C14.6052 9.71642 14.3812 9.57002 14.2664 9.277C14.2038 9.0818 14.173 8.78331 14.173 8.38175V3.61304ZM10.2198 5.56625C10.2198 4.93699 10.3292 4.46485 10.548 4.15029C10.8292 3.738 11.2353 3.53175 11.7665 3.53175C12.2771 3.53175 12.6834 3.73818 12.9852 4.15029C13.2041 4.46491 13.3135 4.93699 13.3135 5.56625V7.68221C13.3135 8.33329 13.2041 8.80532 12.9852 9.09822C12.6834 9.51073 12.2771 9.71687 11.7665 9.71687C11.2353 9.71687 10.8292 9.51056 10.548 9.09822C10.3292 8.78354 10.2198 8.31152 10.2198 7.68221V5.56625ZM7.40715 1.546L8.23534 4.72002L9.03217 1.546H10.2041L8.79777 6.36373L8.79799 9.63518H7.64176V6.36373C7.52706 5.76697 7.28751 4.90974 6.92297 3.79222C6.68343 3.04348 6.56358 2.66911 6.56358 2.66911L6.18842 1.546H7.40715ZM20.2825 21.1915C20.1783 21.6578 19.9569 22.0538 19.6181 22.3796C19.2799 22.705 18.8868 22.895 18.4387 22.9495C17.0118 23.112 14.8657 23.1935 12.0013 23.1935C9.13659 23.1935 6.99078 23.1119 5.56376 22.9495C5.11592 22.895 4.72276 22.705 4.38411 22.3796C4.04556 22.0538 3.8243 21.6578 3.7201 21.1915C3.51186 20.2799 3.40771 18.8691 3.40771 16.9596C3.40771 15.0821 3.51186 13.672 3.7201 12.7277C3.82435 12.2503 4.04562 11.8515 4.38411 11.5313C4.72276 11.211 5.12107 11.0238 5.57947 10.9697C6.99592 10.8067 9.13659 10.7255 12.0013 10.7255C14.8764 10.7255 17.0223 10.8069 18.4387 10.9697C18.8868 11.024 19.2821 11.211 19.6259 11.5313C19.9698 11.8513 20.194 12.2501 20.2981 12.7277C20.4957 13.6283 20.5948 15.0388 20.5948 16.9596C20.5948 18.8691 20.4906 20.2796 20.2825 21.1915Z" fill="white"/>
<path d="M4.6875 13.9484H5.90628V20.8331H7.06251V13.9484H8.31254V12.8091H4.6875V13.9484Z" fill="white"/>
<path d="M10.4063 19.4173C10.1772 19.7534 9.95832 19.9216 9.75009 19.9216C9.60424 19.9216 9.52609 19.8403 9.51569 19.6776C9.50524 19.6559 9.49998 19.5149 9.49998 19.2542V14.8596H8.46875V19.5796C8.46875 19.992 8.50005 20.2851 8.56261 20.4583C8.6563 20.7623 8.87516 20.914 9.21885 20.914C9.60424 20.914 10.0001 20.67 10.4063 20.1816V20.8329H11.453V14.86H10.4063V19.4173Z" fill="white"/>
<path d="M14.453 14.7783C14.078 14.7783 13.7237 14.9953 13.3907 15.4295V12.8091H12.3438V20.8331H13.3907V20.2471C13.7342 20.6919 14.0887 20.9143 14.453 20.9143C14.8802 20.9143 15.1561 20.6864 15.2808 20.2307C15.3538 20.0029 15.3902 19.6068 15.3902 19.0426V16.6664C15.3902 16.0913 15.3534 15.6897 15.2808 15.4619C15.156 15.0062 14.8802 14.7783 14.453 14.7783ZM14.3591 19.1242C14.3591 19.6558 14.2082 19.9213 13.9059 19.9217C13.7292 19.9217 13.557 19.8347 13.3903 19.6611V16.0152C13.557 15.842 13.7291 15.755 13.9059 15.755C14.2082 15.755 14.3591 16.026 14.3591 16.5686V19.1242Z" fill="white"/>
<path d="M18.2498 19.116C18.2498 19.2299 18.2471 19.3192 18.2423 19.3844C18.2372 19.4496 18.2344 19.4876 18.2344 19.4983C18.172 19.7802 18.0156 19.9213 17.7657 19.9213C17.4115 19.9213 17.2343 19.6446 17.2343 19.0914V18.0336H19.3125V16.7963C19.3125 16.1671 19.2033 15.7007 18.9844 15.3967C18.7034 14.9845 18.297 14.7781 17.7657 14.7781C17.2343 14.7781 16.8178 14.9844 16.5155 15.3967C16.3072 15.6897 16.2031 16.1566 16.2031 16.7963V18.896C16.2031 19.5363 16.3125 20.003 16.5312 20.296C16.8335 20.7083 17.2553 20.9147 17.7971 20.9147C18.3492 20.9147 18.7657 20.6977 19.0473 20.2635C19.1722 20.068 19.2506 19.8511 19.2817 19.6125C19.3023 19.4605 19.3128 19.2271 19.3128 18.9125V18.7664V18.766H18.2502V19.116H18.2498V19.116ZM17.2347 16.5849C17.2347 16.0316 17.4066 15.755 17.7503 15.755C18.0942 15.755 18.2659 16.0316 18.2659 16.5849V17.1385H17.2347V16.5849Z" fill="white"/>
<path d="M11.7656 8.7235C12.0989 8.7235 12.2655 8.44696 12.2655 7.89358V5.35445C12.2655 4.79036 12.0989 4.50806 11.7656 4.50806C11.4323 4.50806 11.2656 4.79036 11.2656 5.35445V7.89358C11.2656 8.44679 11.4323 8.7235 11.7656 8.7235Z" fill="white"/>
</g>
<defs>
<clipPath id="clip0">
<rect width="24" height="25" fill="white"/>
</clipPath>
</defs>
</svg>
