<svg width="671" height="369" viewBox="0 0 671 369" fill="none" xmlns="http://www.w3.org/2000/svg">
<path d="M503 195.224H0V196.299H503V195.224Z" fill="#3F3D56"/>
<path d="M363.724 271.083H28.3762C25.394 271.083 22.534 270 20.4252 268.072C18.3165 266.144 17.1318 263.529 17.1318 260.803C138.695 247.887 257.974 247.887 374.969 260.803C374.969 262.153 374.678 263.49 374.113 264.737C373.548 265.984 372.719 267.117 371.675 268.072C370.631 269.026 369.392 269.783 368.027 270.3C366.663 270.817 365.201 271.083 363.724 271.083Z" fill="#2F2E41"/>
<path d="M374.969 261.408L17.1318 260.803L58.6039 197.008L58.8023 196.706V56.1097C58.8021 54.4032 59.1697 52.7133 59.884 51.1367C60.5983 49.56 61.6453 48.1274 62.9652 46.9207C64.2852 45.714 65.8522 44.7569 67.5768 44.1039C69.3014 43.4509 71.1499 43.1148 73.0166 43.115H317.1C318.966 43.1148 320.815 43.4509 322.539 44.1039C324.264 44.7569 325.831 45.714 327.151 46.9207C328.471 48.1274 329.518 49.56 330.232 51.1367C330.946 52.7133 331.314 54.4032 331.314 56.1097V197.673L374.969 261.408Z" fill="#3F3D56"/>
<path d="M72.6926 52.1854C71.465 52.1867 70.2882 52.633 69.4201 53.4266C68.5521 54.2201 68.0639 55.296 68.0625 56.4182V184.612C68.0639 185.734 68.5522 186.81 69.4202 187.604C70.2882 188.397 71.465 188.844 72.6926 188.845H319.408C320.636 188.844 321.812 188.397 322.68 187.604C323.548 186.81 324.037 185.734 324.038 184.612V56.4182C324.037 55.296 323.549 54.2201 322.681 53.4266C321.813 52.6331 320.636 52.1867 319.408 52.1854H72.6926Z" fill="white"/>
<path d="M73.7267 205.776C73.3474 205.777 72.9761 205.877 72.6567 206.064C72.3373 206.251 72.083 206.517 71.9239 206.832L59.1451 232.229C59.006 232.505 58.9451 232.809 58.9681 233.113C58.9912 233.416 59.0973 233.71 59.2768 233.966C59.4563 234.222 59.7034 234.433 59.9954 234.579C60.2873 234.725 60.6148 234.801 60.9476 234.801H329.68C330.018 234.801 330.35 234.722 330.646 234.572C330.941 234.421 331.19 234.204 331.367 233.941C331.545 233.678 331.646 233.378 331.662 233.069C331.677 232.76 331.605 232.452 331.454 232.176L317.564 206.779C317.4 206.477 317.147 206.223 316.833 206.046C316.52 205.869 316.158 205.775 315.789 205.776H73.7267Z" fill="#2F2E41"/>
<path d="M195.058 50.0689C196.702 50.0689 198.035 48.8506 198.035 47.3478C198.035 45.845 196.702 44.6267 195.058 44.6267C193.415 44.6267 192.082 45.845 192.082 47.3478C192.082 48.8506 193.415 50.0689 195.058 50.0689Z" fill="white"/>
<path d="M168.644 239.639C168.208 239.639 167.784 239.771 167.438 240.014C167.092 240.256 166.842 240.596 166.728 240.981L163.523 251.865C163.444 252.134 163.433 252.416 163.492 252.689C163.551 252.963 163.679 253.22 163.864 253.441C164.049 253.662 164.287 253.841 164.561 253.964C164.834 254.087 165.134 254.151 165.439 254.151H226.399C226.715 254.151 227.027 254.082 227.308 253.95C227.589 253.817 227.832 253.625 228.015 253.389C228.199 253.154 228.318 252.882 228.363 252.595C228.408 252.309 228.377 252.017 228.274 251.744L224.153 240.859C224.017 240.503 223.764 240.194 223.428 239.975C223.092 239.757 222.69 239.639 222.277 239.639H168.644Z" fill="#2F2E41"/>
<path d="M331.314 194.589V197.008H58.604L58.8091 196.706V194.589H331.314Z" fill="#2F2E41"/>
<path d="M103.001 78.8025C102.035 78.8161 101.115 79.1792 100.442 79.8122C99.769 80.4452 99.398 81.2964 99.4105 82.1791V158.714C99.398 159.597 99.769 160.448 100.442 161.081C101.115 161.714 102.035 162.077 103.001 162.091H289.1C290.065 162.077 290.986 161.714 291.659 161.081C292.332 160.448 292.703 159.597 292.69 158.714V82.1791C292.703 81.2964 292.332 80.4452 291.659 79.8122C290.986 79.1792 290.065 78.8161 289.1 78.8025H103.001Z" fill="#E6E6E6"/>
<path d="M107.468 106.508C107.309 106.508 107.157 106.45 107.044 106.348C106.932 106.245 106.869 106.106 106.869 105.961V69.3085C106.869 69.1634 106.932 69.0243 107.044 68.9217C107.157 68.8191 107.309 68.7615 107.468 68.7615H153.544C153.622 68.7613 153.7 68.7752 153.773 68.8026C153.846 68.83 153.912 68.8703 153.968 68.9211C154.024 68.9719 154.068 69.0323 154.098 69.0988C154.128 69.1653 154.144 69.2365 154.144 69.3085C154.144 69.3805 154.128 69.4518 154.098 69.5183C154.068 69.5848 154.024 69.6451 153.968 69.696C153.912 69.7468 153.846 69.787 153.773 69.8144C153.7 69.8418 153.622 69.8558 153.544 69.8556H108.066V105.961C108.066 106.106 108.003 106.245 107.891 106.348C107.778 106.45 107.626 106.508 107.468 106.508Z" fill="#3F3D56"/>
<path d="M284.59 107.055C284.512 107.055 284.434 107.041 284.361 107.014C284.289 106.986 284.223 106.946 284.167 106.895C284.112 106.844 284.068 106.784 284.038 106.717C284.007 106.651 283.992 106.58 283.992 106.508V70.4027H238.514C238.356 70.4027 238.204 70.3451 238.091 70.2425C237.979 70.1399 237.916 70.0007 237.916 69.8556C237.916 69.7105 237.979 69.5714 238.091 69.4688C238.204 69.3662 238.356 69.3086 238.514 69.3086H284.59C284.669 69.3086 284.747 69.3227 284.819 69.3502C284.892 69.3777 284.958 69.418 285.014 69.4688C285.069 69.5196 285.113 69.5799 285.143 69.6463C285.173 69.7126 285.189 69.7838 285.189 69.8556V106.508C285.189 106.58 285.173 106.651 285.143 106.717C285.113 106.784 285.069 106.844 285.014 106.895C284.958 106.946 284.892 106.986 284.819 107.014C284.747 107.041 284.669 107.055 284.59 107.055Z" fill="#3F3D56"/>
<path d="M153.544 171.607H107.468C107.389 171.607 107.311 171.593 107.239 171.565C107.166 171.538 107.1 171.498 107.044 171.447C106.989 171.396 106.945 171.336 106.915 171.269C106.885 171.203 106.869 171.132 106.869 171.06V134.408C106.869 134.336 106.884 134.264 106.914 134.198C106.944 134.131 106.988 134.071 107.044 134.02C107.099 133.969 107.165 133.928 107.238 133.901C107.311 133.873 107.389 133.859 107.468 133.859C107.546 133.859 107.624 133.873 107.697 133.901C107.77 133.928 107.836 133.969 107.891 134.02C107.947 134.071 107.991 134.131 108.021 134.198C108.051 134.264 108.066 134.336 108.066 134.408V170.513H153.544C153.622 170.513 153.7 170.527 153.773 170.554C153.846 170.582 153.912 170.622 153.968 170.673C154.024 170.723 154.068 170.784 154.098 170.85C154.128 170.917 154.144 170.988 154.144 171.06C154.144 171.132 154.128 171.203 154.098 171.27C154.068 171.336 154.024 171.397 153.968 171.447C153.912 171.498 153.846 171.539 153.773 171.566C153.7 171.593 153.622 171.607 153.544 171.607Z" fill="#3F3D56"/>
<path d="M284.59 172.154H238.514C238.356 172.154 238.204 172.096 238.091 171.994C237.979 171.891 237.916 171.752 237.916 171.607C237.916 171.462 237.979 171.323 238.091 171.22C238.204 171.118 238.356 171.06 238.514 171.06H283.992V134.955C283.992 134.81 284.055 134.67 284.167 134.568C284.28 134.465 284.432 134.408 284.59 134.408C284.749 134.408 284.901 134.465 285.014 134.568C285.126 134.67 285.189 134.81 285.189 134.955V171.607C285.189 171.679 285.173 171.75 285.143 171.816C285.113 171.883 285.069 171.943 285.014 171.994C284.958 172.045 284.892 172.085 284.819 172.113C284.747 172.14 284.669 172.154 284.59 172.154Z" fill="#3F3D56"/>
<path d="M555.581 85.6411H553.419V31.3958C553.419 23.0691 549.808 15.0835 543.38 9.19562C536.951 3.30776 528.233 0 519.142 0H393.666C384.574 0 375.856 3.30776 369.427 9.19562C362.999 15.0835 359.388 23.0691 359.388 31.3958V328.99C359.388 337.317 362.999 345.302 369.427 351.19C375.856 357.078 384.574 360.386 393.666 360.386H519.142C528.233 360.386 536.951 357.078 543.38 351.19C549.808 345.302 553.419 337.317 553.419 328.99V124.254H555.581V85.6411Z" fill="#3F3D56"/>
<path d="M520.525 8.16797H504.145C504.898 9.85935 505.186 11.6944 504.982 13.5115C504.779 15.3286 504.09 17.0719 502.978 18.588C501.866 20.1041 500.363 21.3463 498.603 22.2053C496.843 23.0643 494.88 23.5138 492.885 23.514H421.002C419.007 23.5137 417.044 23.0643 415.284 22.2052C413.524 21.3462 412.022 20.1039 410.909 18.5878C409.797 17.0717 409.109 15.3284 408.906 13.5113C408.702 11.6943 408.99 9.85926 409.743 8.16797H394.446C387.656 8.16797 381.145 10.6382 376.345 15.0352C371.544 19.4322 368.847 25.3958 368.847 31.614V328.773C368.847 334.991 371.545 340.954 376.345 345.351C381.146 349.748 387.657 352.218 394.446 352.218H520.525C523.886 352.218 527.215 351.612 530.321 350.434C533.427 349.255 536.249 347.529 538.626 345.352C541.003 343.175 542.889 340.59 544.176 337.745C545.462 334.901 546.125 331.852 546.125 328.773V328.773V31.614C546.125 25.3958 543.428 19.4322 538.627 15.0352C533.827 10.6382 527.316 8.16797 520.526 8.16797H520.525Z" fill="white"/>
<path d="M533.92 227.854H380.986C380.235 227.853 379.515 227.58 378.984 227.093C378.453 226.607 378.155 225.948 378.154 225.26V160.942C378.155 160.254 378.453 159.595 378.984 159.108C379.515 158.622 380.235 158.348 380.986 158.348H533.92C534.671 158.348 535.391 158.622 535.922 159.108C536.453 159.595 536.752 160.254 536.753 160.942V225.26C536.752 225.948 536.453 226.607 535.922 227.094C535.391 227.58 534.671 227.853 533.92 227.854ZM380.986 159.386C380.536 159.386 380.104 159.55 379.785 159.842C379.467 160.134 379.287 160.529 379.287 160.942V225.26C379.287 225.673 379.467 226.069 379.785 226.36C380.104 226.652 380.536 226.816 380.986 226.817H533.92C534.371 226.816 534.803 226.652 535.121 226.36C535.44 226.069 535.619 225.673 535.62 225.26V160.942C535.619 160.529 535.44 160.134 535.121 159.842C534.803 159.55 534.371 159.386 533.92 159.386H380.986Z" fill="#E6E6E6"/>
<path d="M532.786 144.328H464.817C464.066 144.327 463.346 144.054 462.815 143.567C462.284 143.081 461.986 142.422 461.985 141.734V106.987C461.986 106.299 462.284 105.639 462.815 105.153C463.346 104.667 464.066 104.393 464.817 104.392H532.786C533.537 104.393 534.257 104.667 534.788 105.153C535.319 105.639 535.617 106.299 535.618 106.987V141.733C535.618 142.421 535.319 143.081 534.788 143.567C534.257 144.054 533.537 144.327 532.786 144.328ZM464.815 105.431C464.364 105.431 463.932 105.595 463.614 105.887C463.295 106.179 463.116 106.574 463.116 106.987V141.734C463.116 142.146 463.295 142.542 463.614 142.834C463.932 143.126 464.364 143.29 464.815 143.29H532.786C533.236 143.29 533.668 143.126 533.987 142.834C534.305 142.542 534.485 142.146 534.485 141.734V106.987C534.485 106.574 534.305 106.178 533.987 105.887C533.668 105.595 533.236 105.431 532.786 105.43L464.815 105.431Z" fill="#E6E6E6"/>
<path d="M448.957 311.899H380.986C380.235 311.898 379.515 311.625 378.984 311.138C378.453 310.652 378.155 309.992 378.154 309.305V244.468C378.155 243.78 378.453 243.121 378.984 242.635C379.515 242.148 380.235 241.875 380.986 241.874H448.957C449.708 241.875 450.428 242.148 450.959 242.635C451.49 243.121 451.789 243.78 451.789 244.468V309.305C451.789 309.993 451.49 310.652 450.959 311.139C450.428 311.625 449.708 311.899 448.957 311.899V311.899ZM380.986 242.912C380.536 242.912 380.104 243.076 379.785 243.368C379.467 243.66 379.287 244.055 379.287 244.468V309.305C379.287 309.718 379.467 310.113 379.785 310.405C380.104 310.697 380.536 310.861 380.986 310.861H448.957C449.408 310.861 449.84 310.697 450.158 310.405C450.477 310.113 450.656 309.718 450.656 309.305V244.468C450.656 244.055 450.477 243.66 450.158 243.368C449.84 243.076 449.408 242.912 448.957 242.912H380.986Z" fill="#E6E6E6"/>
<path d="M532.786 311.899H464.817C464.066 311.898 463.346 311.625 462.815 311.138C462.284 310.652 461.986 309.992 461.985 309.305V244.468C461.986 243.78 462.285 243.121 462.816 242.635C463.346 242.148 464.066 241.875 464.817 241.874H532.786C533.537 241.875 534.257 242.149 534.788 242.635C535.319 243.121 535.617 243.781 535.618 244.468V309.305C535.617 309.993 535.319 310.652 534.788 311.139C534.257 311.625 533.537 311.899 532.786 311.899V311.899ZM464.817 242.912C464.367 242.912 463.935 243.076 463.616 243.368C463.298 243.66 463.119 244.055 463.118 244.468V309.305C463.119 309.718 463.298 310.113 463.616 310.405C463.935 310.697 464.367 310.861 464.817 310.861H532.786C533.236 310.861 533.668 310.697 533.987 310.405C534.305 310.113 534.485 309.718 534.485 309.305V244.468C534.485 244.055 534.305 243.66 533.987 243.368C533.668 243.076 533.236 242.912 532.786 242.912H464.817Z" fill="#E6E6E6"/>
<path d="M448.957 144.328H380.986C380.235 144.327 379.515 144.054 378.984 143.567C378.453 143.081 378.155 142.422 378.154 141.734V106.987C378.155 106.299 378.453 105.639 378.984 105.153C379.515 104.667 380.235 104.393 380.986 104.392H448.957C449.708 104.393 450.428 104.667 450.959 105.153C451.49 105.639 451.789 106.299 451.789 106.987V141.733C451.789 142.421 451.49 143.08 450.959 143.567C450.428 144.053 449.708 144.327 448.957 144.327V144.328ZM380.986 105.431C380.536 105.431 380.104 105.595 379.785 105.887C379.467 106.179 379.287 106.574 379.287 106.987V141.734C379.287 142.146 379.467 142.542 379.785 142.834C380.104 143.126 380.536 143.29 380.986 143.29H448.957C449.408 143.29 449.84 143.126 450.158 142.834C450.477 142.542 450.656 142.146 450.656 141.734V106.987C450.656 106.574 450.477 106.178 450.158 105.887C449.84 105.595 449.408 105.431 448.957 105.43L380.986 105.431Z" fill="#E6E6E6"/>
<path d="M395.47 255.245C394.96 255.245 394.471 255.431 394.111 255.761C393.75 256.091 393.547 256.539 393.547 257.006C393.547 257.473 393.75 257.921 394.111 258.252C394.471 258.582 394.96 258.768 395.47 258.768H434.474C434.984 258.768 435.473 258.582 435.834 258.252C436.194 257.921 436.397 257.473 436.397 257.006C436.397 256.539 436.194 256.091 435.834 255.761C435.473 255.431 434.984 255.245 434.474 255.245H395.47Z" fill="#E6E6E6"/>
<path d="M395.47 265.621C394.96 265.621 394.471 265.807 394.111 266.137C393.75 266.467 393.547 266.915 393.547 267.382C393.547 267.849 393.75 268.297 394.111 268.628C394.471 268.958 394.96 269.143 395.47 269.143H434.474C434.984 269.143 435.473 268.958 435.834 268.628C436.194 268.297 436.397 267.849 436.397 267.382C436.397 266.915 436.194 266.467 435.834 266.137C435.473 265.807 434.984 265.621 434.474 265.621H395.47Z" fill="#E6E6E6"/>
<path d="M414.972 298.528C412.579 298.528 410.239 297.878 408.248 296.66C406.258 295.442 404.707 293.711 403.791 291.685C402.875 289.66 402.635 287.431 403.102 285.281C403.569 283.13 404.722 281.155 406.414 279.605C408.107 278.055 410.263 276.999 412.611 276.571C414.958 276.143 417.392 276.363 419.603 277.202C421.815 278.04 423.705 279.461 425.035 281.284C426.365 283.107 427.075 285.25 427.075 287.442C427.071 290.381 425.795 293.199 423.526 295.277C421.257 297.355 418.181 298.524 414.972 298.528ZM414.972 277.395C412.803 277.395 410.682 277.984 408.878 279.088C407.074 280.192 405.668 281.761 404.837 283.597C404.007 285.433 403.79 287.454 404.213 289.403C404.636 291.352 405.681 293.142 407.215 294.547C408.749 295.952 410.704 296.909 412.832 297.297C414.96 297.685 417.166 297.486 419.17 296.725C421.175 295.965 422.888 294.677 424.093 293.025C425.299 291.372 425.942 289.43 425.942 287.442C425.938 284.779 424.781 282.225 422.725 280.342C420.668 278.458 417.88 277.399 414.972 277.396V277.395Z" fill="#E6E6E6"/>
<path d="M518.307 298.529C518.559 298.529 518.809 298.483 519.042 298.395C519.276 298.306 519.488 298.177 519.666 298.013C519.845 297.85 519.986 297.656 520.083 297.442C520.18 297.228 520.229 296.999 520.229 296.768C520.229 296.537 520.18 296.308 520.083 296.094C519.986 295.88 519.845 295.686 519.666 295.523C519.488 295.359 519.276 295.229 519.042 295.141C518.809 295.052 518.559 295.007 518.307 295.007H479.298C478.788 295.007 478.299 295.192 477.939 295.523C477.578 295.853 477.375 296.301 477.375 296.768C477.375 297.235 477.578 297.683 477.939 298.013C478.299 298.343 478.788 298.529 479.298 298.529H518.307Z" fill="#E6E6E6"/>
<path d="M518.307 288.152C518.559 288.152 518.809 288.107 519.042 288.018C519.276 287.93 519.488 287.8 519.666 287.636C519.845 287.473 519.986 287.279 520.083 287.065C520.18 286.851 520.229 286.622 520.229 286.391C520.229 286.16 520.18 285.931 520.083 285.717C519.986 285.503 519.845 285.309 519.666 285.146C519.488 284.982 519.276 284.852 519.042 284.764C518.809 284.675 518.559 284.63 518.307 284.63H479.298C478.788 284.63 478.299 284.815 477.939 285.146C477.578 285.476 477.375 285.924 477.375 286.391C477.375 286.858 477.578 287.306 477.939 287.636C478.299 287.967 478.788 288.152 479.298 288.152H518.307Z" fill="#E6E6E6"/>
<path d="M498.803 255.245C501.196 255.245 503.536 255.895 505.527 257.113C507.517 258.332 509.068 260.063 509.984 262.088C510.9 264.114 511.14 266.343 510.673 268.493C510.206 270.643 509.053 272.618 507.361 274.169C505.668 275.719 503.512 276.775 501.164 277.202C498.816 277.63 496.383 277.41 494.171 276.571C491.96 275.733 490.07 274.312 488.74 272.489C487.41 270.666 486.7 268.523 486.7 266.33C486.704 263.391 487.98 260.574 490.249 258.496C492.518 256.418 495.594 255.249 498.803 255.245ZM498.803 276.378C500.972 276.378 503.093 275.788 504.897 274.684C506.701 273.58 508.106 272.01 508.936 270.174C509.766 268.338 509.983 266.318 509.56 264.369C509.137 262.42 508.092 260.63 506.557 259.225C505.023 257.82 503.068 256.863 500.941 256.476C498.813 256.088 496.607 256.287 494.603 257.048C492.598 257.808 490.885 259.096 489.68 260.748C488.474 262.401 487.831 264.343 487.831 266.33C487.834 268.994 488.991 271.548 491.048 273.432C493.104 275.315 495.893 276.375 498.801 276.378H498.803Z" fill="#E6E6E6"/>
<path d="M533.92 90.3732H380.986C379.423 90.3732 378.156 89.7055 378.154 88.8826V51.9287C378.154 51.1058 379.422 50.4392 380.986 50.4381H533.92C535.484 50.4381 536.75 51.1058 536.753 51.9287V88.8831C536.751 89.7055 535.484 90.3721 533.92 90.3732ZM380.986 51.0341C380.048 51.0341 379.288 51.4345 379.287 51.9281V88.8826C379.287 89.3762 380.048 89.7761 380.986 89.7766H533.92C534.858 89.7766 535.618 89.3762 535.62 88.8826V51.9287C535.62 51.4351 534.858 51.0352 533.92 51.0347L380.986 51.0341Z" fill="#E6E6E6"/>
<g clip-path="url(#clip0)">
<path d="M298.955 202.226H234.208V268.42H298.955V202.226Z" fill="#CCCCCC"/>
<path d="M201.246 367.979H168.284L164.752 342.147H204.777L201.246 367.979Z" fill="#E6E6E6"/>
<path d="M267.435 349.269L266.322 363.172C266.272 363.801 266.37 364.433 266.608 365.025C266.847 365.617 267.221 366.156 267.706 366.605C268.191 367.054 268.775 367.403 269.42 367.628C270.065 367.854 270.754 367.951 271.443 367.913L279.254 367.48C279.616 367.46 279.969 367.367 280.287 367.209C280.605 367.05 280.881 366.829 281.096 366.562C281.31 366.294 281.457 365.987 281.527 365.662C281.597 365.336 281.588 365.001 281.5 364.679L277.164 348.824L267.435 349.269Z" fill="#E6E6E6"/>
<path d="M332.768 357.49C341.961 359.456 348.528 362.251 352.842 366.033C354.378 367.37 356.388 368.157 358.506 368.253C361.212 368.383 363.424 368.106 365.086 367.427H365.087C365.513 367.255 365.88 366.983 366.152 366.637C366.424 366.292 366.589 365.886 366.632 365.462C366.682 365.032 366.606 364.597 366.41 364.203C366.215 363.808 365.907 363.469 365.52 363.22L343.718 349.037L334.458 352.424L332.297 354.399C332.063 354.613 331.887 354.874 331.782 355.16C331.677 355.447 331.646 355.752 331.691 356.052C331.737 356.351 331.858 356.637 332.045 356.887C332.232 357.136 332.479 357.343 332.768 357.49H332.768Z" fill="#E6E6E6"/>
<path d="M304.478 130.487L242.16 129.959C242.317 121.661 244.429 113.511 249.045 106.219C252.077 101.43 252.011 96.2176 251.281 91.8264C250.153 85.0499 252.775 78.1166 258.601 73.8029C263.054 70.5005 268.673 68.8006 274.401 69.0233L275.611 69.0694C279.553 69.2192 283.39 70.2719 286.771 72.1309C290.151 73.9898 292.967 76.5955 294.959 79.7087C296.984 83.0321 297.8 86.8581 297.291 90.6337C296.896 94.1862 297.841 97.775 300.052 101.398C303.866 109.353 304.692 119.533 304.478 130.487Z" fill="#2F2E41"/>
<path d="M346.172 349.777L333.941 352.694L274.384 234.064L278.106 349.777H265.875C252.806 295.337 229.211 232.508 239.819 212.672L303.099 209.269L346.172 349.777Z" fill="#A6468B"/>
<path d="M273.852 110.573C282.956 110.573 290.337 103.825 290.337 95.5016C290.337 87.1777 282.956 80.4298 273.852 80.4298C264.748 80.4298 257.367 87.1777 257.367 95.5016C257.367 103.825 264.748 110.573 273.852 110.573Z" fill="#FFB9B9"/>
<path d="M288.209 123.214L261.089 121.756C263.747 116.178 264.809 110.807 263.748 105.711H283.955C283.909 109.624 286.039 116.392 288.209 123.214Z" fill="#FFB9B9"/>
<path d="M305.226 213.644L245.669 217.534L251.784 121.026L262.154 118.352L273.852 120.783L285.551 115.435L292.995 117.866L305.226 213.644Z" fill="#A6468B"/>
<path d="M255.772 283.169L215.092 274.661C227.188 237.986 248.98 154.086 241.946 124.187L263.216 115.435L255.772 283.169Z" fill="#E6E6E6"/>
<path d="M236.097 177.181L220.676 168.429L233.827 133.213C235.294 129.579 238.104 126.528 241.77 124.587L246.2 122.242L243.542 157.733L236.097 177.181Z" fill="#E6E6E6"/>
<path d="M340.589 275.147C327.749 281.939 295.655 285.725 281.563 280.981C280.526 247.845 278.492 154.116 285.019 114.463L308.417 123.214L306.29 149.468C295.104 171.927 327.585 250.151 340.589 275.147Z" fill="#E6E6E6"/>
<path d="M338.727 172.805L324.369 168.429L305.226 148.496L308.417 123.214L340.323 164.054L338.727 172.805Z" fill="#E6E6E6"/>
<path d="M293.73 191.729C293.965 192.671 294.599 193.49 295.494 194.006C296.388 194.522 297.469 194.692 298.501 194.48L310.689 191.957L308.927 184.844L296.739 187.367C295.708 187.581 294.811 188.16 294.247 188.978C293.683 189.796 293.497 190.786 293.73 191.729Z" fill="#FFB9B9"/>
<path d="M288.21 91.6121C279.053 88.1698 270.01 87.9207 261.09 91.126L257.367 78.9713H291.4L288.21 91.6121Z" fill="#2F2E41"/>
<path d="M304.694 183.501L311.607 195.17C323.235 192.205 333.312 182.857 342.981 171.833L340.323 164.054L323.838 167.943L304.694 183.501Z" fill="#E6E6E6"/>
<path d="M299.642 159.435H297.515C297.515 131.929 291.321 112.761 285.285 112.761L284.753 110.816C290.166 110.816 293.618 118.794 295.56 125.487C298.192 134.56 299.642 146.616 299.642 159.435Z" fill="#3F3D56"/>
<path d="M250.72 152.628H248.593C248.593 127.438 254.83 111.789 264.014 111.789L263.483 113.734C257.13 113.734 250.72 125.76 250.72 152.628Z" fill="#3F3D56"/>
<path d="M298.579 164.783C301.516 164.783 303.897 162.606 303.897 159.921C303.897 157.236 301.516 155.059 298.579 155.059C295.642 155.059 293.261 157.236 293.261 159.921C293.261 162.606 295.642 164.783 298.579 164.783Z" fill="#3F3D56"/>
<path d="M242.212 164.297H240.085C240.085 157.327 244.379 151.656 249.657 151.656V153.601C245.552 153.601 242.212 158.399 242.212 164.297Z" fill="#3F3D56"/>
<path d="M259.228 164.297H257.101C257.101 158.399 253.762 153.601 249.657 153.601V151.656C254.935 151.656 259.228 157.327 259.228 164.297Z" fill="#3F3D56"/>
<path d="M258.165 166.728C259.339 166.728 260.292 165.857 260.292 164.783C260.292 163.709 259.339 162.838 258.165 162.838C256.99 162.838 256.038 163.709 256.038 164.783C256.038 165.857 256.99 166.728 258.165 166.728Z" fill="#3F3D56"/>
<path d="M241.149 166.728C242.323 166.728 243.276 165.857 243.276 164.783C243.276 163.709 242.323 162.838 241.149 162.838C239.974 162.838 239.021 163.709 239.021 164.783C239.021 165.857 239.974 166.728 241.149 166.728Z" fill="#3F3D56"/>
<path d="M214.56 146.9L227.831 149.067L258.165 188.501L242.05 185.034L214.56 146.9Z" fill="#6C63FF"/>
<path d="M212.206 146.417C212.004 146.42 211.806 146.472 211.634 146.569C211.461 146.665 211.32 146.803 211.226 146.966C211.131 147.129 211.086 147.313 211.095 147.498C211.105 147.683 211.169 147.861 211.28 148.016L239.634 187.349C239.792 187.569 240.037 187.725 240.317 187.785L253.509 190.623C253.732 190.671 253.965 190.656 254.177 190.579C254.39 190.503 254.573 190.37 254.701 190.197C254.829 190.024 254.896 189.819 254.894 189.61C254.892 189.401 254.82 189.198 254.689 189.027L223.558 148.557C223.474 148.447 223.366 148.353 223.242 148.28C223.118 148.208 222.979 148.159 222.834 148.135L212.419 146.435C212.348 146.423 212.277 146.417 212.206 146.417Z" fill="#3F3D56"/>
<path d="M229.894 174.54L230.682 181.797L243.117 180.668C244.169 180.573 245.137 180.099 245.808 179.351C246.478 178.603 246.796 177.642 246.692 176.68C246.587 175.717 246.069 174.832 245.251 174.219C244.433 173.606 243.382 173.316 242.329 173.411L229.894 174.54Z" fill="#FFB9B9"/>
<path d="M219.081 173.699C219.099 176.174 220.186 178.541 222.105 180.286C224.024 182.031 226.62 183.012 229.326 183.015H231.371L232.859 171.673L220.534 167.616L219.081 173.699Z" fill="#E6E6E6"/>
<path d="M159.819 332.591C168.307 342.984 185.925 344.077 185.925 344.077C185.925 344.077 189.783 328.322 181.295 317.93C172.807 307.537 155.189 306.443 155.189 306.443C155.189 306.443 151.332 322.199 159.819 332.591Z" fill="#E6E6E6"/>
<path d="M203.056 336.498C197.455 343.356 185.83 344.078 185.83 344.078C185.83 344.078 183.284 333.681 188.885 326.823C194.485 319.966 206.111 319.244 206.111 319.244C206.111 319.244 208.657 329.641 203.056 336.498Z" fill="#E6E6E6"/>
<path d="M450.816 367.794H145V369H450.816V367.794Z" fill="#3F3D56"/>
</g>
<defs>
<clipPath id="clip0">
<rect width="503" height="311" fill="white" transform="translate(145 58)"/>
</clipPath>
</defs>
</svg>
