<svg width="18" height="21" viewBox="0 0 18 21" fill="none" xmlns="http://www.w3.org/2000/svg">
<path d="M17.9084 0.86013C17.8282 0.778139 17.7142 0.759116 17.6176 0.811412L0.155693 10.2769C0.0616842 10.3279 0.00114612 10.4373 1.60703e-05 10.5582C-0.00111397 10.6792 0.0574331 10.7901 0.150527 10.8434L5.09221 13.6728C5.18283 13.7247 5.29089 13.7129 5.37182 13.6424L10.1765 9.4528L6.40463 13.9793C6.35081 14.0439 6.32337 14.1323 6.32929 14.2221L6.70484 19.9281C6.71318 20.0546 6.78583 20.1627 6.88909 20.2023C6.9167 20.2128 6.94506 20.218 6.97309 20.218C7.04999 20.218 7.12479 20.1795 7.17682 20.1092L9.79971 16.5632L13.0421 18.3707C13.1125 18.4099 13.194 18.4115 13.2655 18.3753C13.337 18.3389 13.3915 18.2682 13.4148 18.1815L17.9876 1.19017C18.0196 1.07151 17.9884 0.942121 17.9084 0.86013Z" fill="white"/>
</svg>
