<svg width="522" height="366" viewBox="0 0 522 366" fill="none" xmlns="http://www.w3.org/2000/svg">
<g clip-path="url(#clip0)">
<path opacity="0.1" d="M173.543 365.794C198.964 365.794 219.572 362.518 219.572 358.477C219.572 354.435 198.964 351.159 173.543 351.159C148.122 351.159 127.515 354.435 127.515 358.477C127.515 362.518 148.122 365.794 173.543 365.794Z" fill="#0097FF"/>
<path opacity="0.1" d="M423.749 366C455.471 366 481.186 362.724 481.186 358.682C481.186 354.641 455.471 351.364 423.749 351.364C392.028 351.364 366.312 354.641 366.312 358.682C366.312 362.724 392.028 366 423.749 366Z" fill="#0097FF"/>
<path opacity="0.1" d="M6.53773 158.138H54.4797V222.82H10.0475C9.92943 223.484 9.81605 224.152 9.69323 224.821H54.4797V276.985C54.3994 276.962 54.3285 276.934 54.2529 276.906C52.987 276.41 51.7304 275.886 50.4739 275.325L49.6708 274.965C48.4112 274.376 47.1515 273.753 45.8918 273.095C45.4525 272.866 45.0132 272.627 44.5786 272.384C37.5854 268.507 31.2324 263.593 25.74 257.814C25.5794 257.66 25.4282 257.496 25.2676 257.347C24.5024 256.524 23.7513 255.691 23.0238 254.84L22.2208 253.905C21.361 252.862 20.5297 251.792 19.7219 250.707C19.6038 250.548 19.4904 250.389 19.3676 250.239C16.0824 245.73 13.3547 240.848 11.2426 235.697C11.1765 235.543 11.1198 235.375 11.0584 235.23C10.4097 233.577 9.83495 231.91 9.33422 230.226C9.11693 229.52 8.90908 228.824 8.72958 228.09C8.66344 227.874 8.60676 227.664 8.5548 227.454C5.87167 217.087 5.55518 206.319 5.55518 195.625C5.55518 194.376 5.55518 193.123 5.55518 191.884C5.55518 187.559 5.60714 183.206 5.68272 178.857C5.68272 177.73 5.72996 176.608 5.75357 175.477C5.81971 172.606 5.91419 169.735 6.037 166.864C6.06535 166.064 6.10314 165.269 6.14565 164.474C6.14565 164.016 6.16927 163.558 6.21651 163.099C6.32988 161.435 6.42436 159.784 6.53773 158.138Z" fill="#0097FF"/>
<path opacity="0.1" d="M54.4796 86.1204H28.1821C32.4569 79.4974 37.1276 73.1331 42.1693 67.0615C46.0759 62.3108 50.1998 57.6817 54.4796 53.2209V86.1204Z" fill="#7AC9FF"/>
<path opacity="0.1" d="M54.4798 88.1217V156.137H6.68896C6.68896 155.941 6.72203 155.74 6.7362 155.543C6.77872 155.006 6.82123 154.468 6.86847 153.935C6.92043 153.308 6.97712 152.677 7.03853 152.064C7.09994 151.452 7.16607 150.704 7.23693 150.026C7.30778 149.348 7.37392 148.66 7.45422 147.982C7.53453 147.304 7.60538 146.626 7.69041 145.953C7.77544 145.28 7.85102 144.597 7.94078 143.924C8.01163 143.363 8.08721 142.806 8.16279 142.245C8.27144 141.455 8.38481 140.66 8.50763 139.874C8.50763 139.757 8.5407 139.636 8.55959 139.524C9.42178 133.773 10.5966 128.073 12.0788 122.447C13.6304 116.546 15.6117 110.764 18.0072 105.147C20.5532 99.2698 23.5341 93.5872 26.9258 88.1451L54.4798 88.1217Z" fill="#7AC9FF"/>
<path opacity="0.1" d="M65.9253 158.134V222.82H168.323V158.134H65.9253ZM65.9253 224.816V280.366C66.511 280.487 67.0921 280.604 67.6684 280.703C68.4525 280.852 69.232 280.988 70.0303 281.105C70.1814 281.128 70.3373 281.151 70.5027 281.165C70.8144 281.217 71.1357 281.259 71.4474 281.301C72.2363 281.409 73.0205 281.497 73.8093 281.568C74.1825 281.605 74.5604 281.638 74.9383 281.666L75.85 281.736C76.346 281.773 76.8373 281.801 77.3238 281.815C77.6262 281.815 77.9285 281.843 78.2403 281.853C78.4765 281.853 78.7126 281.853 78.9583 281.853C79.2039 281.853 79.5535 281.853 79.8511 281.853C80.2573 281.853 80.6636 281.853 81.0651 281.853H81.6083C82.0146 281.853 82.4208 281.853 82.8224 281.815H82.8507C83.1294 281.815 83.4128 281.815 83.6963 281.778C83.7749 281.783 83.8538 281.783 83.9325 281.778C84.1686 281.778 84.4048 281.778 84.6316 281.745H84.7969L86.3794 281.624C86.899 281.577 87.4233 281.516 87.9524 281.46L89.0295 281.334C93.4112 280.726 97.7442 279.814 101.996 278.603C111.548 275.966 120.892 272.277 130.438 269.574C142.782 266.09 156.419 264.379 168.347 268.639V224.816H65.9253ZM168.323 86.1204V0.00468666C157.112 -0.115541 145.932 1.18239 135.054 3.86697C109.125 10.315 85.8598 24.3006 65.9253 42.1624V86.1157H71.0648V88.1123H65.9253V156.137H168.323V88.117H92.1661V86.1204H168.323ZM299.848 57.0317C293.433 56.8073 287.056 54.7967 281.289 51.6919C270.258 45.7535 261.449 36.5841 251.604 28.8455C231.15 12.7278 205.783 3.00193 179.76 0.589172V86.1204H325.938L326.302 85.7417L299.848 57.0317ZM313.165 54.6938L327.284 70.0307V50.6725C322.556 51.2524 318.413 52.6317 313.184 54.6751L313.165 54.6938ZM327.284 294.16V224.816H297.198C297.118 224.522 297.038 224.223 296.943 223.923C297.033 224.223 297.109 224.522 297.194 224.816H179.779V274.965C180.893 275.784 181.994 276.644 183.085 277.518C184.261 278.453 185.424 279.44 186.59 280.408L187.767 281.371C188.329 281.839 188.896 282.306 189.467 282.746C190.601 283.656 191.746 284.554 192.901 285.439C193.473 285.907 194.059 286.328 194.64 286.767C203.864 293.748 213.594 300.048 223.753 305.616C226.029 306.863 228.327 308.08 230.645 309.267C232.189 310.048 233.743 310.825 235.302 311.577C237.645 312.709 240.007 313.8 242.388 314.85C264.338 324.604 287.548 331.296 311.356 334.737C316.643 335.51 321.951 336.118 327.28 336.561V294.155H327.752L327.284 294.16ZM179.779 88.117V156.137H327.303V88.117H179.779ZM179.779 158.134V222.82H327.303V158.134H179.779ZM338.754 50.5884V72.1816L356.775 52.6084C350.804 51.6545 344.797 50.9734 338.754 50.565V50.5884ZM338.754 158.157V222.82H482.239V158.134L338.754 158.157ZM481.715 299.294L482.221 224.816H338.754V337.304C347.996 337.688 357.252 337.579 366.482 336.977H366.643C371.052 336.702 375.44 336.303 379.808 335.78H379.908C403.21 333.095 425.996 327.077 447.552 317.913L481.715 299.294ZM509.907 168.785C509.368 167.527 508.806 166.279 508.235 165.045C507.167 162.707 506.038 160.434 504.876 158.162H493.68V222.82H521.986C521.971 204.509 517.29 185.806 509.921 168.762L509.907 168.785ZM493.68 224.84V288.899C501.654 281.334 508.39 272.679 513.242 262.785C519.076 250.87 521.745 237.97 521.962 224.83L493.68 224.84ZM493.68 139.309V156.142H503.827C500.758 150.347 497.375 144.72 493.695 139.285L493.68 139.309ZM396.37 63.2787C395.624 62.9982 394.877 62.7129 394.126 62.4371C386.205 59.5414 378.11 57.1334 369.888 55.2269L342.311 85.1852L341.782 85.7417L342.136 86.1251H440.287C426.618 76.811 411.88 69.1341 396.384 63.2553L396.37 63.2787ZM443.164 88.1404H340.766L338.754 89.964V156.137H356.392H356.421H482.258V124.084C470.875 110.456 457.736 98.3645 443.178 88.117L443.164 88.1404Z" fill="#7AC9FF"/>
<path opacity="0.1" d="M54.4798 122.429V156.137H6.68896C6.68896 155.941 6.72203 155.74 6.7362 155.543C6.77872 155.005 6.82123 154.468 6.86847 153.935C6.92043 153.308 6.97712 152.677 7.03853 152.064C7.09994 151.452 7.16607 150.704 7.23693 150.026C7.30778 149.348 7.37392 148.66 7.45422 147.982C7.53453 147.304 7.60538 146.626 7.69041 145.953C7.77544 145.28 7.85102 144.597 7.94078 143.924C8.01163 143.363 8.08721 142.806 8.16279 142.245C8.27144 141.455 8.38481 140.66 8.50763 139.874C8.50763 139.757 8.5407 139.636 8.55959 139.524C9.42178 133.773 10.5966 128.073 12.0788 122.447L54.4798 122.429Z" fill="#0097FF"/>
<path opacity="0.1" d="M6.53773 158.138H54.4797V222.82H10.0475C9.92943 223.484 9.81605 224.152 9.69323 224.821H54.4797V276.985C54.3994 276.962 54.3285 276.934 54.2529 276.906C52.987 276.41 51.7304 275.886 50.4739 275.325L49.6708 274.965C48.4112 274.376 47.1515 273.753 45.8918 273.095C45.4525 272.866 45.0132 272.627 44.5786 272.384C37.5854 268.507 31.2324 263.593 25.74 257.814C25.5794 257.66 25.4282 257.496 25.2676 257.347C24.5024 256.524 23.7513 255.691 23.0238 254.84L22.2208 253.905C21.361 252.862 20.5297 251.792 19.7219 250.707C19.6038 250.548 19.4904 250.389 19.3676 250.239C16.0824 245.73 13.3547 240.848 11.2426 235.697C11.1765 235.543 11.1198 235.375 11.0584 235.23C10.4097 233.577 9.83495 231.91 9.33422 230.226C9.11693 229.52 8.90908 228.824 8.72958 228.09C8.66344 227.874 8.60676 227.664 8.55479 227.454C5.87167 217.087 5.55518 206.319 5.55518 195.625C5.55518 194.376 5.55518 193.123 5.55518 191.884C5.55518 187.559 5.60714 183.206 5.68272 178.857C5.68272 177.73 5.72996 176.608 5.75357 175.477C5.81971 172.606 5.91419 169.735 6.037 166.864C6.06535 166.064 6.10314 165.269 6.14565 164.474C6.14565 164.016 6.16927 163.558 6.21651 163.099C6.32988 161.435 6.42436 159.784 6.53773 158.138Z" fill="#7AC9FF"/>
<path opacity="0.1" d="M101.973 97.8568V156.137H65.9253V97.8568H71.0648V78.1246H92.1613V97.8568H101.973Z" fill="#0097FF"/>
<path opacity="0.1" d="M101.973 158.134H65.9302V222.815H101.973V158.134Z" fill="#0097FF"/>
<path opacity="0.1" d="M65.9253 224.821H101.973V278.594C97.7205 279.803 93.3875 280.714 89.0058 281.32L87.9288 281.451C87.3997 281.511 86.8754 281.563 86.3558 281.614C85.8362 281.666 85.2976 281.703 84.7733 281.736H84.608C84.3812 281.736 84.1356 281.764 83.9136 281.769H83.6726C83.3892 281.769 83.1058 281.797 82.8224 281.806C82.4208 281.829 82.0193 281.834 81.6083 281.839C81.4336 281.839 81.2682 281.839 81.0934 281.839C80.6872 281.839 80.2857 281.839 79.8794 281.839H78.9866C78.7457 281.839 78.5142 281.839 78.2639 281.839L77.3522 281.806C76.8798 281.806 76.3696 281.755 75.8784 281.722L74.9714 281.656L73.8424 281.554C73.0488 281.483 72.2599 281.395 71.4805 281.287L70.5357 281.156L70.0633 281.091C69.2745 280.969 68.495 280.838 67.7014 280.689C67.1204 280.59 66.5441 280.469 65.9584 280.352L65.9253 224.821Z" fill="#0097FF"/>
<path opacity="0.1" d="M327.303 90.974H297.581V156.132H327.303V90.974Z" fill="#0097FF"/>
<path opacity="0.1" d="M327.308 158.134V222.82H179.779V194.919H258.359V211.378H297.581V158.134H327.308Z" fill="#0097FF"/>
<path opacity="0.1" d="M327.776 294.174H327.303V336.607C321.981 336.162 316.675 335.555 311.384 334.788C287.565 331.337 264.345 324.63 242.388 314.86C236.049 312.036 229.839 308.953 223.757 305.611C213.6 300.041 203.868 293.741 194.64 286.762C192.322 285.004 190.034 283.206 187.776 281.367C186.213 280.09 184.659 278.781 183.085 277.509C181.994 276.635 180.894 275.774 179.779 274.951V224.821H297.189C297.109 224.522 297.029 224.223 296.943 223.928C297.033 224.223 297.118 224.522 297.199 224.821H327.303V294.146C327.464 294.15 327.62 294.164 327.776 294.174Z" fill="#0097FF"/>
<path opacity="0.1" d="M404.821 86.1204H385.454V80.1633H394.136V62.4183C394.889 62.6895 395.638 62.9685 396.385 63.2553V80.1633H404.821V86.1204Z" fill="#0097FF"/>
<path opacity="0.1" d="M451.483 156.137H356.402C356.402 156.137 356.402 156.137 356.435 156.16L356.393 156.137H338.754V90.9786H343.752V139.14H366.591V110.617H385.458V88.1217H404.826V110.636H423.693V139.159H451.483V156.137Z" fill="#0097FF"/>
<path opacity="0.1" d="M338.754 158.134V222.82H451.483V158.134H338.754ZM482.084 298.962L482.24 247.761H451.483V224.849H338.754V337.304C347.996 337.688 357.252 337.579 366.483 336.977H366.643C371.052 336.702 375.441 336.303 379.809 335.78H379.908C403.211 333.095 425.996 327.077 447.553 317.913" fill="#0097FF"/>
<path opacity="0.1" d="M495.684 224.821H521.981C521.75 237.956 519.085 250.856 513.256 262.771C508.405 272.669 501.664 281.324 493.7 288.885V247.738H495.684V224.821Z" fill="#0097FF"/>
<path opacity="0.1" d="M521.995 222.82H495.684V168.762H509.921C517.29 185.806 521.972 204.509 521.995 222.82Z" fill="#0097FF"/>
<path opacity="0.1" d="M327.308 109.088H311.384V129.517H327.308V109.088Z" fill="#0097FF"/>
<path opacity="0.1" d="M327.308 151.433H311.384V156.137H327.308V151.433Z" fill="#0097FF"/>
<path opacity="0.1" d="M327.308 158.134H311.384V171.857H327.308V158.134Z" fill="#0097FF"/>
<path opacity="0.1" d="M327.308 193.778H311.384V214.207H327.308V193.778Z" fill="#0097FF"/>
<path opacity="0.1" d="M327.308 236.123H311.384V256.552H327.308V236.123Z" fill="#0097FF"/>
<path opacity="0.1" d="M327.304 294.146C327.464 294.146 327.62 294.146 327.776 294.174H327.304V298.92H311.384V278.467H327.304V294.146Z" fill="#0097FF"/>
<path opacity="0.1" d="M327.303 320.803V336.584C321.981 336.138 316.675 335.532 311.384 334.765V320.803H327.303Z" fill="#0097FF"/>
<path opacity="0.1" d="M248.024 221.319H179.779V222.82H248.024V221.319Z" fill="#0097FF"/>
<path opacity="0.1" d="M248.024 224.816H179.779V230.568H248.024V224.816Z" fill="#0097FF"/>
<path opacity="0.1" d="M248.024 249.421H179.779V258.67H248.024V249.421Z" fill="#0097FF"/>
<path opacity="0.1" d="M248.019 277.523V286.772H194.64C192.322 285.02 190.033 283.221 187.772 281.376C186.208 280.099 184.659 278.79 183.081 277.523H248.019Z" fill="#0097FF"/>
<path opacity="0.1" d="M248.019 305.62V314.86H242.383C236.05 312.033 229.842 308.948 223.757 305.606L248.019 305.62Z" fill="#0097FF"/>
<path opacity="0.1" d="M379.922 164.404H366.487V177.702H379.922V164.404Z" fill="#0097FF"/>
<path opacity="0.1" d="M89.039 102.444H75.6045V115.742H89.039V102.444Z" fill="#0097FF"/>
<path opacity="0.1" d="M89.039 133.333H75.6045V146.631H89.039V133.333Z" fill="#0097FF"/>
<path opacity="0.1" d="M89.039 164.222H75.6045V177.52H89.039V164.222Z" fill="#0097FF"/>
<path opacity="0.1" d="M89.039 195.106H75.6045V208.404H89.039V195.106Z" fill="#0097FF"/>
<path opacity="0.1" d="M89.039 225.995H75.6045V239.293H89.039V225.995Z" fill="#0097FF"/>
<path opacity="0.1" d="M89.039 256.884H75.6045V270.182H89.039V256.884Z" fill="#0097FF"/>
<path opacity="0.1" d="M431.208 164.404H417.774V177.702H431.208V164.404Z" fill="#0097FF"/>
<path opacity="0.1" d="M379.922 197.205H366.487V210.504H379.922V197.205Z" fill="#0097FF"/>
<path opacity="0.1" d="M431.208 197.205H417.774V210.504H431.208V197.205Z" fill="#0097FF"/>
<path opacity="0.1" d="M379.922 230.002H366.487V243.3H379.922V230.002Z" fill="#0097FF"/>
<path opacity="0.1" d="M431.208 230.002H417.774V243.3H431.208V230.002Z" fill="#0097FF"/>
<path opacity="0.1" d="M379.922 262.803H366.487V276.101H379.922V262.803Z" fill="#0097FF"/>
<path opacity="0.1" d="M431.208 262.803H417.774V276.101H431.208V262.803Z" fill="#0097FF"/>
<path opacity="0.1" d="M379.922 295.605H366.487V308.903H379.922V295.605Z" fill="#0097FF"/>
<path opacity="0.1" d="M431.208 295.605H417.774V308.903H431.208V295.605Z" fill="#0097FF"/>
<path opacity="0.1" d="M366.487 336.977V328.401H379.917V335.756L366.487 336.977Z" fill="#0097FF"/>
<path opacity="0.1" d="M8.50293 139.514V147.122H54.4798V139.514H8.50293ZM13.085 146.645H9.33432V139.982H13.1134L13.085 146.645ZM17.6624 146.645H13.8833V139.982H17.6624V146.645ZM22.2303 146.645H18.4513V139.982H22.2303V146.645ZM26.8077 146.645H23.0334V139.982H26.8124L26.8077 146.645ZM31.3803 146.645H27.6013V139.982H31.3803V146.645ZM35.9577 146.645H32.1787V139.982H35.9577V146.645ZM40.5351 146.645H36.756V139.982H40.5351V146.645ZM45.1077 146.645H41.3287V139.982H45.1077V146.645ZM49.6804 146.645H45.9013V139.982H49.6804V146.645ZM54.253 146.645H50.474V139.982H54.253V146.645Z" fill="#0097FF"/>
<path opacity="0.1" d="M8.50293 161.65V169.258H54.4798V161.65H8.50293ZM13.085 168.776H9.33432V162.132H13.1134L13.085 168.776ZM17.6624 168.776H13.8833V162.132H17.6624V168.776ZM22.2303 168.776H18.4513V162.132H22.2303V168.776ZM26.8077 168.776H23.0334V162.132H26.8124L26.8077 168.776ZM31.3803 168.776H27.6013V162.132H31.3803V168.776ZM35.9577 168.776H32.1787V162.132H35.9577V168.776ZM40.5351 168.776H36.756V162.132H40.5351V168.776ZM45.1077 168.776H41.3287V162.132H45.1077V168.776ZM49.6804 168.776H45.9013V162.132H49.6804V168.776ZM54.253 168.776H50.474V162.132H54.253V168.776Z" fill="#0097FF"/>
<path opacity="0.1" d="M8.50293 183.795V191.417H54.4798V183.795H8.50293ZM13.085 190.921H9.33432V184.272H13.1134L13.085 190.921ZM17.6624 190.921H13.8833V184.272H17.6624V190.921ZM22.2303 190.921H18.4513V184.272H22.2303V190.921ZM26.8077 190.921H23.0334V184.272H26.8124L26.8077 190.921ZM31.3803 190.921H27.6013V184.272H31.3803V190.921ZM35.9577 190.921H32.1787V184.272H35.9577V190.921ZM40.5351 190.921H36.756V184.272H40.5351V190.921ZM45.1077 190.921H41.3287V184.272H45.1077V190.921ZM49.6804 190.921H45.9013V184.272H49.6804V190.921ZM54.253 190.921H50.474V184.272H54.253V190.921Z" fill="#0097FF"/>
<path opacity="0.1" d="M8.50293 205.94V213.538H54.4798V205.94H8.50293ZM13.085 213.066H9.33432V206.412H13.1134L13.085 213.066ZM17.6624 213.066H13.8833V206.412H17.6624V213.066ZM22.2303 213.066H18.4513V206.412H22.2303V213.066ZM26.8077 213.066H23.0334V206.412H26.8124L26.8077 213.066ZM31.3803 213.066H27.6013V206.412H31.3803V213.066ZM35.9577 213.066H32.1787V206.412H35.9577V213.066ZM40.5351 213.066H36.756V206.412H40.5351V213.066ZM45.1077 213.066H41.3287V206.412H45.1077V213.066ZM49.6804 213.066H45.9013V206.412H49.6804V213.066ZM54.253 213.066H50.474V206.412H54.253V213.066Z" fill="#0097FF"/>
<path opacity="0.1" d="M8.70117 228.08C8.8854 228.796 9.09324 229.511 9.31054 230.217V228.557H13.0896V235.206H11.0678C11.1292 235.361 11.1906 235.529 11.252 235.674H54.4796V228.08H8.70117ZM17.6764 235.206H13.8974V228.557H17.6764V235.206ZM22.2443 235.206H18.4653V228.557H22.2443V235.206ZM26.8217 235.206H23.0332V228.557H26.8123L26.8217 235.206ZM31.3944 235.206H27.6153V228.557H31.3944V235.206ZM35.9717 235.206H32.1927V228.557H35.9717V235.206ZM40.5491 235.206H36.7701V228.557H40.5491V235.206ZM45.1217 235.206H41.3427V228.557H45.1217V235.206ZM49.6944 235.206H45.9153V228.557H49.6944V235.206ZM54.267 235.206H50.488V228.557H54.267V235.206Z" fill="#0097FF"/>
<path opacity="0.1" d="M19.377 250.225C19.495 250.375 19.6084 250.543 19.7312 250.693H22.2301V253.886C22.4994 254.204 22.7639 254.522 23.0379 254.822V250.674H26.817V257.347H25.2864C25.4376 257.501 25.584 257.664 25.7588 257.814H54.4938V250.225H19.377ZM31.3802 257.347H27.6011V250.702H31.3802V257.347ZM35.9575 257.347H32.1785V250.702H35.9575V257.347ZM40.5349 257.347H36.7559V250.702H40.5349V257.347ZM45.1076 257.347H41.3285V250.702H45.1076V257.347ZM49.6802 257.347H45.9012V250.702H49.6802V257.347ZM54.2529 257.347H50.4738V250.702H54.2529V257.347Z" fill="#0097FF"/>
<path opacity="0.1" d="M44.5977 272.365C45.0275 272.609 45.4668 272.833 45.9109 273.076V272.842H49.6899V274.947L50.493 275.316V272.842H54.272V276.887C54.3445 276.923 54.4205 276.951 54.4988 276.971V272.365H44.5977Z" fill="#0097FF"/>
<path opacity="0.1" d="M356.402 156.137H356.431H356.402ZM327.303 294.141H327.776H327.303ZM296.944 223.923C297.033 224.223 297.109 224.522 297.194 224.816C297.118 224.522 297.038 224.223 296.944 223.923ZM356.402 156.123H356.431H356.402ZM71.084 86.1064V88.103H92.1852V86.1064H71.084ZM327.303 294.141H327.776H327.303ZM296.944 223.923C297.033 224.223 297.109 224.522 297.194 224.816C297.118 224.522 297.038 224.223 296.944 223.923ZM356.402 156.123H356.431H356.402ZM327.303 294.127H327.776H327.303ZM296.944 223.923C297.033 224.223 297.109 224.522 297.194 224.816C297.118 224.522 297.038 224.223 296.944 223.923Z" fill="#0097FF"/>
<path d="M218.051 177.529C218.051 177.529 216.19 177.272 216.19 174.588C216.19 171.904 214.858 166.892 214.858 166.892C214.858 166.868 213.705 158.162 212.113 156.778C210.521 155.394 208.476 147.267 208.476 147.267C208.476 147.267 208.126 142.858 207.413 141.908C206.7 140.959 205.736 138.635 204.314 135.32C202.892 132.005 196.964 129.709 196.964 129.709C196.964 129.709 186.246 123.556 183.208 121.55C182.932 121.385 182.674 121.192 182.438 120.974C181.909 120.287 179.604 120.273 179.604 120.273C179.363 118.767 179.132 117.037 179.056 115.471C179.056 115.303 179.056 115.134 179.032 114.966C182.419 112.984 184.971 109.86 186.217 106.166C186.274 105.988 186.321 105.801 186.373 105.624C186.576 105.557 186.763 105.45 186.922 105.308C187.08 105.167 187.207 104.994 187.294 104.801C187.568 104.197 187.573 103.491 187.913 102.93C188.31 102.266 189.066 101.911 189.661 101.411C191.163 100.148 191.551 98.0205 191.48 96.0847C191.433 94.5183 191.177 92.9378 191.277 91.3808L191.305 90.988C191.333 90.7542 191.366 90.5204 191.409 90.296C191.64 89.1364 192.146 88.0422 192.429 86.8919C192.713 85.7417 192.741 84.4464 192.08 83.4552C191.111 82.001 189.094 81.7111 187.323 81.5614C185.315 81.3931 183.52 81.6129 182.235 79.9623C181.634 79.0996 180.957 78.2907 180.213 77.5448C179.949 77.3017 177.379 75.7493 177.379 75.6464C174.871 74.4966 172.028 74.2808 169.372 75.0386C168.04 75.422 166.784 76.0486 165.433 76.3618C162.518 77.0445 159.164 76.3057 156.689 77.9563C155.31 78.8915 154.483 80.3784 153.708 81.828C153.078 83.0219 152.439 84.2142 151.79 85.405C150.746 87.3642 149.683 89.3561 149.244 91.5257C149.152 91.9978 149.095 92.4761 149.074 92.9565V92.9799C149.074 93.1529 149.074 93.3259 149.074 93.4989V93.7187C149.074 93.8824 149.074 94.0414 149.102 94.1863C149.131 94.3313 149.126 94.378 149.14 94.4762C149.154 94.5744 149.178 94.7942 149.206 94.9438C149.235 95.0934 149.291 95.3553 149.348 95.561C149.372 95.6499 149.405 95.734 149.433 95.8182C149.48 95.9772 149.537 96.1315 149.598 96.2858C149.631 96.3653 149.665 96.4494 149.702 96.5289C149.773 96.6926 149.858 96.8516 149.943 96.9965C149.981 97.062 150.009 97.1228 150.047 97.1835C150.179 97.401 150.324 97.6102 150.482 97.8101C151.493 99.0586 152.981 99.8535 154.081 101.022C154.081 101.069 154.081 101.116 154.081 101.158C154.081 101.289 154.081 101.415 154.081 101.546C154.14 104.153 154.841 106.707 156.123 108.984C157.406 111.262 159.232 113.195 161.441 114.615C161.441 114.793 161.465 114.975 161.474 115.153C161.566 116.541 161.549 117.934 161.422 119.319C161.23 119.095 160.989 118.916 160.718 118.797C160.446 118.677 160.151 118.619 159.854 118.627C159.651 118.617 159.447 118.635 159.249 118.679L159.207 118.646V118.688C158.167 118.94 156.887 120.011 155.664 123.055C155.664 123.055 151.941 127.207 149.107 127.034C146.273 126.861 139.097 131.355 139.097 131.355C139.097 131.355 132.097 135.853 130.595 140.435C129.755 143.034 128.748 145.577 127.581 148.048L118.927 165.699L117.33 179.704C117.33 179.704 118.213 185.932 118.039 186.881C117.864 187.83 121.671 196.392 121.671 196.392C121.671 196.392 134.251 218.27 139.39 219.392L139.759 219.135C139.979 219.249 140.212 219.335 140.453 219.392L141.511 218.654C141.575 219.477 141.548 220.305 141.431 221.122C140.722 223.283 141.695 237.381 142.933 240.144C144.171 242.907 143.731 279.141 143.731 279.141L143.557 282.339C143.557 282.339 143.557 282.442 143.599 282.62L143.557 283.377L143.684 283.443C143.817 284.457 143.774 285.486 143.557 286.487C143.113 287.889 142.933 291.855 142.933 291.855C142.933 291.855 139.395 314.243 141.072 318.741C142.749 323.239 144.176 328.167 144.176 328.167C144.176 328.167 145.947 333.779 144.261 334.737C142.574 335.696 137.779 337.304 138.767 339.642C139.664 341.802 143.07 347.591 143.576 348.437L143.533 348.882L142.839 356.33C142.951 357.314 143.221 358.273 143.637 359.173C144.398 360.796 145.876 362.479 148.687 362.297C149.159 362.264 149.707 362.208 150.236 362.138C155.38 361.455 161.715 359.183 161.715 359.183C161.386 358.976 161.085 358.729 160.817 358.448C160.565 358.206 160.364 357.915 160.229 357.594C160.093 357.272 160.025 356.927 160.029 356.578C160.104 355.222 157.539 348.76 156.901 347.17C156.802 346.941 156.75 346.81 156.75 346.81C156.75 346.81 162.598 340.76 161.625 335.396C161.625 335.396 155.154 331.656 157.284 329.603C159.415 327.55 163.222 321.654 163.222 321.654C163.222 321.654 163.397 299.607 163.222 296.315C163.04 294.031 163.149 291.732 163.548 289.475C163.619 289.133 163.704 288.801 163.793 288.474C166.74 288.909 169.714 289.133 172.693 289.143C173.78 289.143 174.885 289.143 176 289.077C176 289.389 176.014 289.725 176.042 290.087C176.288 295.548 176.746 305.125 177.119 308.683C177.648 313.784 180.572 327.532 180.572 327.532C180.572 327.532 174.994 331.076 181.546 339.81C181.546 339.81 181.546 342.976 181.111 343.434C180.647 344.932 180.273 346.456 179.991 347.998C179.717 349.644 179.604 351.308 180.048 352.173C181.111 354.24 187.488 354.072 187.488 354.072L187.644 354.044C188.848 353.921 190.065 354.035 191.223 354.381C192.382 354.727 193.46 355.298 194.394 356.059C196.818 357.986 206.015 357.139 210.994 356.527C212.945 356.284 214.249 356.059 214.249 356.059C214.312 355.84 214.334 355.612 214.315 355.386C214.263 354.175 213.304 351.519 206.804 349.148C206.804 349.148 200.691 345.08 200.776 341.536H200.649H199.94C200.455 341.508 200.786 341.536 200.786 341.536C200.786 341.536 198.391 332.885 199.369 332.184C200.346 331.483 197.418 321.897 197.418 321.897C197.418 321.897 195.741 305.812 195.651 304.685C195.655 303.718 195.803 302.757 196.09 301.833L195.651 293.014C195.651 293.014 195.566 290.082 195.651 289.128C195.637 288.301 195.569 287.474 195.448 286.655C195.405 286.328 195.363 285.986 195.315 285.65C197.607 285.075 199.095 284.541 199.095 284.541L198.83 253.844C200.776 250.104 201.135 241.897 201.126 236.076C201.126 232.335 200.956 229.567 200.956 229.567L203.615 225.27C203.615 225.27 204.229 220.127 203.256 219C202.826 218.49 203.02 217.962 203.374 217.527C203.558 217.382 203.752 217.251 203.955 217.134C203.955 217.134 203.927 217.092 203.894 217.031C204.08 216.878 204.277 216.738 204.484 216.615C204.484 216.615 203.54 215.165 204.385 214.553C205.179 215.086 205.887 215.488 206.426 215.815C206.388 216.157 206.35 216.353 206.35 216.353L206.577 215.885C207.097 216.175 207.413 216.353 207.413 216.353C207.413 216.353 211.58 208.138 211.49 206.926C211.4 205.715 214.324 200.614 214.324 200.614C214.324 200.614 214.678 197.935 216.275 196.813C217.872 195.69 217.513 187.559 217.513 187.559C217.513 187.559 217.957 183.323 219.02 181.593C220.082 179.862 218.051 177.529 218.051 177.529ZM138.332 173.924L138.412 175.883C137.94 175.131 137.6 174.588 137.6 174.588L138.332 173.924Z" fill="url(#paint0_linear)"/>
<path d="M207.64 212.804L206.62 217.106C206.62 217.106 198.447 212.977 196.974 207.731C195.5 202.484 199.439 200.492 199.439 200.492L207.054 203.686L207.64 212.804Z" fill="white"/>
<path opacity="0.1" d="M207.64 212.804L206.62 217.106C206.62 217.106 198.447 212.977 196.974 207.731C195.5 202.484 199.439 200.492 199.439 200.492L207.054 203.686L207.64 212.804Z" fill="black"/>
<path d="M161.776 359.211C161.776 359.211 154.218 361.96 149.022 362.306C146.263 362.488 144.813 360.814 144.067 359.201C143.659 358.304 143.396 357.35 143.287 356.372L143.963 348.961L144.322 345.015L155.361 342.176L156.925 346.908L157.071 347.268C157.699 348.849 160.217 355.278 160.142 356.62C160.139 356.964 160.206 357.305 160.339 357.622C160.472 357.939 160.668 358.227 160.916 358.467C161.17 358.75 161.459 359 161.776 359.211Z" fill="white"/>
<path d="M213.403 355.442C213.422 355.667 213.399 355.893 213.337 356.111C213.337 356.111 197.172 358.78 193.865 356.111C192.933 355.331 191.846 354.752 190.675 354.412C189.503 354.072 188.273 353.979 187.063 354.137C187.063 354.137 180.809 354.306 179.765 352.267C179.33 351.411 179.443 349.751 179.713 348.115C179.987 346.581 180.353 345.065 180.809 343.574L181.059 343.378L182.547 342.195L199.968 341.685H200.101C200.015 345.211 206.015 349.256 206.015 349.256C212.387 351.594 213.327 354.235 213.403 355.442Z" fill="white"/>
<path opacity="0.1" d="M213.403 355.442C213.419 355.667 213.395 355.894 213.332 356.111C213.332 356.111 197.172 358.78 193.865 356.111C192.933 355.331 191.847 354.753 190.677 354.413C189.506 354.073 188.277 353.979 187.068 354.137C187.068 354.137 180.808 354.306 179.769 352.267C179.335 351.407 179.443 349.751 179.713 348.115C182.122 348.353 185.924 348.947 187.417 350.364C189.675 352.519 193.501 354.67 195.849 354.839C197.687 354.956 208.679 355.302 213.403 355.442Z" fill="black"/>
<path opacity="0.1" d="M161.776 359.211C161.776 359.211 154.218 361.96 149.022 362.306C146.263 362.488 144.813 360.814 144.071 359.197C145.994 359.837 148.663 360.511 150.066 359.893C151.729 359.164 157.624 358.692 160.931 358.491C161.182 358.763 161.466 359.005 161.776 359.211Z" fill="black"/>
<path d="M172.991 137.644C166.755 135.245 158.734 127.32 160.737 123.616C161.182 122.682 161.446 121.673 161.516 120.642C161.645 119.243 161.664 117.836 161.573 116.434C161.433 114.138 161.153 111.852 160.737 109.589C160.737 109.589 180.204 110.024 179.07 112.862C178.739 113.694 178.687 115.139 178.777 116.757C178.867 118.375 179.103 120.203 179.349 121.751C179.689 123.873 180.029 125.491 180.029 125.491C180.029 125.491 178.839 127.142 178.139 127.231C177.44 127.32 181.937 141.062 172.991 137.644Z" fill="#CF6F80"/>
<path opacity="0.1" d="M157.057 347.268L156.911 347.427C151.091 340.46 144.053 349.143 144.053 349.143L143.949 348.961L144.308 345.015L155.347 342.176L156.911 346.908L157.057 347.268Z" fill="black"/>
<path opacity="0.1" d="M200.105 342.176C200.105 342.176 195.854 342.088 193.587 344.07C191.319 346.053 180.36 344.5 180.832 344.07C180.972 343.857 181.057 343.613 181.078 343.359L182.566 342.176L199.987 341.667C200.053 341.98 200.105 342.176 200.105 342.176Z" fill="black"/>
<path d="M164.299 287.464C163.982 288.239 163.742 289.042 163.581 289.863C163.187 292.11 163.077 294.397 163.255 296.671C163.43 299.944 163.255 321.878 163.255 321.878C163.255 321.878 159.518 327.728 157.435 329.79C155.352 331.852 161.687 335.555 161.687 335.555C162.631 340.886 156.906 346.908 156.906 346.908C151.086 339.941 144.048 348.629 144.048 348.629C144.048 348.629 140.222 342.083 139.267 339.745C138.313 337.407 143.004 335.789 144.653 334.84C146.301 333.891 144.572 328.294 144.572 328.294C144.572 328.294 143.179 323.389 141.525 318.914C139.872 314.439 143.349 292.163 143.349 292.163C143.349 292.163 143.528 288.207 143.958 286.828C144.175 285.833 144.218 284.808 144.086 283.798C144.057 283.457 144.024 283.171 144.001 282.98C143.977 282.788 143.958 282.699 143.958 282.699L144.024 282.587L146.386 278.229C146.386 278.229 165.433 284.719 164.299 287.464Z" fill="#1D2366"/>
<path d="M200.105 341.662C200.105 341.662 195.854 341.573 193.586 343.532C191.319 345.492 180.36 343.963 180.832 343.532C181.304 343.102 181.267 339.918 181.267 339.918C174.838 331.23 180.322 327.705 180.322 327.705C180.322 327.705 177.45 314.028 176.93 308.954C176.566 305.41 176.118 295.885 175.877 290.447C175.773 288.109 175.711 286.501 175.711 286.501L180.964 285.453L181.64 285.318L194.309 282.802C194.309 282.802 194.659 285.14 194.895 287.052C195.013 287.869 195.079 288.692 195.093 289.517C195.008 290.452 195.093 293.379 195.093 293.379L195.523 302.156C195.242 303.076 195.097 304.032 195.093 304.994C195.178 306.111 196.827 322.112 196.827 322.112C196.827 322.112 199.694 331.66 198.716 332.348C197.739 333.035 200.105 341.662 200.105 341.662Z" fill="#1D2366"/>
<path opacity="0.1" d="M179.07 112.862C178.74 113.694 178.688 115.139 178.778 116.757C176.17 118.311 173.172 119.106 170.129 119.049C167.086 118.993 164.12 118.088 161.573 116.439C161.433 114.141 161.154 111.853 160.737 109.589C160.737 109.589 180.204 110.014 179.07 112.862Z" fill="black"/>
<path d="M186.595 102.528C186.599 104.213 186.331 105.888 185.802 107.489C184.618 111.077 182.191 114.136 178.95 116.124C175.709 118.112 171.862 118.902 168.089 118.354C164.316 117.807 160.86 115.956 158.332 113.13C155.805 110.304 154.367 106.685 154.275 102.912C154.275 102.781 154.275 102.659 154.275 102.528C154.238 100.404 154.629 98.2942 155.425 96.3213C156.221 94.3485 157.405 92.5522 158.91 91.0374C160.414 89.5225 162.208 88.3193 164.188 87.498C166.167 86.6767 168.291 86.2537 170.437 86.2537C172.583 86.2537 174.708 86.6767 176.687 87.498C178.666 88.3193 180.46 89.5225 181.965 91.0374C183.469 92.5522 184.654 94.3485 185.45 96.3213C186.246 98.2942 186.637 100.404 186.6 102.528H186.595Z" fill="#CF6F80"/>
<path opacity="0.1" d="M172.991 137.644C166.755 135.245 158.734 127.32 160.737 123.616C161.182 122.682 161.446 121.673 161.516 120.642L170.052 127.586L175.334 131.874L179.349 121.755C179.689 123.878 180.029 125.496 180.029 125.496C180.029 125.496 178.839 127.147 178.139 127.235C177.44 127.324 181.937 141.062 172.991 137.644Z" fill="black"/>
<path d="M195.065 168.332L187.937 286.865L178.64 287.469L154.568 218.738L158.517 137.139L159.348 119.899L170.053 128.601L175.338 132.889L179.472 122.475L187.157 129.106L195.065 168.332Z" fill="#0097FF"/>
<path opacity="0.1" d="M164.299 287.464C163.982 288.239 163.742 289.042 163.581 289.863C156.816 288.829 150.247 286.797 144.09 283.835L143.963 283.77L144.005 283.017L144.029 282.624L146.391 278.266C146.391 278.266 165.433 284.719 164.299 287.464Z" fill="black"/>
<path opacity="0.1" d="M181.073 289.881C179.344 290.172 177.6 290.369 175.848 290.47C175.745 288.133 175.683 286.524 175.683 286.524L180.936 285.477L181.073 289.881Z" fill="black"/>
<path opacity="0.1" d="M194.867 287.076C191.508 287.941 186.321 288.913 181.678 288.306L181.612 285.341L194.281 282.825C194.281 282.825 194.631 285.14 194.867 287.076Z" fill="black"/>
<path opacity="0.1" d="M181.593 288.848C162.225 292.121 144.487 282.737 144.487 282.737L144.657 279.557C144.657 279.557 145.097 243.511 143.878 240.747C142.659 237.984 141.71 223.97 142.399 221.819C143.089 219.668 139.881 187.414 139.881 187.414L139.362 174.322L120.344 166.695L128.847 149.151C129.995 146.692 130.983 144.161 131.804 141.576C133.282 137.022 140.146 132.547 140.146 132.547C140.146 132.547 147.184 128.077 149.967 128.245C152.749 128.414 156.396 124.29 156.396 124.29C159.088 117.496 161.526 120.572 161.526 120.572C161.526 120.895 161.526 120.572 161.394 121.578C160.449 129.036 176.67 152.602 176.902 153.018L178.447 190.266L180.01 237.404L181.593 288.848Z" fill="black"/>
<path d="M181.073 288.848C161.706 292.121 143.963 282.737 143.963 282.737L144.138 279.557C144.138 279.557 144.577 243.511 143.354 240.747C142.13 237.984 141.185 223.97 141.88 221.819C142.574 219.668 139.362 187.414 139.362 187.414L138.838 174.322L119.81 166.667L128.313 149.123C129.459 146.662 130.447 144.132 131.27 141.548C132.744 136.994 139.612 132.519 139.612 132.519C139.612 132.519 146.651 128.049 149.428 128.217C152.206 128.386 155.857 124.262 155.857 124.262C158.555 117.468 161.526 120.544 161.526 120.544C161.526 120.867 161.243 121.012 161.394 121.55C163.472 128.783 176.151 152.574 176.382 152.99L177.946 190.238L179.51 237.376L181.073 288.848Z" fill="white"/>
<path opacity="0.1" d="M175.854 154.052C173.77 153.191 162.736 140.721 162.736 140.721V137.882C162.334 136.947 159.948 137.518 158.012 138.172L158.843 120.932L159.788 121.709C161.857 128.937 175.613 153.635 175.854 154.052Z" fill="black"/>
<path d="M176.378 153.018C174.29 152.158 163.255 139.687 163.255 139.687V136.849C162.854 135.914 160.468 136.484 158.531 137.139L159.367 119.899L160.312 120.675C162.386 127.904 176.146 152.607 176.378 153.018Z" fill="white"/>
<path opacity="0.1" d="M144.487 215.212C144.747 215.212 157.955 213.837 157.955 213.837C157.955 213.837 165.952 229.403 165.428 233.191C164.904 236.978 163.954 240.331 160.737 239.737C157.52 239.143 143.424 240.205 143.424 240.205L144.487 215.212Z" fill="black"/>
<path d="M143.963 214.179C144.223 214.179 157.43 212.804 157.43 212.804C157.43 212.804 165.423 228.375 164.903 232.158C164.384 235.94 163.425 239.298 160.213 238.704C157 238.11 142.9 239.171 142.9 239.171L143.963 214.179Z" fill="white"/>
<path d="M153.916 206.87C153.916 206.87 166.037 213.318 166.297 215.287C166.557 217.256 160.128 214.427 158.739 214.085C157.825 213.867 156.894 213.723 155.957 213.655L146.693 213.903L153.916 206.87Z" fill="#CF6F80"/>
<path opacity="0.1" d="M172.471 154.856C173.175 154.856 173.746 154.291 173.746 153.593C173.746 152.896 173.175 152.331 172.471 152.331C171.766 152.331 171.195 152.896 171.195 153.593C171.195 154.291 171.766 154.856 172.471 154.856Z" fill="black"/>
<path d="M172.471 154.342C173.175 154.342 173.746 153.776 173.746 153.079C173.746 152.382 173.175 151.817 172.471 151.817C171.766 151.817 171.195 152.382 171.195 153.079C171.195 153.776 171.766 154.342 172.471 154.342Z" fill="#3F3D56"/>
<path opacity="0.1" d="M174.819 209.508C175.523 209.508 176.094 208.942 176.094 208.245C176.094 207.548 175.523 206.983 174.819 206.983C174.114 206.983 173.543 207.548 173.543 208.245C173.543 208.942 174.114 209.508 174.819 209.508Z" fill="black"/>
<path d="M174.819 208.989C175.523 208.989 176.094 208.423 176.094 207.726C176.094 207.029 175.523 206.464 174.819 206.464C174.114 206.464 173.543 207.029 173.543 207.726C173.543 208.423 174.114 208.989 174.819 208.989Z" fill="#3F3D56"/>
<path opacity="0.1" d="M173.742 182.182C174.446 182.182 175.017 181.617 175.017 180.919C175.017 180.222 174.446 179.657 173.742 179.657C173.037 179.657 172.466 180.222 172.466 180.919C172.466 181.617 173.037 182.182 173.742 182.182Z" fill="black"/>
<path d="M173.742 181.667C174.446 181.667 175.017 181.102 175.017 180.405C175.017 179.708 174.446 179.142 173.742 179.142C173.037 179.142 172.466 179.708 172.466 180.405C172.466 181.102 173.037 181.667 173.742 181.667Z" fill="#3F3D56"/>
<path d="M203.143 213.393C203.143 213.393 204.012 214.684 203.143 215.287C202.274 215.89 203.228 217.349 203.228 217.349C203.228 217.349 201.06 218.607 202.014 219.738C202.968 220.87 202.363 225.981 202.363 225.981L199.756 230.254C199.756 230.254 199.912 233.009 199.921 236.731C199.921 242.538 199.576 250.702 197.668 254.424L197.932 284.962C197.932 284.962 188.801 288.263 181.158 287.258L180.024 238.255C180.024 238.255 181.678 210.466 182.287 205.136C182.644 202.368 182.789 199.578 182.722 196.789C182.722 196.789 182.462 188.447 181.588 184.576C181.588 184.576 180.643 167.803 180.549 163.16C180.506 160.939 180.624 154.458 180.757 148.296C180.903 141.558 181.068 135.203 181.068 135.203L179.344 121.699C179.344 121.699 181.068 121.526 181.588 122.214C181.821 122.429 182.074 122.621 182.344 122.789C185.32 124.781 195.835 130.906 195.835 130.906C195.835 130.906 201.655 133.197 203.048 136.48C204.442 139.762 205.41 142.091 206.086 143.026C206.761 143.961 207.13 148.356 207.13 148.356C207.13 148.356 209.133 156.446 210.696 157.816C212.26 159.186 213.403 167.902 213.403 167.902L199.586 178.656C199.586 178.656 198.372 196.546 198.112 197.238C197.852 197.93 203.143 213.393 203.143 213.393Z" fill="white"/>
<path d="M203.667 213.393C203.667 213.393 204.531 214.684 203.667 215.287C202.803 215.89 203.747 217.349 203.747 217.349C203.747 217.349 201.593 218.621 202.538 219.752C203.483 220.884 202.888 225.995 202.888 225.995L200.28 230.269C200.28 230.269 200.436 233.023 200.45 236.745C200.45 242.552 200.105 250.716 198.197 254.438L198.457 284.976C198.457 284.976 189.311 288.277 181.678 287.272L180.549 238.269C180.549 238.269 182.202 210.48 182.811 205.15C183.168 202.382 183.312 199.592 183.241 196.803C183.241 196.803 182.981 188.461 182.112 184.59C182.112 184.59 181.167 167.817 181.068 163.174C181.026 160.953 181.149 154.472 181.276 148.31C181.423 141.572 181.588 135.217 181.588 135.217L179.311 121.531C179.311 121.531 181.588 121.531 182.112 122.228C182.343 122.445 182.596 122.638 182.868 122.803C185.844 124.795 196.364 130.92 196.364 130.92C196.364 130.92 202.179 133.211 203.573 136.494C204.966 139.776 205.934 142.105 206.615 143.04C207.295 143.975 207.654 148.37 207.654 148.37C207.654 148.37 209.657 156.46 211.22 157.83C212.784 159.2 213.913 167.897 213.913 167.897L200.096 178.651C200.096 178.651 198.882 196.541 198.617 197.233C198.353 197.925 203.667 213.393 203.667 213.393Z" fill="white"/>
<path opacity="0.1" d="M187.12 139.187L188.367 142.787L181.801 149.334C181.947 142.6 182.112 136.241 182.112 136.241L179.835 122.555C179.835 122.555 182.112 122.555 182.637 123.252C182.867 123.469 183.12 123.66 183.392 123.822L188.976 139.767L187.12 139.187Z" fill="black"/>
<path d="M186.595 138.154L187.847 141.754L181.281 148.3C181.427 141.562 181.593 135.208 181.593 135.208L179.311 121.521C179.311 121.521 181.593 121.522 182.112 122.218C182.344 122.435 182.597 122.627 182.868 122.793L188.456 138.733L186.595 138.154Z" fill="white"/>
<path opacity="0.1" d="M186.595 102.528C186.599 104.213 186.331 105.888 185.802 107.489C185.712 107.503 185.621 107.499 185.534 107.477C185.446 107.456 185.364 107.417 185.291 107.363C185.169 103.155 183.076 99.2035 180.501 95.8416C179.779 94.8265 178.902 93.9276 177.903 93.1763C176.893 92.4254 175.637 92.0737 174.379 92.1897C172.962 92.3814 171.71 93.3353 170.279 93.4569C168.39 93.6112 166.698 92.316 164.823 92.2505C164.061 92.2577 163.309 92.4257 162.617 92.7434C161.925 93.0611 161.31 93.5211 160.813 94.0928C159.827 95.2465 159.095 96.5904 158.663 98.0392C157.921 100.236 157.516 102.531 157.463 104.847C157.44 106.157 157.312 107.798 156.084 108.275C156.177 107.312 156.066 106.34 155.759 105.422C155.453 104.504 154.957 103.658 154.303 102.94L154.275 102.912C154.275 102.781 154.275 102.659 154.275 102.528C154.238 100.404 154.629 98.2942 155.425 96.3213C156.221 94.3485 157.405 92.5522 158.91 91.0374C160.414 89.5225 162.208 88.3193 164.188 87.498C166.167 86.6767 168.291 86.2537 170.437 86.2537C172.583 86.2537 174.708 86.6767 176.687 87.498C178.666 88.3193 180.46 89.5225 181.965 91.0374C183.469 92.5522 184.654 94.3485 185.45 96.3213C186.246 98.2942 186.637 100.404 186.6 102.528H186.595Z" fill="black"/>
<path d="M177.129 77.124C174.674 75.981 171.882 75.7649 169.278 76.5161C167.969 76.8995 166.736 77.5214 165.409 77.8347C162.575 78.5127 159.268 77.7786 156.835 79.4198C155.484 80.355 154.672 81.8326 153.916 83.2681L152.026 86.8311C150.997 88.781 149.957 90.7635 149.528 92.9098C149.098 95.056 149.357 97.4594 150.732 99.1848C151.734 100.443 153.212 101.233 154.299 102.416C154.949 103.135 155.443 103.98 155.749 104.898C156.054 105.815 156.165 106.785 156.075 107.746C157.308 107.279 157.426 105.633 157.454 104.324C157.507 102.007 157.911 99.7124 158.654 97.5155C159.085 96.0663 159.817 94.7221 160.803 93.5691C161.301 92.9978 161.917 92.5381 162.608 92.2205C163.3 91.9028 164.052 91.7345 164.814 91.7268C166.703 91.7922 168.399 93.0828 170.27 92.9285C171.687 92.8116 172.943 91.853 174.37 91.666C175.628 91.5482 176.885 91.9001 177.894 92.6526C178.893 93.4027 179.768 94.3018 180.487 95.3178C183.067 98.6798 185.159 102.622 185.282 106.839C185.816 107.227 186.586 106.722 186.85 106.124C187.115 105.525 187.124 104.824 187.46 104.253C187.847 103.594 188.589 103.243 189.17 102.748C190.644 101.49 191.012 99.3718 190.955 97.45C190.899 95.5283 190.521 93.5784 190.889 91.6894C191.111 90.5297 191.612 89.4449 191.886 88.2993C192.16 87.1538 192.193 85.8679 191.546 84.8813C190.601 83.4318 188.612 83.1465 186.879 83.0109C184.909 82.8426 183.147 83.0577 181.89 81.4164C181.301 80.56 180.637 79.7558 179.906 79.013C179.656 78.7699 177.129 77.2269 177.129 77.124Z" fill="#512E4E"/>
<path opacity="0.1" d="M125.786 175.729L120.849 166.695L119.286 180.634C119.286 180.634 120.155 186.825 119.98 187.774C119.805 188.723 123.542 197.233 123.542 197.233C123.542 197.233 135.885 218.995 140.925 220.117L157.955 208.072L153.439 202.396C153.439 202.396 151.875 201.792 151.483 202.396C151.483 202.396 143.098 188.115 142.229 187.082C141.36 186.049 141.53 183.987 141.53 183.987C141.53 183.987 140.226 182.612 140.661 181.321C141.095 180.031 138.143 175.556 138.143 175.556L140.836 173.064L125.786 175.729Z" fill="black"/>
<path d="M121.109 165.667L119.805 166.695L118.242 180.634C118.242 180.634 119.111 186.825 118.936 187.774C118.761 188.723 122.503 197.233 122.503 197.233C122.503 197.233 134.841 218.995 139.881 220.117L156.916 208.072L152.395 202.396C152.395 202.396 150.831 201.792 150.439 202.396C150.439 202.396 142.054 188.115 141.185 187.082C140.316 186.049 140.491 183.987 140.491 183.987C140.491 183.987 139.187 182.612 139.622 181.321C140.056 180.031 137.099 175.556 137.099 175.556L139.792 173.064L121.109 165.667Z" fill="white"/>
<path opacity="0.1" d="M202.014 220.271C202.959 221.408 202.363 226.509 202.363 226.509L199.756 230.783C199.756 230.783 199.912 233.542 199.921 237.259L195.537 238.615C195.141 238.737 194.721 238.764 194.312 238.693C193.904 238.623 193.518 238.456 193.187 238.207C192.857 237.959 192.591 237.636 192.412 237.265C192.234 236.894 192.147 236.487 192.16 236.076L192.916 211.944L203.143 215.815C202.274 216.414 203.228 217.882 203.228 217.882C203.228 217.882 201.06 219.135 202.014 220.271Z" fill="black"/>
<path d="M202.538 219.752C203.483 220.889 202.888 225.995 202.888 225.995L200.28 230.269C200.28 230.269 200.436 233.023 200.45 236.745L195.986 238.124C195.598 238.243 195.187 238.269 194.787 238.199C194.387 238.13 194.009 237.966 193.686 237.723C193.362 237.48 193.102 237.163 192.927 236.8C192.752 236.437 192.667 236.038 192.679 235.636L193.44 211.429L203.672 215.301C202.798 215.9 203.752 217.363 203.752 217.363C203.752 217.363 201.593 218.621 202.538 219.752Z" fill="white"/>
<path d="M205.925 208.25C205.925 208.25 205.231 212.64 203.493 212.898C201.754 213.155 200.975 220 199.241 219.757C197.507 219.514 198.655 213.393 198.717 212.206C198.778 211.018 196.827 206.099 198.287 204.981C199.747 203.864 204.366 204.981 204.366 204.981L205.925 208.25Z" fill="#CF6F80"/>
<path opacity="0.1" d="M209.624 174.438L212.902 167.892C212.902 167.892 214.206 172.881 214.206 175.547C214.206 178.212 216.029 178.474 216.029 178.474C216.029 178.474 218.028 180.812 216.974 182.514C215.921 184.216 215.496 188.452 215.496 188.452C215.496 188.452 215.84 196.537 214.277 197.654C212.713 198.772 212.387 201.442 212.387 201.442C212.387 201.442 209.515 206.515 209.605 207.721C209.695 208.928 205.609 217.097 205.609 217.097C205.609 217.097 207.607 206.945 195.963 202.559C195.963 202.559 195.873 199.113 196.742 198.169C197.611 197.224 198.967 196.794 198.117 192.02C197.266 187.246 197.871 181.541 197.871 180.396C197.871 179.25 200.479 172.105 200.479 172.105L209.624 174.438Z" fill="black"/>
<path d="M211.041 166.957L213.904 167.892C213.904 167.892 215.212 172.881 215.212 175.547C215.212 178.212 217.036 178.474 217.036 178.474C217.036 178.474 219.034 180.812 217.98 182.514C216.927 184.216 216.507 188.452 216.507 188.452C216.507 188.452 216.851 196.537 215.288 197.654C213.724 198.772 213.375 201.442 213.375 201.442C213.375 201.442 210.507 206.515 210.597 207.721C210.687 208.928 206.596 217.097 206.596 217.097C206.596 217.097 208.599 206.945 196.95 202.559C196.95 202.559 196.865 199.113 197.734 198.169C198.603 197.224 199.959 196.794 199.109 192.02C198.259 187.246 198.863 181.541 198.863 180.396C198.863 179.25 201.471 172.105 201.471 172.105L211.041 166.957Z" fill="white"/>
<path opacity="0.1" d="M147.812 336.631C147.812 336.631 152.376 333.793 155.371 335.855C158.365 337.917 147.812 336.631 147.812 336.631Z" fill="black"/>
<path opacity="0.1" d="M183.27 327.854C183.27 327.854 187.308 327.34 190.7 330.954C194.092 334.569 183.27 327.854 183.27 327.854Z" fill="black"/>
<g opacity="0.1">
<path opacity="0.1" d="M189.179 101.724C188.598 102.219 187.852 102.575 187.465 103.234C187.134 103.8 187.124 104.497 186.86 105.104C186.595 105.712 185.825 106.208 185.292 105.825C185.169 101.616 183.071 97.6651 180.497 94.2985C179.777 93.2825 178.902 92.3833 177.904 91.6332C176.893 90.8808 175.634 90.529 174.375 90.6466C172.958 90.8383 171.711 91.7922 170.279 91.9091C168.39 92.0681 166.694 90.7729 164.819 90.7074C164.057 90.7149 163.305 90.8836 162.614 91.2022C161.923 91.5207 161.309 91.9817 160.813 92.5544C159.827 93.7057 159.095 95.0483 158.664 96.4962C157.921 98.6932 157.517 100.988 157.464 103.304C157.435 104.609 157.312 106.236 156.094 106.722C156.122 107.068 156.122 107.415 156.094 107.76C157.322 107.293 157.445 105.647 157.473 104.338C157.526 102.022 157.93 99.7265 158.673 97.5295C159.104 96.0803 159.836 94.7361 160.822 93.5831C161.319 93.012 161.934 92.5523 162.625 92.2346C163.315 91.917 164.067 91.7486 164.828 91.7408C166.718 91.8062 168.418 93.0968 170.289 92.9425C171.706 92.8256 172.962 91.867 174.384 91.68C175.644 91.5624 176.902 91.9142 177.913 92.6666C178.912 93.4167 179.787 94.3159 180.506 95.3319C183.081 98.6938 185.178 102.636 185.301 106.853C185.835 107.241 186.605 106.736 186.869 106.138C187.134 105.539 187.143 104.838 187.474 104.267C187.861 103.608 188.608 103.257 189.189 102.762C190.663 101.504 191.031 99.3859 190.974 97.4641C190.974 97.4033 190.974 97.3425 190.974 97.2864C190.885 98.951 190.436 100.648 189.179 101.724Z" fill="black"/>
<path opacity="0.1" d="M154.308 101.392C153.222 100.209 151.738 99.4186 150.742 98.1655C149.902 97.0561 149.423 95.7207 149.367 94.3359C149.218 96.0664 149.707 97.7918 150.742 99.1941C151.738 100.452 153.222 101.242 154.308 102.425C155.351 103.582 155.978 105.049 156.089 106.596C156.161 105.655 156.041 104.708 155.735 103.814C155.429 102.92 154.944 102.096 154.308 101.392Z" fill="black"/>
<path opacity="0.1" d="M191.895 87.2753C191.616 88.4209 191.12 89.5104 190.894 90.6653C190.759 91.4371 190.71 92.221 190.747 93.0033C190.763 92.5577 190.812 92.1138 190.894 91.6753C191.12 90.5157 191.616 89.4309 191.895 88.2853C192.058 87.6535 192.11 86.9989 192.051 86.3495C192.022 86.6614 191.97 86.9709 191.895 87.2753Z" fill="black"/>
</g>
<path opacity="0.1" d="M62.6992 355.643C88.1202 355.643 108.728 352.367 108.728 348.325C108.728 344.284 88.1202 341.007 62.6992 341.007C37.2782 341.007 16.6704 344.284 16.6704 348.325C16.6704 352.367 37.2782 355.643 62.6992 355.643Z" fill="#0097FF"/>
<path d="M64.1825 208.142H61.2207V274.152H64.1825V208.142Z" fill="#535461"/>
<path d="M82.7941 273.951L82.6099 276.924L82.3454 281.133L82.2367 282.882L81.9769 287.09L81.8636 288.839L81.599 293.047L78.6136 340.774C78.4838 342.827 77.5684 344.754 76.0537 346.163C74.539 347.572 72.5389 348.357 70.4603 348.358H54.9378C52.8598 348.357 50.8601 347.572 49.3462 346.163C47.8323 344.754 46.9179 342.827 46.7893 340.774L43.818 293.014L43.5535 288.806L43.4448 287.057L43.1803 282.849L43.0716 281.1L42.8071 276.892L42.6182 273.918C42.5853 273.345 42.671 272.773 42.8699 272.234C43.0688 271.696 43.3768 271.203 43.7749 270.787C44.173 270.37 44.6528 270.039 45.185 269.813C45.7172 269.586 46.2904 269.47 46.8696 269.471H78.6183C79.1953 269.476 79.7651 269.598 80.2927 269.829C80.8202 270.061 81.2943 270.397 81.6856 270.816C82.0768 271.236 82.3771 271.731 82.5678 272.27C82.7584 272.809 82.8355 273.381 82.7941 273.951Z" fill="#3F3D56"/>
<path d="M82.6098 276.924L82.3453 281.119H43.0526L42.7881 276.924H82.6098Z" fill="#9D9CB5"/>
<path d="M82.237 282.867L81.9772 287.066H43.4262L43.1616 282.867H82.237Z" fill="#9D9CB5"/>
<path d="M81.8637 288.82L81.6039 293.014H43.7992L43.5347 288.82H81.8637Z" fill="#9D9CB5"/>
<path d="M38.2679 232.882C55.5145 245.236 62.7136 264.557 62.7136 264.557C62.7136 264.557 41.9288 263.851 24.6775 251.497C7.42613 239.143 0.241211 219.827 0.241211 219.827C0.241211 219.827 21.0165 220.529 38.2679 232.882Z" fill="#7AC9FF"/>
<path d="M0.226562 219.827C0.226562 219.827 21.8049 231.681 28.7253 241.495C35.6457 251.31 62.7131 264.557 62.7131 264.557" stroke="#535461" stroke-width="2" stroke-miterlimit="10"/>
<path d="M49.4019 207.997C58.7881 214.717 62.7136 225.233 62.7136 225.233C62.7136 225.233 51.4001 224.849 42.0091 218.13C32.6182 211.411 28.7021 200.89 28.7021 200.89C28.7021 200.89 40.011 201.273 49.4019 207.997Z" fill="#7AC9FF"/>
<path d="M28.7021 200.89C28.7021 200.89 40.4455 207.343 44.2104 212.682C47.9753 218.022 62.7136 225.233 62.7136 225.233" stroke="#535461" stroke-width="2" stroke-miterlimit="10"/>
<path d="M76.3415 224.699C65.557 236.431 63.2754 251.764 63.2754 251.764C63.2754 251.764 78.4813 248.07 89.2563 236.333C100.031 224.597 102.322 209.269 102.322 209.269C102.322 209.269 87.1259 212.968 76.3415 224.699Z" fill="#7AC9FF"/>
<path d="M102.332 209.274C102.332 209.274 88.2832 221.3 84.712 229.586C81.1408 237.871 63.2754 251.764 63.2754 251.764" stroke="#535461" stroke-width="2" stroke-miterlimit="10"/>
<path d="M472.225 220.571C472.225 220.571 464.426 182.163 467.412 177.384C467.412 177.384 467.52 172.942 467.341 167.28C467.341 167.065 467.341 166.849 467.341 166.63C467.866 166.976 468.414 167.289 468.98 167.565C471.731 168.964 474.889 169.367 477.908 168.706L475.546 166.101C474.979 165.479 474.389 164.806 474.266 163.983C474.143 163.16 474.483 162.426 474.776 161.692C477.02 156.081 477.138 149.025 472.816 144.742C469.164 141.141 468.276 136.494 464.313 133.207C461.417 130.798 459.825 127.268 458.323 123.855C457.052 120.97 455.772 118.061 455.045 115.003C454.478 112.614 454.251 110.14 453.472 107.807C452.692 105.474 451.233 103.206 448.951 102.163C448.139 101.794 447.236 101.584 446.495 101.093C445.522 100.443 444.936 99.3859 444.232 98.4601C440.656 93.7842 428.681 96.5383 423.013 98.4367C421.472 98.9147 420.045 99.6974 418.818 100.737L418.87 100.653C418.912 100.583 418.964 100.513 419.012 100.443C418.391 100.939 417.855 101.531 417.424 102.196C416.598 103.491 416.253 105.002 415.563 106.404C414.732 108.064 410.107 112.698 412.096 114.564C412.235 114.689 412.395 114.79 412.568 114.863C413.315 115.171 414.137 115.252 414.93 115.097L414.845 115.298C414.166 116.944 413.818 118.705 413.82 120.483C413.82 128.166 420.221 134.394 428.124 134.394C429.61 134.396 431.087 134.17 432.503 133.726C432.536 133.903 432.564 134.081 432.597 134.259C432.597 134.329 432.621 134.399 432.63 134.469L432.38 134.815C432.367 134.794 432.353 134.773 432.337 134.754L424.921 145.013C423.787 145.803 417.259 150.479 416.891 153.986C416.503 157.825 416.116 162.319 416.116 162.319L416.064 163.282C415.74 163.55 415.361 163.745 414.953 163.854C414.545 163.963 414.118 163.983 413.702 163.913C411.387 163.539 411.387 172.33 411.387 172.33C411.387 172.33 409.847 173.732 408.789 172.517C407.731 171.301 404.935 175.42 404.935 175.42L387.409 176.169L387.008 176.192L386.063 173.298C385.961 172.992 385.742 172.739 385.453 172.593C385.164 172.447 384.828 172.419 384.518 172.517C384.445 172.541 384.374 172.57 384.306 172.606L384.24 172.643L384.117 172.727L384.055 172.783C384.022 172.814 383.99 172.846 383.961 172.881L383.904 172.947L383.876 172.975C383.767 173.124 383.695 173.297 383.665 173.479C383.636 173.66 383.649 173.847 383.706 174.022L384.518 176.505C381.136 177.179 377.678 179.077 380.498 184.305L366.204 181.691L370.829 185.534L394.703 190.411C394.386 190.972 394.594 191.786 395.581 192.932C399.833 197.874 407.58 199.216 410.698 199.562C411.521 201.385 412.549 203.11 413.763 204.705L413.494 209.629C413.494 209.629 405.601 247.158 404.155 249.061C404.885 248.242 405.553 247.372 406.153 246.456C403.862 254.167 400.66 264.72 399.819 266.301C398.468 268.826 397.216 279.043 398.756 279.697C399.228 279.898 400.579 279.8 402.507 279.655V280.502L402.422 312.573C402.422 312.573 402.809 332.245 401.746 334.12C400.683 335.995 400.4 339.927 400.4 339.927C400.4 339.927 396.148 347.685 392.78 350.803C392.757 350.828 392.732 350.85 392.705 350.869L392.601 350.139C392.601 350.139 388.552 355.199 379.596 354.913C379.596 354.913 374.206 358.383 382.199 358.57C390.192 358.757 400.4 358.289 400.4 358.289C400.4 358.289 407.528 347.535 413.499 348.938V357.088H415.327V348.807C416.175 348.254 416.9 347.537 417.46 346.699C418.019 345.861 418.401 344.919 418.582 343.93C418.738 342.911 418.624 341.869 418.249 340.907C417.875 339.945 417.253 339.097 416.447 338.445C416.084 338.121 415.793 337.726 415.592 337.285C415.392 336.844 415.285 336.366 415.28 335.883L415.214 335.939C415.214 335.775 415.171 335.607 415.152 335.434C414.628 331.225 413.971 322.542 416.291 316.118C419.47 307.308 420.433 295.039 418.119 287.735C417.372 285.4 416.758 283.026 416.281 280.623C416.225 280.319 416.173 280.029 416.125 279.758C417.708 279.97 419.274 280.282 420.816 280.693C426.178 282.157 437.907 282.428 447.921 282.348C447.945 282.62 447.973 282.905 448.006 283.19C448.185 285.173 448.558 287.133 449.121 289.044C450.378 292.785 450.954 309.277 450.954 309.277C450.954 309.277 452.574 322.837 451.691 328.354C451.219 331.422 450.746 334.503 450.477 337.599V337.66C450.477 337.66 447.822 345.141 445.881 349.204C445.833 349.307 445.781 349.41 445.734 349.508C445.217 349.555 444.707 349.666 444.218 349.84C444.218 349.84 441.615 354.984 439.022 355.835C436.428 356.686 437.288 359.487 443.16 358.458C449.031 357.429 457.898 356.587 457.898 356.587L458.281 351.341L460.085 349.106L459.613 354.338L461.535 353.964L461.28 347.6L464.233 343.944C464.233 343.944 467.799 340.802 462.499 334.62V334.756C462.442 334.667 462.39 334.573 462.329 334.485V334.456C461.45 333.11 460.751 330.599 462.031 326.143C464.346 318.091 465.692 310.783 465.692 310.783C465.692 310.783 470.86 291.205 464.648 281.942H464.922C464.286 280.638 463.836 279.253 463.585 277.827C463.554 277.659 463.526 277.486 463.5 277.308C468.097 277.046 472.608 276.223 476.288 274.446C476.274 274.428 474.058 227.968 472.225 220.571ZM413.872 188.167V188.26L412.927 188.307L413.872 188.167ZM410.632 188.611C410.476 188.645 410.331 188.714 410.206 188.812C409.8 189.381 409.545 190.042 409.465 190.734L407.991 190.407C407.991 190.407 406.956 190.187 405.468 189.939L404.765 189.238C406.701 189.079 408.714 188.845 410.632 188.611Z" fill="url(#paint1_linear)"/>
<path d="M459.395 347.666L458.833 354.292L460.718 353.918L460.434 346.731L459.395 347.666Z" fill="#1D2366"/>
<path d="M416.395 316.207C414.122 322.613 414.765 331.258 415.275 335.457C415.464 337.01 415.639 337.954 415.639 337.954C415.639 337.954 412.242 345.613 411.959 345.903C411.675 346.193 401.963 352.061 401.963 352.061L395.175 355.984C395.175 355.984 388.288 352.996 391.59 351.968C392.264 351.7 392.872 351.29 393.371 350.766C396.677 347.657 400.83 339.927 400.83 339.927C400.83 339.927 401.113 336.004 402.152 334.139C403.191 332.273 402.814 312.667 402.814 312.667L402.894 280.707V276.541L415.813 276.635C415.895 278.049 416.081 279.455 416.371 280.843C416.835 283.238 417.436 285.604 418.171 287.931C420.448 295.221 419.503 307.43 416.395 316.207Z" fill="#FFB0B1"/>
<path opacity="0.1" d="M415.639 337.954C415.639 337.954 412.242 345.613 411.959 345.903C411.675 346.193 401.963 352.061 401.963 352.061L395.175 355.984C395.175 355.984 388.288 352.996 391.59 351.968C392.264 351.7 392.872 351.29 393.371 350.766L393.664 352.809L395.926 352.716L415.294 335.466C415.464 337.01 415.639 337.954 415.639 337.954Z" fill="black"/>
<path d="M415.402 335.901L395.926 353.268L393.663 353.361L393.191 350.088C393.191 350.088 389.232 355.129 380.437 354.848C380.437 354.848 375.155 358.304 382.983 358.491C390.81 358.678 400.806 358.21 400.806 358.21C400.806 358.21 407.787 347.455 413.631 348.858V356.98H415.426V348.783C416.26 348.227 416.973 347.51 417.52 346.674C418.067 345.838 418.438 344.902 418.61 343.921C418.765 342.91 418.655 341.876 418.29 340.92C417.925 339.963 417.318 339.116 416.527 338.459C416.173 338.131 415.891 337.735 415.698 337.295C415.504 336.855 415.404 336.381 415.402 335.901Z" fill="#1D2366"/>
<path d="M461.19 326.194C459.934 330.636 460.619 333.138 461.478 334.48V334.508C462.581 336.165 463.348 338.018 463.736 339.965L463.812 340.386L454.95 353.174L450.141 355.044C450.141 355.044 442.408 352.431 443.821 351.682C444.175 351.5 444.728 350.528 445.361 349.186C447.25 345.141 449.858 337.678 449.858 337.678V337.617C450.132 334.536 450.566 331.464 451.048 328.406C451.913 322.902 450.325 309.394 450.325 309.394C450.325 309.394 449.759 292.967 448.53 289.231C447.976 287.332 447.607 285.384 447.43 283.415C447.175 281.077 447.118 279.15 447.118 279.15C447.118 279.15 452.21 272.136 461.544 279.711C462.291 280.315 462.948 281.021 463.495 281.806C469.943 290.887 464.752 310.89 464.752 310.89C464.752 310.89 463.453 318.166 461.19 326.194Z" fill="#FFB0B1"/>
<path opacity="0.1" d="M463.826 340.386L454.964 353.174L450.155 355.044C450.155 355.044 442.423 352.431 443.835 351.682C444.189 351.5 444.742 350.528 445.375 349.186C448.649 349.157 450.344 352.244 450.344 352.244L454.492 351.589C454.492 351.589 459.962 340.947 461.19 340.297C462.418 339.647 461.379 335.438 461.379 335.438V334.368C461.412 334.405 461.441 334.447 461.478 334.485V334.513C462.581 336.17 463.348 338.023 463.736 339.969L463.826 340.386Z" fill="black"/>
<path d="M450.628 352.519C450.628 352.519 448.266 348.227 443.741 349.812C443.741 349.812 441.194 354.956 438.648 355.788C436.102 356.62 436.952 359.426 442.706 358.402C448.46 357.378 457.133 356.531 457.133 356.531L457.511 351.299L463.359 343.925C463.359 343.925 466.845 340.797 461.658 334.639V335.71C461.658 335.71 462.697 339.918 461.469 340.568C460.241 341.218 454.79 351.865 454.79 351.865L450.628 352.519Z" fill="#1D2366"/>
<path opacity="0.1" d="M415.828 276.625C415.909 278.04 416.096 279.446 416.385 280.833C411.066 280.062 406.13 280.445 402.894 280.698V276.532L415.828 276.625Z" fill="black"/>
<path opacity="0.1" d="M464.02 282.97C464.02 282.97 456.462 283.335 447.449 283.41C447.194 281.072 447.137 279.145 447.137 279.145C447.137 279.145 452.229 272.132 461.564 279.707C462.31 280.311 462.967 281.016 463.515 281.801C463.661 282.2 463.83 282.59 464.02 282.97Z" fill="black"/>
<path d="M464.02 282.129C464.02 282.129 430.915 283.714 420.825 280.913C410.735 278.112 400.735 280.539 399.228 279.889C397.721 279.239 398.945 269.06 400.267 266.539C401.59 264.019 408.846 238.531 408.846 238.531L415.828 202.498L423.183 200.492L423.702 200.348L436.518 196.85L445.909 194.283C445.909 194.283 464.582 266.446 462.981 271.767C462.399 273.805 462.305 275.948 462.707 278.028C462.951 279.448 463.393 280.828 464.02 282.129Z" fill="#1D2366"/>
<path d="M391.491 177.857C391.491 177.857 384.877 184.87 389.885 188.779C394.892 192.688 398.184 189.153 398.184 189.153L391.491 177.857Z" fill="#C7DAF5"/>
<path opacity="0.1" d="M391.491 177.857C391.491 177.857 384.877 184.87 389.885 188.779C394.892 192.688 398.184 189.153 398.184 189.153L391.491 177.857Z" fill="black"/>
<path d="M444.922 131.743C444.922 131.743 444.147 132.472 442.98 133.548C441.317 135.086 438.856 137.335 436.674 139.22C433.651 141.824 431.157 143.737 432.049 142.105C432.942 140.473 432.772 137.63 432.328 134.969C432.295 134.792 432.267 134.614 432.234 134.441C431.866 132.487 431.378 130.557 430.774 128.662C430.774 128.662 435.658 122.415 438.36 119.95C439.367 119.015 440.07 118.632 440.113 119.282C440.16 120.156 440.821 122.087 441.643 124.135C441.667 124.201 441.691 124.262 441.719 124.327C442.267 125.73 442.886 127.17 443.429 128.414C444.26 130.322 444.922 131.743 444.922 131.743Z" fill="#FFB0B1"/>
<path opacity="0.1" d="M441.719 124.327C441.26 126.771 440.146 129.048 438.494 130.92C436.842 132.792 434.713 134.19 432.328 134.969C431.952 132.835 431.433 130.728 430.774 128.662C430.774 128.662 439.971 116.902 440.113 119.282C440.146 120.184 440.864 122.185 441.719 124.327Z" fill="black"/>
<path opacity="0.1" d="M431.412 138.112L432.602 136.452C432.602 136.452 433.391 141.212 436.291 139.112C439.192 137.013 439.333 154.912 439.333 154.912L436.22 200.983L413.726 199.651L414.363 177.389L416.909 166.167L423.206 149.853L426.952 144.461L431.412 138.112Z" fill="black"/>
<path d="M439.333 155.197L436.499 196.855L436.201 201.269L423.66 200.525L423.187 200.497L413.74 199.936L414.377 177.669L416.924 166.447L423.22 150.133L426.966 144.742L431.426 138.369L432.616 136.713C432.616 136.713 433.405 141.473 436.305 139.374L436.367 139.332C439.201 137.555 439.333 155.197 439.333 155.197Z" fill="#1D2366"/>
<path d="M417.24 162.548C417.24 162.548 416.111 164.886 413.844 164.507C411.576 164.128 411.581 172.923 411.581 172.923C411.581 172.923 410.074 174.326 409.035 173.111C407.996 171.895 405.256 176.005 405.256 176.005L388.089 176.753C388.089 176.753 395.728 180.209 394.23 190.664C394.23 190.664 420.164 189.074 421.014 186.647C421.865 184.22 417.24 162.548 417.24 162.548Z" fill="white"/>
<path opacity="0.03" d="M417.24 162.548C417.24 162.548 416.111 164.886 413.844 164.507C411.576 164.128 411.581 172.923 411.581 172.923C411.581 172.923 410.074 174.326 409.035 173.111C407.996 171.895 405.256 176.005 405.256 176.005L388.089 176.753C388.089 176.753 395.728 180.209 394.23 190.664C394.23 190.664 420.164 189.074 421.014 186.647C421.865 184.22 417.24 162.548 417.24 162.548Z" fill="black"/>
<path d="M367.352 182.247L371.877 186.072L409.129 193.82L404.509 189.153L367.352 182.247Z" fill="white"/>
<path d="M431.482 139.584C430.864 140.52 429.092 145.308 427.614 149.488C426.381 152.971 425.351 156.034 425.351 156.034C425.351 156.034 422.946 171.53 421.718 174.331C420.49 177.132 421.156 188.055 421.156 188.055L416.579 215.03C416.579 215.03 414.505 228.941 411.302 237.25C408.142 245.428 404.623 249.262 404.514 249.383C405.931 247.485 413.655 210.106 413.655 210.106L416.206 162.964C416.206 162.964 416.579 158.484 416.957 154.655C417.335 150.825 424.987 145.598 424.987 145.598L432.366 135.212C433.107 136.194 432.611 137.906 431.482 139.584Z" fill="white"/>
<path d="M412.242 200.17C412.242 200.17 401.378 199.702 396.115 193.446C390.853 187.19 408.279 190.949 408.279 190.949L412.809 191.978L412.242 200.17Z" fill="#FFB0B1"/>
<path opacity="0.1" d="M462.981 271.772C462.399 273.809 462.305 275.953 462.707 278.033C450.855 278.865 438.176 275.695 438.176 275.695C435.814 277.846 429.593 281.016 429.593 281.016L426.201 239.4C424.033 233.789 423.183 204.392 423.183 204.392C423.183 204.392 423.376 202.854 423.655 200.549C423.655 200.492 423.655 200.432 423.679 200.376C424.524 193.937 426.201 181.85 427.023 180.218C428.157 177.973 423.537 172.002 423.537 172.002L425.639 154.257L425.894 152.116C430.325 150.157 433.721 143.9 433.721 143.9L436.329 139.379C439.163 137.578 439.31 155.221 439.31 155.221L436.475 196.878L445.866 194.311C445.866 194.311 464.582 266.45 462.981 271.772Z" fill="black"/>
<path d="M475.145 274.647C462.225 280.997 438.743 275.115 438.743 275.115C436.381 277.266 430.16 280.436 430.16 280.436L426.763 238.821C424.6 233.21 423.75 203.812 423.75 203.812C423.75 203.812 426.48 181.878 427.614 179.638C427.944 178.983 427.784 178.011 427.392 176.963C425.464 171.978 424.755 166.612 425.323 161.304L426.23 153.678L426.48 151.541C430.916 149.577 434.312 143.32 434.312 143.32L436.674 139.224L441.02 131.678L443.079 128.105L443.429 128.418L446.098 130.812C446.098 130.812 447.232 131.748 448.932 133.15C452.631 136.237 459.022 141.67 462.319 144.994C465.22 147.922 466.136 159.307 466.401 167.878C466.576 173.522 466.472 177.945 466.472 177.945C463.548 182.71 471.196 220.963 471.196 220.963C472.976 228.356 475.145 274.647 475.145 274.647Z" fill="white"/>
<path opacity="0.03" d="M450.345 143.227C450.345 143.227 441.478 159.934 442.508 166.284C443.538 172.634 446.466 179.82 445.054 181.499C444.569 182.135 443.941 182.651 443.221 183.007C442.501 183.363 441.707 183.55 440.902 183.552C439.485 183.645 435.706 186.259 435.706 186.54C435.706 186.82 432.215 186.82 429.092 188.129C425.97 189.439 421.359 190.182 421.359 190.182C421.359 190.182 412.384 189.902 411.548 190.743C410.712 191.585 409.852 196.621 411.642 200.637C413.433 204.654 415.422 207.651 416.924 208.198C418.426 208.745 427.959 205.585 435.691 204.836C443.424 204.088 451.818 198.024 451.818 198.024C451.818 198.024 461.063 194.75 462.683 189.247C464.303 183.743 460.704 153.495 460.704 153.495C460.704 153.495 457.983 139.397 450.345 143.227Z" fill="black"/>
<path opacity="0.03" d="M449.211 141.824C449.211 141.824 440.344 158.536 441.383 164.881C442.423 171.226 445.342 178.418 443.925 180.101C443.441 180.738 442.815 181.254 442.095 181.611C441.376 181.967 440.582 182.153 439.777 182.154C438.36 182.247 434.581 184.861 434.581 185.142C434.581 185.422 431.09 185.422 427.968 186.727C424.845 188.031 420.235 188.779 420.235 188.779C420.235 188.779 411.26 188.499 410.428 189.34C409.597 190.182 408.728 195.223 410.523 199.235C412.318 203.247 414.302 206.248 415.804 206.796C417.306 207.343 426.839 204.182 434.572 203.438C442.305 202.695 450.699 196.621 450.699 196.621C450.699 196.621 459.939 193.348 461.54 187.849C463.141 182.35 459.561 152.092 459.561 152.092C459.561 152.092 456.849 137.999 449.211 141.824Z" fill="black"/>
<path d="M450.066 142.385C450.066 142.385 441.2 159.097 442.239 165.442C443.278 171.787 446.197 178.979 444.785 180.657C444.301 181.296 443.675 181.814 442.954 182.171C442.233 182.528 441.439 182.714 440.633 182.715C439.216 182.808 435.437 185.422 435.437 185.698C435.437 185.974 431.95 185.979 428.823 187.288C425.696 188.597 421.09 189.34 421.09 189.34C421.09 189.34 412.115 189.06 411.279 189.902C410.443 190.743 409.583 195.784 411.373 199.796C413.164 203.808 415.152 206.81 416.655 207.357C418.157 207.904 427.689 204.743 435.422 203.995C443.155 203.247 451.549 197.182 451.549 197.182C451.549 197.182 460.794 193.909 462.414 188.405C464.034 182.902 460.459 152.654 460.459 152.654C460.459 152.654 457.7 138.579 450.066 142.385Z" fill="white"/>
<path opacity="0.1" d="M449.872 187.208C449.872 187.208 442.786 185.806 445.252 188.143C447.718 190.481 447.704 192.529 450.722 192.436C453.741 192.342 449.872 187.208 449.872 187.208Z" fill="black"/>
<path opacity="0.1" d="M461.847 237.511C461.847 237.511 458.644 239.658 464.771 244.605C470.898 249.552 461.847 237.511 461.847 237.511Z" fill="black"/>
<path opacity="0.1" d="M455.734 255.154C455.734 255.434 454.601 265.44 458.842 267.942C463.084 270.444 455.734 255.154 455.734 255.154Z" fill="black"/>
<path d="M388.382 176.73C384.962 176.847 377.574 177.88 381.405 184.955C384.792 191.216 390.484 187.031 393.687 183.856C392.906 180.896 391.007 178.345 388.382 176.73Z" fill="#FFB0B1"/>
<path d="M393.729 183.8L393.87 183.655L393.729 183.8Z" fill="#FFB0B1"/>
<path opacity="0.1" d="M448.932 133.436C445.304 135.89 442.262 137.962 441.667 138.392C440.042 139.584 436.943 146.584 434.945 150.157C433.353 153.032 428.18 153.771 426.229 153.953L426.48 151.817C430.916 149.853 434.312 143.596 434.312 143.596L443.079 128.381L446.098 131.098C446.098 131.098 447.232 132.033 448.932 133.436Z" fill="black"/>
<path d="M448.932 133.155C445.304 135.61 442.262 137.681 441.667 138.116C440.042 139.304 436.943 146.304 434.945 149.876C433.353 152.752 428.18 153.491 426.229 153.673L426.48 151.536C430.916 149.572 434.312 143.316 434.312 143.316L443.079 128.1L446.098 130.808C446.098 130.808 447.232 131.734 448.932 133.155Z" fill="#DCE7FF"/>
<path d="M441.95 121.241C441.952 124.048 441.092 126.789 439.485 129.101C437.586 131.835 434.76 133.804 431.519 134.652C428.279 135.499 424.839 135.169 421.824 133.721C418.808 132.273 416.417 129.803 415.084 126.759C413.751 123.715 413.565 120.299 414.559 117.13C415.553 113.962 417.661 111.251 420.502 109.49C423.342 107.729 426.726 107.034 430.04 107.531C433.353 108.029 436.377 109.685 438.562 112.201C440.748 114.716 441.95 117.923 441.95 121.241Z" fill="#FFB0B1"/>
<path opacity="0.1" d="M466.401 167.883C464.482 166.715 462.92 165.054 461.88 163.076C461.091 161.533 460.567 159.751 459.221 158.657C458.007 157.675 456.386 157.437 454.875 156.997C449.905 155.543 445.739 151.054 445.583 145.93C445.507 143.517 446.268 141.109 445.923 138.719C445.727 137.367 445.184 136.087 444.345 135.002C443.929 134.483 443.473 133.997 442.98 133.548C442.319 132.931 441.624 132.332 441.02 131.677C440.639 131.272 440.306 130.825 440.028 130.345C439.803 129.952 439.621 129.537 439.485 129.106C438.54 126.244 439.399 122.849 438.36 119.955L438.304 119.796C437.911 118.767 437.113 117.739 436.003 117.659C434.893 117.58 433.943 118.492 432.885 118.898C430.67 119.749 428.28 118.3 426.433 116.822C424.586 115.345 422.502 113.657 420.155 113.984C418.601 114.204 417.372 115.251 415.941 115.794C415.618 115.917 415.284 116.013 414.944 116.079C416.156 113.089 418.381 110.609 421.239 109.067C424.096 107.524 427.407 107.015 430.602 107.627C433.798 108.238 436.678 109.932 438.749 112.417C440.82 114.902 441.952 118.024 441.95 121.246C441.952 122.218 441.849 123.189 441.643 124.14C441.667 124.205 441.691 124.266 441.719 124.332C442.267 125.734 442.886 127.175 443.429 128.418L446.098 130.812C446.098 130.812 447.232 131.748 448.932 133.15C452.631 136.236 459.022 141.67 462.319 144.994C465.22 147.931 466.127 159.312 466.401 167.883Z" fill="black"/>
<path d="M415.776 107.251C416.451 105.89 416.787 104.366 417.594 103.075C418.78 101.205 420.849 100.008 422.975 99.283C428.525 97.3893 440.254 94.6398 443.759 99.283C444.449 100.218 445.021 101.256 445.975 101.901C446.702 102.392 447.581 102.603 448.379 102.972C450.614 104.01 452.04 106.273 452.801 108.583C453.561 110.893 453.788 113.371 454.346 115.751C455.059 118.805 456.311 121.699 457.558 124.575C459.027 127.97 460.586 131.49 463.42 133.889C467.289 137.162 468.144 141.796 471.734 145.387C475.985 149.652 475.848 156.689 473.656 162.276C473.368 163.011 473.042 163.777 473.156 164.558C473.269 165.339 473.855 166.05 474.408 166.672L476.732 169.267C471.233 170.581 465.012 167.738 462.452 162.749C461.663 161.206 461.138 159.429 459.787 158.33C458.578 157.348 456.953 157.114 455.446 156.675C450.477 155.216 446.31 150.722 446.154 145.598C446.079 143.19 446.839 140.781 446.495 138.397C446.303 137.035 445.757 135.747 444.912 134.656C443.613 132.977 441.653 131.851 440.595 129.98C438.804 126.852 440.165 122.789 438.875 119.431C438.478 118.403 437.685 117.374 436.575 117.295C435.464 117.215 434.515 118.127 433.452 118.534C431.241 119.385 428.851 117.94 427.004 116.458C425.157 114.975 423.074 113.292 420.721 113.624C419.167 113.839 417.944 114.886 416.513 115.434C415.454 115.836 413.31 116.196 412.384 115.312C410.428 113.53 414.958 108.915 415.776 107.251Z" fill="#591D4B"/>
<path opacity="0.1" d="M463.765 161.206C462.972 159.663 462.452 157.886 461.101 156.792C459.892 155.81 458.267 155.571 456.755 155.132C451.79 153.678 447.624 149.184 447.463 144.059C447.388 141.651 448.148 139.238 447.808 136.854C447.61 135.501 447.065 134.221 446.226 133.136C444.922 131.458 442.961 130.331 441.908 128.46C440.118 125.337 441.478 121.274 440.184 117.912C439.792 116.888 438.993 115.859 437.888 115.775C436.783 115.691 435.824 116.612 434.766 117.019C432.555 117.87 430.16 116.42 428.318 114.943C426.475 113.465 424.383 111.777 422.035 112.104C420.481 112.324 419.253 113.371 417.826 113.914C416.768 114.316 414.619 114.681 413.693 113.797C411.747 111.927 416.277 107.321 417.089 105.666C417.765 104.3 418.1 102.781 418.913 101.49C418.955 101.42 419.002 101.35 419.05 101.28C418.442 101.778 417.917 102.368 417.495 103.028C416.688 104.319 416.352 105.834 415.677 107.204C414.86 108.859 410.329 113.479 412.28 115.335C413.225 116.224 415.351 115.859 416.409 115.457C417.826 114.91 419.064 113.862 420.618 113.647C422.98 113.315 425.058 115.003 426.901 116.481C428.743 117.958 431.152 119.408 433.353 118.557C434.411 118.15 435.337 117.234 436.471 117.318C437.605 117.402 438.36 118.426 438.771 119.455C440.061 122.812 438.701 126.875 440.491 130.004C441.549 131.841 443.509 132.991 444.808 134.679C445.654 135.77 446.199 137.059 446.391 138.42C446.736 140.805 445.975 143.213 446.051 145.621C446.207 150.764 450.373 155.239 455.343 156.698C456.84 157.138 458.474 157.371 459.684 158.353C461.039 159.452 461.573 161.229 462.348 162.772C464.908 167.761 471.13 170.604 476.628 169.29L475.532 168.065C470.766 168.135 465.943 165.451 463.765 161.206Z" fill="black"/>
<path opacity="0.1" d="M431.199 139.865C430.58 140.8 428.809 145.588 427.33 149.769C425.946 149.235 424.689 145.836 424.689 145.836L432.068 135.446C432.824 136.475 432.328 138.182 431.199 139.865Z" fill="black"/>
<path d="M431.482 139.584C430.863 140.52 429.092 145.308 427.613 149.488C426.229 148.96 424.973 145.556 424.973 145.556L432.351 135.17C433.107 136.194 432.611 137.906 431.482 139.584Z" fill="#DCE7FF"/>
<path d="M388.58 187.353L384.49 174.583C384.441 174.434 384.423 174.276 384.436 174.12C384.45 173.963 384.494 173.811 384.567 173.672C384.64 173.532 384.74 173.408 384.861 173.307C384.982 173.206 385.123 173.13 385.274 173.082C385.578 172.988 385.908 173.017 386.191 173.163C386.474 173.308 386.688 173.558 386.785 173.859L390.876 186.614L390.47 189.284L388.58 187.353Z" fill="#BE8B87"/>
<path opacity="0.1" d="M384.877 173.461C385.182 173.366 385.513 173.394 385.797 173.539C386.082 173.685 386.296 173.936 386.394 174.237L390.484 186.993L390.177 188.995L390.475 189.303L390.881 186.633L386.767 173.877C386.669 173.577 386.456 173.327 386.172 173.181C385.889 173.036 385.56 173.007 385.255 173.101C384.999 173.183 384.778 173.348 384.627 173.569C384.707 173.526 384.791 173.49 384.877 173.461Z" fill="white"/>
<path d="M388.581 187.353L390.876 186.633L390.541 188.821L390.47 189.303L389.799 188.611L388.581 187.353Z" fill="#EFC8C4"/>
<path d="M389.799 188.611C389.839 188.561 389.889 188.52 389.946 188.489C389.979 188.469 390.017 188.458 390.057 188.458C390.096 188.458 390.135 188.469 390.168 188.489C390.2 188.528 390.227 188.57 390.248 188.616C390.279 188.667 390.322 188.711 390.373 188.745C390.423 188.778 390.481 188.799 390.541 188.807L390.47 189.275L389.799 188.611Z" fill="#727A9C"/>
<path d="M384.466 179.119C384.466 179.119 392.671 179.072 390.739 182.528C388.807 185.983 385.789 186.399 385.789 186.399L384.466 179.119Z" fill="#FFB0B1"/>
<path d="M333.435 24.0434H333.081C318.985 24.0434 306.519 31.4266 299.348 42.3214C292.177 31.4266 279.711 24.0434 265.615 24.0434H265.261C254.682 24.1432 244.571 28.3714 237.124 35.8092C229.677 43.247 225.497 53.2933 225.491 63.765C225.491 76.7686 231.245 95.2197 242.464 110.402C263.839 139.332 299.348 164.642 299.348 164.642C299.348 164.642 334.857 139.337 356.227 110.402C367.451 95.2197 373.2 76.7686 373.2 63.765C373.194 53.2941 369.014 43.2485 361.569 35.8108C354.123 28.3732 344.013 24.1444 333.435 24.0434ZM328.366 112.628C326.761 112.622 325.195 112.136 323.874 111.233C322.553 110.33 321.539 109.053 320.964 107.569H312.537C311.982 107.565 311.442 107.39 310.992 107.068C310.543 106.747 310.206 106.294 310.029 105.773L307.44 98.0532L299.249 126.384C299.089 126.93 298.755 127.409 298.297 127.751C297.839 128.092 297.281 128.277 296.707 128.278H296.542C295.944 128.25 295.373 128.018 294.926 127.624C294.479 127.229 294.182 126.694 294.086 126.109L285.644 75.8522L279.475 105.591C279.333 106.156 279.005 106.657 278.542 107.016C278.078 107.374 277.507 107.569 276.919 107.569H265.048C264.693 107.584 264.337 107.527 264.004 107.403C263.671 107.278 263.367 107.088 263.109 106.844C262.852 106.6 262.648 106.307 262.508 105.983C262.368 105.659 262.296 105.31 262.296 104.957C262.296 104.605 262.368 104.256 262.508 103.931C262.648 103.607 262.852 103.314 263.109 103.07C263.367 102.826 263.671 102.636 264.004 102.512C264.337 102.387 264.693 102.331 265.048 102.346H274.841L283.58 62.3622C283.723 61.7711 284.07 61.2476 284.56 60.8813C285.05 60.515 285.654 60.3287 286.267 60.3541C286.881 60.3795 287.467 60.6151 287.924 61.0206C288.382 61.4261 288.683 61.9764 288.776 62.5773L297.397 113.844L304.738 88.4958C304.891 87.9619 305.214 87.4913 305.659 87.1542C306.104 86.8171 306.648 86.6316 307.208 86.6254H307.26C307.816 86.6256 308.356 86.7993 308.806 87.1217C309.256 87.4441 309.591 87.8988 309.764 88.4209L314.445 102.36H320.86C321.316 100.988 322.146 99.7679 323.259 98.8338C324.371 97.8997 325.723 97.2879 327.164 97.0661C328.606 96.8443 330.081 97.0211 331.428 97.5768C332.774 98.1326 333.939 99.0458 334.794 100.216C335.65 101.385 336.162 102.766 336.274 104.206C336.386 105.646 336.095 107.088 335.431 108.374C334.768 109.66 333.758 110.74 332.514 111.494C331.27 112.248 329.839 112.647 328.381 112.647L328.366 112.628Z" fill="#FF5C5C" fill-opacity="0.86"/>
</g>
<defs>
<linearGradient id="paint0_linear" x1="168.324" y1="362.32" x2="168.324" y2="74.5944" gradientUnits="userSpaceOnUse">
<stop stop-color="#808080" stop-opacity="0.25"/>
<stop offset="0.54" stop-color="#808080" stop-opacity="0.12"/>
<stop offset="1" stop-color="#808080" stop-opacity="0.1"/>
</linearGradient>
<linearGradient id="paint1_linear" x1="105443" y1="217093" x2="105443" y2="69400.8" gradientUnits="userSpaceOnUse">
<stop stop-color="#808080" stop-opacity="0.25"/>
<stop offset="0.54" stop-color="#808080" stop-opacity="0.12"/>
<stop offset="1" stop-color="#808080" stop-opacity="0.1"/>
</linearGradient>
<clipPath id="clip0">
<rect width="522" height="366" fill="white"/>
</clipPath>
</defs>
</svg>
