<svg width="30" height="29" viewBox="0 0 30 29" fill="none" xmlns="http://www.w3.org/2000/svg">
<g clip-path="url(#clip0)">
<path d="M23.2813 2.16929H23.1608V1.7126C23.1608 0.768157 22.3661 0 21.3891 0C20.4121 0 19.6175 0.768157 19.6175 1.7126V2.16929H10.3822V1.7126C10.3822 0.768157 9.58756 0 8.61056 0C7.63355 0 6.8389 0.768157 6.8389 1.7126V2.16929H6.71843C3.71796 2.16929 1.27686 4.52902 1.27686 7.42948V23.7403C1.27686 26.6407 3.71796 29.0005 6.71843 29.0005H23.2813C26.2817 29.0005 28.7228 26.6407 28.7228 23.7403V7.42948C28.7224 4.52902 26.2813 2.16929 23.2813 2.16929ZM20.5624 1.7126C20.5624 1.27189 20.9332 0.913386 21.3891 0.913386C21.845 0.913386 22.2159 1.27189 22.2159 1.7126V3.53937C22.2159 3.98008 21.845 4.33858 21.3891 4.33858C20.9332 4.33858 20.5624 3.98008 20.5624 3.53937V1.7126ZM7.78378 1.7126C7.78378 1.27189 8.15465 0.913386 8.61056 0.913386C9.06646 0.913386 9.43733 1.27189 9.43733 1.7126V3.53937C9.43733 3.98008 9.06646 4.33858 8.61056 4.33858C8.15465 4.33858 7.78378 3.98008 7.78378 3.53937V1.7126ZM6.71843 3.08268H6.8389V3.53937C6.8389 4.48381 7.63355 5.25197 8.61056 5.25197C9.58756 5.25197 10.3822 4.48381 10.3822 3.53937V3.08268H19.6175V3.53937C19.6175 4.48381 20.4121 5.25197 21.3891 5.25197C22.3661 5.25197 23.1608 4.48381 23.1608 3.53937V3.08268H23.2813C25.7606 3.08268 27.778 5.03276 27.778 7.42948V8.56299H2.22221V7.42948C2.22221 5.03276 4.23906 3.08268 6.71843 3.08268ZM23.2813 28.0866H6.71843C4.23906 28.0866 2.22174 26.1365 2.22174 23.7398V9.47638H27.7775V23.7398C27.7775 26.1365 25.7606 28.0866 23.2813 28.0866ZM24.8819 14.5379C25.1427 14.5379 25.3543 14.3333 25.3543 14.0812C25.3543 13.8291 25.1427 13.6245 24.8819 13.6245H23.2284V12.2544C23.2284 12.0023 23.0167 11.7977 22.7559 11.7977C22.4951 11.7977 22.2835 12.0023 22.2835 12.2544V13.6245H19.2915V12.2544C19.2915 12.0023 19.0798 11.7977 18.8191 11.7977C18.5583 11.7977 18.3466 12.0023 18.3466 12.2544V13.6245H15.3542V12.2544C15.3542 12.0023 15.1425 11.7977 14.8817 11.7977C14.621 11.7977 14.4093 12.0023 14.4093 12.2544V13.6245H11.4173V12.2544C11.4173 12.0023 11.2057 11.7977 10.9449 11.7977C10.6841 11.7977 10.4724 12.0023 10.4724 12.2544V13.6245H7.48048V12.2544C7.48048 12.0023 7.26882 11.7977 7.00804 11.7977C6.74725 11.7977 6.5356 12.0023 6.5356 12.2544V13.6245H4.88205C4.62126 13.6245 4.40961 13.8291 4.40961 14.0812C4.40961 14.3333 4.62126 14.5379 4.88205 14.5379H6.5356V18.0394H4.88205C4.62126 18.0394 4.40961 18.244 4.40961 18.4961C4.40961 18.7482 4.62126 18.9528 4.88205 18.9528H6.5356V22.4542H4.88205C4.62126 22.4542 4.40961 22.6588 4.40961 22.9109C4.40961 23.163 4.62126 23.3676 4.88205 23.3676H6.5356V24.7377C6.5356 24.9898 6.74725 25.1944 7.00804 25.1944C7.26882 25.1944 7.48048 24.9898 7.48048 24.7377V23.3676H10.4724V24.7377C10.4724 24.9898 10.6841 25.1944 10.9449 25.1944C11.2057 25.1944 11.4173 24.9898 11.4173 24.7377V23.3676H14.4093V24.7377C14.4093 24.9898 14.621 25.1944 14.8817 25.1944C15.1425 25.1944 15.3542 24.9898 15.3542 24.7377V23.3676H18.3461V24.7377C18.3461 24.9898 18.5578 25.1944 18.8186 25.1944C19.0794 25.1944 19.291 24.9898 19.291 24.7377V23.3676H22.283V24.7377C22.283 24.9898 22.4947 25.1944 22.7554 25.1944C23.0162 25.1944 23.2279 24.9898 23.2279 24.7377V23.3676H24.8814C25.1422 23.3676 25.3539 23.163 25.3539 22.9109C25.3539 22.6588 25.1422 22.4542 24.8814 22.4542H23.2279V18.9528H24.8814C25.1422 18.9528 25.3539 18.7482 25.3539 18.4961C25.3539 18.244 25.1422 18.0394 24.8814 18.0394H23.2279V14.5379H24.8819ZM18.3461 14.5379V18.0394H15.3542V14.5379H18.3461ZM14.4093 14.5379V18.0394H11.4173V14.5379H14.4093ZM7.48001 14.5379H10.472V18.0394H7.48001V14.5379ZM7.48001 22.4542V18.9528H10.472V22.4542H7.48001ZM11.4173 22.4542V18.9528H14.4093V22.4542H11.4173ZM15.3542 22.4542V18.9528H18.3461V22.4542H15.3542ZM22.2835 22.4542H19.2915V18.9528H22.2835V22.4542ZM22.2835 18.0394H19.2915V14.5379H22.2835V18.0394Z" fill="#C9C9C9"/>
</g>
<defs>
<clipPath id="clip0">
<rect width="30" height="29" fill="white"/>
</clipPath>
</defs>
</svg>
