<svg width="62" height="60" viewBox="0 0 62 60" fill="none" xmlns="http://www.w3.org/2000/svg">
<path d="M5.64258 47.095C6.43532 48.1859 7.30311 49.2241 8.23978 50.2025L11.081 47.6572C10.2619 46.8021 9.50279 45.8948 8.80919 44.9414L5.64258 47.095Z" fill="#0097FF"/>
<path d="M3.87436 29.8516C3.89591 16.7234 13.927 5.62513 27.3692 3.85709L26.8618 0.140381C9.90011 2.3477 -2.00093 17.4438 0.280095 33.8582C0.757265 37.2917 1.84548 40.6192 3.49669 43.6932L6.93057 41.9613C4.91005 38.2251 3.86105 34.0685 3.87436 29.8516Z" fill="#E0E0E0"/>
<path d="M11.2339 52.9522C12.2949 53.8017 13.4121 54.5832 14.5787 55.2913L16.6336 52.105C15.611 51.4851 14.6321 50.8002 13.7033 50.0546L11.2339 52.9522Z" fill="#0097FF"/>
<path d="M43.7901 2.54696C41.0355 1.33946 38.1132 0.52871 35.116 0.140381L34.6086 3.85709C49.4436 5.83446 59.8133 19.0757 57.77 33.432C55.9258 46.3887 44.5036 56.053 30.9888 56.0916C27.1357 56.1007 23.3257 55.3074 19.8175 53.7656L18.2178 57.1805C33.8073 64.0143 52.1697 57.324 59.2313 42.2374C66.2928 27.1508 59.3795 9.38073 43.7901 2.54696Z" fill="#0097FF"/>
</svg>
