<svg width="30" height="29" viewBox="0 0 30 29" fill="none" xmlns="http://www.w3.org/2000/svg">
<path d="M0.440007 11.6906H4.11835C4.36135 11.6906 4.55836 11.487 4.55836 11.2359C4.55836 10.9848 4.36135 10.7812 4.11835 10.7812H0.440007C0.197006 10.7812 0 10.9848 0 11.2359C0 11.487 0.197006 11.6906 0.440007 11.6906Z" fill="#C9C9C9"/>
<path d="M14.9489 27.7037H13.9687C12.0769 27.7037 10.234 27.1477 8.63928 26.0956L8.548 26.0354C8.47724 25.9888 8.39517 25.964 8.31127 25.964H0.440007C0.197006 25.964 0 26.1676 0 26.4187C0 26.6698 0.197006 26.8733 0.440007 26.8733H8.18285C9.91525 28.0115 11.9156 28.613 13.9687 28.613H14.9489C15.1919 28.613 15.3889 28.4095 15.3889 28.1584C15.3889 27.9073 15.1919 27.7037 14.9489 27.7037Z" fill="#C9C9C9"/>
<path d="M29.3549 17.0316C29.3549 16.2264 29.0107 15.5032 28.4668 15.0094C29.3701 14.5863 30.0003 13.6464 30.0003 12.5566C30.0003 11.0722 28.8316 9.86446 27.395 9.86446H22.0866C21.5239 9.86446 21.0027 10.0504 20.5763 10.365H18.6259C18.6298 10.3325 18.6357 10.3002 18.6436 10.2684L19.1644 8.18295C19.3759 7.33628 19.4831 6.46361 19.4831 5.58912C19.4831 4.23128 19.2302 2.90575 18.7315 1.64946L18.6653 1.48293C18.3864 0.780363 17.7313 0.326416 16.9964 0.326416C16.1935 0.326416 15.4799 0.883908 15.2609 1.68207L14.6337 3.96842C14.4184 4.75313 13.9882 5.44896 13.3896 5.98057L8.08187 10.6944C8.01892 10.7503 7.93854 10.7811 7.85553 10.7811H6.00104C5.75804 10.7811 5.56104 10.9847 5.56104 11.2358C5.56104 11.4869 5.75804 11.6905 6.00104 11.6905H7.85553C8.14887 11.6905 8.43299 11.5817 8.65546 11.3841L13.9632 6.67022C14.6932 6.02191 15.2178 5.17343 15.4803 4.21643L16.1075 1.93008C16.2197 1.5213 16.5852 1.23577 16.9964 1.23577C17.3728 1.23577 17.7082 1.46826 17.8511 1.82811L17.9172 1.99465C18.3723 3.14085 18.603 4.35022 18.603 5.58918C18.603 6.38698 18.5052 7.18321 18.3123 7.95573L17.7914 10.0411C17.7574 10.1775 17.7401 10.318 17.7401 10.4588V12.0704C17.7401 13.6154 17.3443 15.1389 16.5956 16.4762L15.968 17.5972C15.8463 17.8145 15.9181 18.0927 16.1285 18.2185C16.1979 18.26 16.2736 18.2797 16.3484 18.2797C16.5003 18.2797 16.6482 18.1983 16.7297 18.0526L17.3573 16.9316C18.1835 15.456 18.6201 13.7751 18.6201 12.0704V11.2744H19.7962C19.5954 11.6559 19.4812 12.0927 19.4812 12.5566C19.4812 13.4882 19.9416 14.3106 20.6396 14.7941C19.9416 15.2776 19.4812 16.1 19.4812 17.0316C19.4812 17.9632 19.9416 18.7855 20.6396 19.2691C19.9416 19.7526 19.4812 20.575 19.4812 21.5065C19.4812 22.4381 19.9416 23.2605 20.6396 23.744C19.9416 24.2276 19.4812 25.0499 19.4812 25.9815C19.4812 26.6361 19.7087 27.2366 20.0859 27.7037H16.8316C16.5886 27.7037 16.3916 27.9073 16.3916 28.1584C16.3916 28.4095 16.5886 28.6131 16.8316 28.6131C16.8316 28.6131 21.5139 28.6123 21.5283 28.6107C21.7083 28.6515 21.8949 28.6736 22.0865 28.6736H24.9895C26.4261 28.6736 27.5948 27.4659 27.5948 25.9815C27.5948 25.2372 27.301 24.5626 26.8269 24.0748C27.8829 23.731 28.6509 22.7097 28.6509 21.5065C28.6509 20.7112 28.3152 19.9956 27.7828 19.5024C28.7068 19.0882 29.3549 18.1368 29.3549 17.0316ZM20.3613 12.5566C20.3613 11.5736 21.1352 10.7738 22.0866 10.7738H27.395C28.3463 10.7738 29.1203 11.5735 29.1203 12.5566C29.1203 13.5397 28.3463 14.3394 27.395 14.3394H22.0866C21.1353 14.3394 20.3613 13.5396 20.3613 12.5566ZM24.9896 27.7643H22.0866C21.1353 27.7643 20.3613 26.9645 20.3613 25.9815C20.3613 24.9984 21.1352 24.1986 22.0866 24.1986H24.9896C25.9409 24.1986 26.7149 24.9984 26.7149 25.9815C26.7149 26.9645 25.9409 27.7643 24.9896 27.7643ZM26.7496 18.8144H25.9629C25.7199 18.8144 25.5229 19.018 25.5229 19.2691C25.5229 19.5202 25.7199 19.7237 25.9629 19.7237H26.0456C26.9969 19.7237 27.7709 20.5235 27.7709 21.5065C27.7709 22.4896 26.997 23.2894 26.0456 23.2894H22.0866C21.1353 23.2894 20.3613 22.4896 20.3613 21.5065C20.3613 20.5235 21.1352 19.7237 22.0866 19.7237H24.0805C24.3235 19.7237 24.5205 19.5202 24.5205 19.2691C24.5205 19.018 24.3235 18.8144 24.0805 18.8144H22.0866C21.1353 18.8144 20.3613 18.0146 20.3613 17.0316C20.3613 16.0486 21.1352 15.2488 22.0866 15.2488H26.7496C27.7009 15.2488 28.4749 16.0485 28.4749 17.0316C28.4749 18.0146 27.701 18.8144 26.7496 18.8144Z" fill="#C9C9C9"/>
</svg>
