<svg width="42" height="26" viewBox="0 0 42 26" fill="none" xmlns="http://www.w3.org/2000/svg">
<path d="M29.5524 0C26.2425 0 23.2317 1.35894 21 3.56637C18.7682 1.35827 15.7579 0 12.448 0C5.58412 0 0 5.83176 0 13.0003C0 20.1679 5.58412 26 12.448 26C15.7579 26 18.7681 24.6411 21 22.4333C23.2316 24.6416 26.2425 26 29.5523 26C36.4156 26 42 20.1679 42 13.0003C42 5.83176 36.4157 0 29.5524 0ZM12.448 24.8325C6.20006 24.8325 1.11784 19.5237 1.11784 13.0003C1.11784 6.47599 6.20061 1.16751 12.448 1.16751C15.4566 1.16751 18.1881 2.40677 20.2182 4.41187C18.2821 6.70407 17.1036 9.71099 17.1036 13.0004C17.1036 16.2906 18.282 19.297 20.2182 21.5897C18.1881 23.5932 15.4566 24.8325 12.448 24.8325ZM18.2215 13.0003C18.2215 10.0412 19.2747 7.33845 21 5.2618C22.7251 7.33845 23.7785 10.0413 23.7785 13.0003C23.7785 15.9588 22.7251 18.6619 21 20.7379C19.2747 18.6619 18.2215 15.9587 18.2215 13.0003ZM29.5524 24.8325C26.5438 24.8325 23.8119 23.5932 21.7819 21.5884C23.718 19.2957 24.8965 16.2894 24.8965 12.9991C24.8965 9.70945 23.718 6.70281 21.7819 4.41061C23.8123 2.40552 26.5437 1.16626 29.5524 1.16626C35.7999 1.16626 40.8822 6.47454 40.8822 12.9991C40.8822 19.5227 35.7999 24.8325 29.5524 24.8325ZM21.7416 7.52767H20.0885V6.94392H21.7416V7.52767ZM20.24 18.4726H21.8933V19.0564H20.24V18.4726ZM22.8834 9.59516H19.2501V9.01141H22.8834V9.59516ZM23.2328 11.4678H18.6106V10.8841H23.2328V11.4678ZM23.3954 12.8056V13.389H18.6044V12.8056H23.3954ZM18.8431 14.7127H23.1552V15.2964H18.8431V14.7127ZM19.2501 16.5755H22.5341V17.1593H19.2501V16.5755Z" fill="#C9C9C9"/>
</svg>
