<svg width="28" height="27" viewBox="0 0 28 27" fill="none" xmlns="http://www.w3.org/2000/svg">
<path d="M25.0833 0H2.91665C1.30665 0.0018457 0.00191406 1.25998 0 2.81248V24.1875C0.00191406 25.74 1.30665 26.9982 2.91665 27H25.0833C26.6933 26.9982 27.998 25.74 27.9999 24.1875V2.81248C27.9981 1.25998 26.6933 0.0018457 25.0833 0ZM26.8333 24.1875C26.8333 25.1195 26.0498 25.875 25.0833 25.875H2.91665C1.95016 25.875 1.16665 25.1195 1.16665 24.1875V2.81248C1.16665 1.88051 1.95016 1.12498 2.91665 1.12498H25.0833C26.0498 1.12498 26.8333 1.88051 26.8333 2.81248V24.1875H26.8333Z" fill="#C9C9C9"/>
<path d="M25.6668 4.5H2.3335V5.62498H25.6668V4.5Z" fill="#C9C9C9"/>
<path d="M4.08315 2.25H2.9165V3.37498H4.08315V2.25Z" fill="#C9C9C9"/>
<path d="M6.41665 2.25H5.25V3.37498H6.41665V2.25Z" fill="#C9C9C9"/>
<path d="M25.0832 2.25H23.9165V3.37498H25.0832V2.25Z" fill="#C9C9C9"/>
<path d="M13.9999 8.4375C9.81172 8.4375 6.4165 11.7114 6.4165 15.75C6.4165 19.7886 9.81172 23.0625 13.9999 23.0625C18.186 23.0578 21.5783 19.7866 21.5832 15.75C21.5832 11.7114 18.188 8.4375 13.9999 8.4375ZM13.9999 21.9375C10.4561 21.9375 7.58321 19.1673 7.58321 15.75C7.58321 12.3328 10.4561 9.56248 13.9999 9.56248C17.542 9.56649 20.4123 12.3344 20.4165 15.75C20.4165 19.1673 17.5437 21.9375 13.9999 21.9375Z" fill="#C9C9C9"/>
<path d="M17.5001 14.0625H15.7501V12.375C15.7501 11.7537 15.2278 11.25 14.5834 11.25H13.4168C12.7725 11.25 12.2501 11.7537 12.2501 12.375V14.0625H10.5001C9.85582 14.0625 9.3335 14.5662 9.3335 15.1875V16.3125C9.3335 16.9338 9.85582 17.4374 10.5001 17.4374H12.2501V19.1249C12.2501 19.7463 12.7725 20.2499 13.4168 20.2499H14.5834C15.2278 20.2499 15.7501 19.7463 15.7501 19.1249V17.4374H17.5001C18.1444 17.4374 18.6667 16.9338 18.6667 16.3125V15.1875C18.6667 14.5662 18.1444 14.0625 17.5001 14.0625ZM17.5001 16.3125H15.1667C14.8446 16.3125 14.5834 16.5643 14.5834 16.875V19.125H13.4167V16.875C13.4167 16.5643 13.1556 16.3125 12.8334 16.3125H10.5001V15.1875H12.8334C13.1556 15.1875 13.4168 14.9356 13.4168 14.625V12.3749H14.5834V14.625C14.5834 14.9356 14.8446 15.1875 15.1668 15.1875H17.5001V16.3125Z" fill="#C9C9C9"/>
<path d="M2.91685 6.75C2.59468 6.75 2.3335 7.00186 2.3335 7.31252V9.56254H3.5002V7.87504H5.2502V6.75H2.91685Z" fill="#C9C9C9"/>
<path d="M24.5 21.9375V23.625H22.75V24.75H25.0834C25.4055 24.75 25.6667 24.4981 25.6667 24.1875V21.9375H24.5Z" fill="#C9C9C9"/>
</svg>
