<svg width="36" height="42" viewBox="0 0 36 42" fill="none" xmlns="http://www.w3.org/2000/svg">
<path d="M31.3673 17.0029H28.39V8.75362C28.39 8.33747 28.1067 8 27.7574 8H1.63265C1.28324 8 1 8.33747 1 8.75362V29.6102C1 30.0264 1.28324 30.3638 1.63265 30.3638H12.4303V32.4928H10.9959C10.6465 32.4928 10.3633 32.8302 10.3633 33.2464C10.3633 33.6626 10.6465 34 10.9959 34H18.8127C19.1621 34 19.4454 33.6626 19.4454 33.2464C19.4454 32.8302 19.1621 32.4928 18.8127 32.4928H17.3784V30.3638H21.0142V33.2464C21.0142 33.6626 21.2975 34 21.6469 34H31.3673C31.7167 34 32 33.6626 32 33.2464V17.7566C32 17.3403 31.7167 17.0029 31.3673 17.0029ZM30.7347 28.8566H22.2795V18.5102H30.7347V28.8566ZM27.1247 9.50725V17.0029H21.6468C21.2975 17.0029 21.0142 17.3403 21.0142 17.7566V23.0354H2.26531V9.50725H27.1247ZM16.1131 32.4928H13.6956V30.3638H16.1131V32.4928ZM2.26531 28.8566V24.5426H21.0142V28.8566H2.26531ZM22.2795 32.4928V30.3638H30.7347V32.4928H22.2795Z" fill="#C9C9C9"/>
<path d="M29.6213 33.4333C29.8924 33.4333 30.1122 33.1769 30.1122 32.8606C30.1122 32.5443 29.8924 32.2878 29.6213 32.2878C29.3502 32.2878 29.1304 32.5443 29.1304 32.8606C29.1304 33.1769 29.3502 33.4333 29.6213 33.4333Z" fill="white"/>
<path d="M15.9037 28.023C16.2427 28.023 16.5174 27.7025 16.5174 27.307C16.5174 26.9116 16.2427 26.5911 15.9037 26.5911C15.5648 26.5911 15.29 26.9116 15.29 27.307C15.29 27.7025 15.5648 28.023 15.9037 28.023Z" fill="white"/>
</svg>
